<?xml version="1.0" encoding="UTF-8" standalone="no"?><!DOCTYPE svg PUBLIC "-//W3C//DTD SVG 1.1//EN" "http://www.w3.org/Graphics/SVG/1.1/DTD/svg11.dtd"><svg width="100%" height="100%" viewBox="0 0 1246 1379" version="1.1" xmlns="http://www.w3.org/2000/svg" xmlns:xlink="http://www.w3.org/1999/xlink" xml:space="preserve" xmlns:serif="http://www.serif.com/" style="fill-rule:evenodd;clip-rule:evenodd;stroke-linejoin:round;stroke-miterlimit:2;"><g id="Fondo"><path d="M650.51,1284.088c-0.839,0.425 -1.516,1.129 -2.354,1.555l-10.184,4.806c-16.535,8.37 -18.082,6.878 -37.694,-3.852c-74.594,-40.812 -74.683,-40.484 -81.083,-44.173c-38.895,-22.422 -64.027,-35.505 -88.152,-48.922c-63.113,-35.1 -63.193,-34.741 -68.664,-37.805c-213.197,-119.383 -244.905,-134.188 -262.444,-144.503c-31.563,-18.564 -35.239,-18.481 -35.498,-35.812c-0.202,-13.505 0.534,-13.487 1.772,-168.82c0.954,-127.195 1.907,-254.39 2.861,-381.586c0.487,-69.345 0.299,-69.631 3.379,-75.988c1.405,-2.9 2.851,-5.883 34.139,-21.376c109.379,-54.159 292.272,-153.589 304.631,-160.133c172.986,-91.602 172.424,-92.614 187.522,-100.469c18.67,-9.714 21.231,-10.472 56.108,9.21c19.465,10.985 60.569,31.578 106.517,56.028c93.268,49.628 93.779,48.641 101.738,53.228c32.848,18.928 190.463,97.332 293.358,151.425c16.523,8.686 15.245,18.004 15.537,44.295c5.173,466.254 5.644,466.192 5.963,506.732c0.787,99.946 5.007,103.417 -8.535,113.626c-7.998,6.03 -444.599,244.105 -518.917,282.535Z" style="fill:#69d3d9;"/><path d="M917.398,1098.46c-4.356,2.293 -44.353,23.35 -54.244,29.044c-5.638,3.246 -42.373,24.396 -71.17,39.337c-7.342,3.81 -80.008,41.511 -91.488,48.18c-4.457,2.589 -32.831,19.07 -57.072,29.894c-16.679,7.447 -18.526,11.911 -31.827,6.498c-1.611,-0.655 -52.561,-27.622 -56.951,-30.162c-5.149,-2.978 -87.966,-47.005 -93.646,-50.333c-8.636,-5.059 -287.928,-157.767 -329.531,-179.229c-26.518,-13.68 -28.515,-16.103 -30.927,-22.815c-1.937,-5.39 -0.656,-275.649 -1.686,-418.81c-0.74,-102.734 0.978,-175.028 0.978,-175.031c2.182,-13.732 7.897,-10.303 142.364,-82.636c34.976,-18.814 63.232,-34.27 69.077,-37.077c16.846,-8.088 251.132,-137.499 275.96,-148.767c24.578,-11.155 26.587,-17.832 44.562,-9.224c34.101,16.329 33.556,17.163 67.489,33.998c52.228,25.912 121.784,64.399 143.476,75.829c7.423,3.912 267.885,139.692 270.49,141.003c22.982,11.56 28.989,11.209 28.74,32.97c-0.643,56.275 2.089,376.249 1.182,475.469c-1.014,110.876 0.869,111.301 -2.14,117.803c-2.126,4.594 -4.323,4.017 -83.597,47.354c-58.788,32.138 -58.819,32.153 -64.071,34.679c-4.045,1.946 -71.95,39.873 -75.966,42.025Z" style="fill:#06141f;"/><path d="M944.77,555.603c47.168,79.126 85.087,149.591 109.78,189.312c40.203,64.669 39.015,73.188 38.034,80.223c-2.83,20.29 -27.372,22.586 -30.403,22.87c-3.996,0.374 -375.18,0.317 -381.192,-0.404c-17.745,-2.13 -38.593,-16.021 -21.055,-48.386c19.02,-35.098 105.031,-175.966 113.991,-193.223c3.514,-6.768 28.297,-47.844 32.526,-55.573c11.395,-20.824 13.891,-21.221 35.855,-63.469c19.953,-38.38 48.575,-25.857 63.611,0.579c5.592,9.832 17.893,30.445 38.853,68.072Z" style="fill:#d1f8f7;"/><path d="M2964.135,3643.58c0.601,-3.218 2.317,-6.16 2.918,-9.378c0.014,-0.075 0.002,-3631.651 0,-3947.447c-0.001,-300.667 0.176,-301.138 -1.332,-302.494c-0.74,-0.665 -18.722,-0.7 -20.351,-0.704c-1899.697,-0 -3799.394,-0 -5699.091,-0c-669.152,-0.001 -669.611,-0.169 -671.13,1.419c-1.14,1.192 -1.14,30.153 -1.14,32.776c0.015,4215.296 -0.158,4215.258 -0,4216.449c0.429,3.243 2.464,6.135 2.893,9.378c-2.213,-2.211 -7.171,2.211 -9.384,0c-2.211,-2.21 0,-6.252 0,-9.378l0,-4257.112c0.901,-1.502 1.359,0 21.896,0l6384.098,0c1.502,0.901 -0,1.359 -0,21.896l0,4244.594c-1.608,2.681 -7.77,-2.681 -9.378,0Z" style="fill:#020209;fill-opacity:0.66;"/><path d="M406.829,464.864c3.383,-2.17 20.593,-7.172 24.516,-27.251c0.706,-3.615 -0.421,-16.393 11.684,-18.897c8.084,-1.672 113.639,-1.294 118.926,-0.914c19.274,1.385 12.956,13.525 17.108,26.435c8.409,26.144 69.111,26.64 81.095,74.977c3.582,14.449 1.451,82.344 0.418,86.75c-2.768,11.804 -20.222,8.824 -42.257,9.497c-55.843,1.705 -39.264,52.899 -46.463,57.462c-1.121,0.711 -2.594,-0.724 -3.716,-1.435c-4.894,-3.1 -4.527,-3.576 -5.644,-9.19c-7.225,-36.331 -10.548,-47.972 -25.506,-50.543c-9.339,-1.605 -92.66,-0.066 -94.018,0.04c-18.591,1.442 -15.681,13.475 -24.477,32.361c-16.164,34.705 -23.4,39.465 -26.706,41.641c-15.776,10.379 -15.383,12.762 -15.589,45.701c-1.079,172.95 0.671,172.901 0.238,187.93c-0.673,23.4 -23.621,8.758 -28.005,-6.285c-4.413,-15.14 -0.853,-309.094 -2.021,-356.82c-1.369,-55.925 5.564,-63.319 60.416,-91.459Z" style="fill:#effcfb;"/><path d="M893.64,531.178c18.786,30.936 112.986,198.199 132.806,230.647c0.227,0.372 21.731,37.197 22.487,44.688c1.249,12.395 -7.288,8.782 -155.481,8.7c-189.35,-0.105 -190.227,0.688 -193.753,-2.634c-8.066,-7.599 -2.445,-10.336 65.257,-129.442c0.492,-0.866 35.44,-57.759 70.964,-121.253c28.961,-51.764 34.001,-61.27 43.28,-53.514c3.196,2.671 14.247,22.489 14.44,22.807Z" style="fill:#061925;"/><path d="M400.501,737.738c0.049,-1.467 0.613,-18.338 0.613,-18.338c2.696,-7.671 3.211,-8.031 11.038,-9.864c0.98,-0.229 16.938,-0.263 18.411,-0.266c10.017,-0.021 102.052,-0.216 125.212,0.644c16.959,0.63 17.066,7.057 17.231,27.837c0.111,14.012 1.353,170.43 1.29,175.15c-0.021,1.577 -0.179,13.478 -6.224,18.7c-6.562,5.669 -7.474,5.859 -93.765,5.472c-57.192,-0.257 -72.032,2.637 -73.493,-24.268c-0.001,-0.022 -0.316,-131.499 -0.313,-175.065Z" style="fill:#cbf6f5;"/><path d="M548.165,733.189c0.975,3.07 1.95,6.139 2.925,9.209c0.798,10.592 4.11,31.922 3.685,95.609c-0.506,75.658 2.844,76.375 -0.572,80.771c-2.099,2.701 -21.813,2.388 -23.719,2.358c-96.133,-1.528 -105.582,2.883 -110.337,-7.855c-1.454,-3.283 0.922,-87.651 1.136,-95.27c1.543,-54.807 0.54,-85.631 2.437,-86.72c2.189,-1.257 5.171,2.211 7.478,1.188c2.72,-1.206 2.704,-6.177 5.57,-6.975c2.33,-0.649 4.191,2.419 6.256,3.68c2.116,1.291 3.922,3.226 6.285,3.975c1.921,0.608 4.326,0.984 6.044,-0.069c2.827,-1.734 3.149,-7.169 6.439,-7.586c2.856,-0.362 3.564,4.895 6.23,5.981c2.61,1.063 5.767,0.85 8.454,0c1.81,-0.573 2.188,-3.872 4.084,-3.969c2.377,-0.121 3.876,3.467 6.256,3.441c2.402,-0.026 3.854,-3.593 6.256,-3.576c2.416,0.017 3.84,3.693 6.256,3.663c2.443,-0.03 3.814,-3.764 6.256,-3.818c2.396,-0.052 3.903,4.002 6.256,3.544c2.235,-0.435 1.761,-5.1 3.994,-5.541c2.961,-0.585 5.515,2.763 8.517,3.069c0.674,0.069 17.971,-5.34 18.768,-4.737c2.888,2.188 2.159,7.44 5.048,9.628Z" style="fill:#b1f1f2;"/><path d="M638.326,855.305c-2.885,1.461 -4.743,4.533 -7.627,5.994c-6.527,3.306 -7.774,-3.389 -13.852,0.65c-1.162,0.772 -1.166,53.843 1.664,56.619c3.826,3.753 133.327,1.837 136.657,3.277c0.251,0.109 1.653,3.659 6.904,4.838c2.061,0.463 4.289,0.238 6.256,1.007c2.247,0.878 3.89,2.958 6.137,3.836c-2.667,1.006 -3.583,4.539 -18.702,5.107c-5.945,0.223 -22.976,0.228 -24.974,0.229c-112.318,0.031 -124.7,3.104 -130.965,-11.641c-3.617,-8.512 -2.474,-8.976 -2.516,-237.529c-0.006,-33.933 -0.431,-44.64 33.392,-43.767c63.262,1.633 63.202,0.856 68.693,1.083c1.252,0.052 13.771,0.57 11.089,11.066c-0.921,3.604 -30.028,54.919 -49.525,87.272c-27.849,46.213 -40.888,67.491 -35.689,88.074c3.395,13.441 4.739,12.86 13.06,23.885Z" style="fill:#ddf9f8;"/><path d="M424.53,319.026c0.746,-0.169 4.517,-2.614 12.21,-2.761c52.609,-1.009 115.136,0.032 125.146,0.198c32.134,0.535 30.657,14.02 29.585,52.13c-0.566,20.107 2.92,27.609 -17.201,28.713c-10.684,0.586 -126.474,0.404 -137.472,0.387c-22.161,-0.035 -20.82,-9.143 -20.591,-54.089c0.095,-18.531 2.913,-18.507 8.323,-24.578Z" style="fill:#ebf8f8;"/><path d="M638.326,855.305c8.881,7.295 14.892,16.85 48.746,18.179c27.941,1.097 71.005,0.168 81.346,0.644c18.881,0.869 15.733,15.437 15.317,32.695c-0.463,19.206 -7.476,21.949 -9.27,24.703c-2.247,-0.878 -3.89,-2.958 -6.137,-3.836c-1.967,-0.769 -4.195,-0.544 -6.256,-1.007c-5.251,-1.179 -6.653,-4.729 -6.904,-4.838c-3.331,-1.439 -132.832,0.477 -136.657,-3.277c-2.83,-2.776 -2.827,-55.847 -1.664,-56.619c6.078,-4.039 7.326,2.656 13.852,-0.65c2.885,-1.461 4.743,-4.533 7.627,-5.994Z" style="fill:#8debec;"/><path d="M896.882,643.751c-2.473,34.436 -3.641,34.244 -5.984,68.739c-1.121,16.5 -5.542,16.503 -22.095,15.935c-15.515,-0.533 -14.673,-14.581 -15.1,-21.781c-5.517,-93.016 -13.181,-110 14.752,-112.419c2.311,-0.2 21.61,-1.872 26.658,11.395c0.469,1.233 2.103,10.208 2.209,13.291c0.068,1.986 -0.033,1.84 -0.439,24.841Z" style="fill:#ebf9fa;"/><path d="M540.225,663.188c1.712,15.325 4.833,23.169 -15.903,23.584c-36.497,0.731 -83.552,0.267 -87.273,-0.293c-16.004,-2.413 -3.207,-24.7 3.431,-37.588c9.287,-18.031 13.587,-13.935 33.813,-13.957c50.739,-0.055 56.848,-3.116 62.549,15.23c0.319,1.028 0.251,0.965 3.383,13.024Z" style="fill:#e6fbf9;"/><path d="M874.755,782.79c-2.127,-0.442 -4.372,-0.055 -6.499,-0.498c-21.396,-4.449 -21.364,-42.908 11.549,-35.591c13.311,2.959 16.489,29.774 1.137,34.853c-1.997,0.661 -4.19,0.576 -6.187,1.236Z" style="fill:#e6fafb;"/><path d="M467.953,337.207c0.341,4.513 1.236,8.972 1.577,13.485c1.186,15.706 -0.363,15.709 -0.101,17.047c0.209,1.067 0.362,0.937 4.898,12.671c-15.707,-1.366 -16.309,-1.607 -17.628,-2.134c-0.925,-0.37 -1.249,-1.797 -2.225,-1.994c-2.542,-0.513 -5.221,0.398 -7.779,-0.024c-2.439,-0.402 -1.998,-7.018 -1.956,-7.649c1.503,-22.576 0.81,-22.643 1.383,-24.523c1.906,-6.257 2.646,-6.421 9.155,-7.126c9.881,-1.07 9.956,0.194 12.677,0.247Z" style="fill:#b8f3f5;"/><path d="M236.696,706.562c-2.53,1.28 -4.315,3.769 -6.844,5.05c-15.001,7.594 -35.014,-16.24 -17.685,-29.4c15.183,-11.53 32.088,6.501 28.399,17.395c-0.851,2.513 -3.018,4.442 -3.869,6.955Z" style="fill:#dbf9fa;"/><path d="M541.513,343.862c3.066,-2.367 6.568,-4.13 9.633,-6.497c2.455,-1.895 3.784,-6.275 6.885,-6.256c3.298,0.021 3.636,17.247 3.666,18.778c0.049,2.496 0.601,30.593 0.408,31.206c-0.757,2.398 -1.607,6.305 -4.122,6.319c-0.736,0.004 0.018,-0.902 -6.754,-6.256c-4.5,-3.557 -4.852,-2.919 -9.385,-6.502c0.05,-14.92 -0.011,-14.805 -0.332,-30.792Z" style="fill:#d0fbfd;"/><path d="M750.217,361.93c0.499,2.106 1.946,3.908 2.445,6.014c4.543,19.182 -24.986,28.744 -30.985,7.837c-4.63,-16.137 14.408,-27.486 25.805,-17.324c1.1,0.981 1.635,2.493 2.735,3.473Z" style="fill:#d0f4f6;"/><path d="M242.803,813.017c-8.405,-4.664 -11.521,-3.167 -12.014,-12.75c-0.685,-13.317 10.279,-14.365 11.766,-14.507c16.374,-1.565 20.992,23.518 6.486,26.878c-2.029,0.47 -4.209,-0.092 -6.238,0.379Z" style="fill:#b9ecef;"/><path d="M541.513,343.862c0.321,15.987 0.382,15.871 0.332,30.792c-1.133,1.7 0.757,4.416 -0.376,6.116c-0.63,0.946 -8.826,0.538 -10.028,-0.85c-0.022,-0.025 -1.778,-48.973 -1.086,-49.461c1.74,-1.227 4.381,0.153 6.295,1.087c0.602,0.294 4.374,5.553 4.575,6.458c0.424,1.909 -0.136,3.95 0.288,5.858Z" style="fill:#94f6f4;"/><path d="M509.74,375.949c0.003,-3.21 0.034,-37.961 0.677,-40.115c1.515,-5.069 6.138,-3.026 6.667,-2.792c4.626,2.044 2.431,3.803 3.642,35.928c0.047,1.255 0.727,19.303 -9.342,12.622c-1.632,-1.083 -0.012,-4.56 -1.644,-5.643Z" style="fill:#7ceef0;"/><path d="M488.692,338.708c1.044,-1.233 0.199,-3.451 1.243,-4.684c0.432,-0.51 8.359,-3.129 9.311,3.413c0.155,1.066 -0.136,35.382 -0.272,37.239c-0.374,5.104 -0.67,6.276 -5.827,6.028c-1.447,-0.069 -2.663,-1.342 -4.11,-1.412c-0.584,-20.289 -0.142,-20.177 -0.345,-40.585Z" style="fill:#78edee;"/><path d="M447.079,1020.552c0.206,1.757 1.426,3.294 1.632,5.051c1.771,15.075 -16.299,17.426 -20.32,7.318c-5.36,-13.473 7.64,-24.299 16.22,-15.366c0.896,0.933 1.572,2.063 2.468,2.996Z" style="fill:#bce8ec;"/><path d="M480.439,337.62l8.252,1.088c0.203,20.407 -0.238,20.295 0.345,40.585c-4.903,0.372 -9.806,0.745 -14.709,1.117c0.933,-2.57 4.514,-1.512 4.438,-12.228c-0.013,-1.871 -0.141,-19.739 0.162,-23.394c0.201,-2.434 1.311,-4.734 1.513,-7.168Z" style="fill:#d3faf9;"/><path d="M467.953,337.207c1.171,-0.353 0.013,-3.119 1.183,-3.472c0.915,-0.276 0.79,0.272 11.303,3.885c-0.201,2.434 -1.311,4.734 -1.513,7.168c-0.302,3.654 -0.175,21.522 -0.162,23.394c0.076,10.717 -3.505,9.658 -4.438,12.228c-4.536,-11.734 -4.689,-11.605 -4.898,-12.671c-0.262,-1.338 1.287,-1.341 0.101,-17.047c-0.341,-4.513 -1.236,-8.972 -1.577,-13.485Z" style="fill:#99f0f1;"/><path d="M844.916,994.433c1.163,-2.163 0.212,-2.418 1.419,-4.662c0.141,-0.263 0.996,-1.852 2.551,-2.724c13.601,-7.62 17.243,5.942 17.64,7.421c1.6,5.959 -7.208,16.555 -16.312,11.377c-5.585,-3.177 -3.503,-4.648 -5.298,-11.412Z" style="fill:#bfe6eb;"/><path d="M567.759,1069.641c-0.243,-3.841 -2.644,-2.995 -2.887,-6.846c-0.036,-0.577 -0.158,-2.5 2.016,-6.943c1.367,-2.794 9.505,-7.406 15.883,-1.51c10.663,9.856 -2.265,20.79 -8.029,19.11c-2.546,-0.742 -4.437,-3.07 -6.983,-3.812Z" style="fill:#b9e4e8;"/><path d="M286.163,472.898c-1.629,-0.37 -3.378,0.13 -5.007,-0.241c-9.613,-2.186 -8.319,-21.152 6.169,-18.606c5.123,0.9 8.626,10.435 5.412,14.582c-1.6,2.065 -4.974,2.2 -6.574,4.264Z" style="fill:#c2e6ea;"/><path d="M899.349,407.072c-1.632,-1.9 -2.404,-0.735 -4.005,-2.599c-0.26,-0.302 -1.852,-2.157 -2.104,-4.513c-0.132,-1.236 -1.367,-12.781 11.918,-9.963c7.386,1.567 8.375,15.285 1.17,17.062c-2.258,0.557 -4.72,-0.544 -6.978,0.013Z" style="fill:#b4dbe3;"/><path d="M768.649,268.16c0.624,2.483 2.926,4.327 3.55,6.81c0.929,3.695 -5.039,9.969 -9.832,9.541c-8.727,-0.78 -8.586,-8.758 -8.567,-9.799c0.017,-0.937 0.144,-8.138 8,-8.56c2.376,-0.128 4.473,2.136 6.849,2.008Z" style="fill:#b8dbe0;"/><path d="M236.937,605.765c-0.843,-2.334 -3.461,-3.742 -4.304,-6.076c-1.633,-4.52 5.455,-11.682 9.877,-10.154c10.794,3.729 7.576,16.541 0.404,17.287c-2.013,0.209 -3.965,-1.266 -5.978,-1.056Z" style="fill:#9acad3;"/><path d="M961.668,968.319c-1.95,-0.119 -3.757,1.451 -5.706,1.332c-0.789,-0.048 -6.75,-0.412 -7.61,-6.312c-0.154,-1.054 -1.213,-8.322 7.794,-10.8c3.367,-0.926 9.966,5.221 9.301,9.93c-0.324,2.298 -3.455,3.551 -3.779,5.849Z" style="fill:#a8d1d7;"/><path d="M1024.2,483.065c-0.965,-1.387 -3.156,-1.566 -4.121,-2.953c-3.128,-4.497 0.676,-11.988 4.432,-12.519c1.014,-0.143 9.984,-1.411 10.334,7.545c0.099,2.527 -1.201,5.356 -3.23,6.866c-2.003,1.491 -5.413,-0.43 -7.415,1.061Z" style="fill:#99ccd2;"/><path d="M676.802,417.857c-1.629,2.12 0.345,5.797 -1.284,7.917c-6.579,8.563 -12.329,-0.305 -12.892,-1.174c-2.056,-3.17 0.778,-11.468 5.635,-11.999c3.173,-0.347 5.054,0.811 5.43,1.043c2.329,1.433 0.793,2.787 3.111,4.213Z" style="fill:#95cacf;"/><path d="M253.484,944.838c2.718,-3.081 -1.594,-4.469 1.079,-7.5c0.432,-0.49 2.551,-2.892 7.763,-2.526c7.117,0.5 5.916,8.562 5.785,9.437c-0.597,4.005 -7.651,7.207 -11.669,4.609c-1.397,-0.903 -1.561,-3.116 -2.958,-4.02Z" style="fill:#89b3c0;"/><path d="M737.511,533.178c2.338,0.957 2.496,-0.445 4.79,0.494c0.281,0.115 2.395,0.98 2.761,2.598c2.502,11.05 -6.227,13.149 -9.82,9.981c-6.237,-5.498 -3.787,-7.26 2.269,-13.073Z" style="fill:#245263;"/></g></svg>