<?xml version="1.0" encoding="UTF-8" standalone="no"?><!DOCTYPE svg PUBLIC "-//W3C//DTD SVG 1.1//EN" "http://www.w3.org/Graphics/SVG/1.1/DTD/svg11.dtd"><svg width="100%" height="100%" viewBox="0 0 5192 5746" version="1.1" xmlns="http://www.w3.org/2000/svg" xmlns:xlink="http://www.w3.org/1999/xlink" xml:space="preserve" xmlns:serif="http://www.serif.com/" style="fill-rule:evenodd;clip-rule:evenodd;stroke-linejoin:round;stroke-miterlimit:2;"><g id="ed451f76d6359045c2781f3410f408fc8280cbf02476a2cb5981275c7bf5904b.png"><path d="M430.767,1522.383l2102.392,-1127.379l2100.296,1149.233l50.546,2612.421l-2112.254,1170.096l-2156.296,-1191.463l15.317,-2612.913l-0,0.004Z" style="fill:#08131c;"/><path d="M382.242,3219.067c10.35,-244.588 16.367,-259.942 19.229,-496.662c8.471,-700.471 8.05,-700.417 8.971,-761.321c6.242,-413.533 -6.108,-433.525 28.617,-464.146c35.262,-31.096 427.167,-210.779 1110.654,-586.446c518.304,-284.879 515.529,-288.817 560.85,-313.029c367.571,-196.383 384.713,-218.533 432.642,-216.242c47.775,2.283 530.821,287.271 1059.204,574.413c879.271,477.825 882.829,469.696 958.642,512.287c104.371,58.633 90.671,78.158 92.808,200.175c10.854,618.863 23.096,618.217 18.221,671.754c-0.938,10.325 -38.729,27.121 -46.733,25.146c-3.125,-0.771 -0.796,-2.946 -26.871,-29.917c-45.246,-46.804 -48.325,-52.275 -51.358,-57.654c-20.167,-35.792 -17.15,-491.354 -21.221,-608.888c-2.8,-80.821 -55.442,-89.629 -132.312,-128.708c-35.787,-18.196 -432.317,-236.508 -772.646,-417.142c-323.887,-171.908 -320.137,-177.375 -400.912,-221.679c-565.929,-310.383 -631.625,-356.996 -676.488,-357.875c-66.375,-1.3 -388.346,206.312 -872.737,462.488c-110.862,58.629 -107.942,62.779 -218.446,121.375c-446.608,236.829 -447.879,234.283 -486.579,255.117c-319.871,172.162 -395.992,190.729 -413.083,227.754c-10.433,22.6 -10.221,107.483 -10.2,116.871c0.804,321.812 -8.517,618.008 -9.342,673.721c-7.429,501.521 -4.142,560.388 -39.7,643.821c-35.967,84.396 -36.967,129.2 -41.033,139.875c-2.317,6.079 -9.062,9.942 -10.913,16.179c-2.508,8.462 -0.646,17.667 -1.725,26.425c-0.954,7.779 2.912,20.196 -4.363,23.1c-9.629,3.842 -20.633,-4.35 -29.608,-9.546c-9.154,-5.3 -14.417,-15.946 -23.571,-21.242l0.004,-0.004Z" style="fill:#68cacf;"/><path d="M3480.075,2153.554c-148.533,-5.812 -208.717,8.208 -234.029,-16.908c-30.175,-29.946 3.067,-353.458 -24.887,-412.146c-17.087,-35.871 -31.012,-33.612 -385.071,-33.346c-1373.567,1.046 -1379.354,-6.717 -1398.771,12.854c-18.971,19.121 -10.142,24.362 -11.708,871.812c-0.808,438.158 8.617,894.058 -6.438,929.567c-5.292,12.479 -13.412,23.633 -18.704,36.113c-29.992,-48.917 -29.092,-49.121 -32.388,-52.825c-41.779,-46.962 -31.938,-121.754 -34.083,-297.525c-3.233,-264.875 -3.533,-1496.767 -1.646,-1524.046c3.571,-51.521 29.392,-63.158 68.412,-65.529c110.254,-6.696 1374.425,-1.075 1493.938,-0.542c312.575,1.388 325.108,-8.925 387.617,60.471c97.229,107.946 95.688,108.858 195.471,213.95c118.104,124.383 137.921,140.633 171.237,179.45c43.479,50.658 42.246,56.488 38.525,316.067c-11.188,780.954 -10.167,781.275 -12.646,787.954c-5.279,14.225 -67.404,13.521 -74.196,1.533c-9.575,-16.9 -2.858,-841.467 -4.225,-935.917c-1.217,-84.113 -32.183,-74.392 -116.412,-70.992l0.004,0.004Z" style="fill:#d1f2f3;"/><path d="M4674.45,2962.971c2.008,7.333 8.4,12.963 10.408,20.296c4.146,15.142 2.146,15.179 2.092,89.992c-0.029,42.308 17.096,858.196 13.983,1024.8c-1.579,84.475 -33,92.058 -111.754,140.2c-134.771,82.383 -1047.042,573.762 -1112.558,615.329c-30.388,19.279 -229.029,123.613 -264.225,144.654c-41.629,24.887 -377.479,211.342 -436.188,239.4c-117.512,56.158 -172.017,119.825 -257.408,80.1c-34.183,-15.9 -62.446,-29.046 -415.408,-222.475c10.971,-9.721 19.008,-22.45 29.979,-32.171c31.225,-27.667 54.138,-17.433 58.562,-15.458c11.171,4.987 14.708,20.421 25.246,26.633c9.829,5.796 23.013,2.975 33.313,7.883c9.325,4.442 15.079,14.45 24.112,19.463c10.738,5.963 23.463,7.575 34.45,13.058c7.663,3.821 14.617,13.929 58.562,30.85c7.096,2.733 80.258,30.904 87.458,37.242c11.508,10.129 13.758,28.913 26.292,37.746c7.808,5.504 19.55,-1.963 28.646,0.967c4.162,1.337 20.396,20.996 62.525,19.729c32.625,-0.979 31.312,-5.908 61.787,-17.767c8.879,-3.454 18.917,-3.808 27.396,-8.146c11.475,-5.867 20.171,-16.4 31.733,-22.092c8.404,-4.137 18.912,-2.629 27.233,-6.933c11.875,-6.142 20.583,-17.325 32.263,-23.842c7.746,-4.321 17.546,-3.942 25.296,-8.262c11.608,-6.471 20.55,-17.05 32.05,-23.708c7.583,-4.392 16.896,-5.062 24.654,-9.133c11.688,-6.129 21.733,-15.079 33.367,-21.304c7.888,-4.221 17.933,-4.354 24.946,-9.908c3.879,-3.071 0.933,-11.312 5.133,-13.925c8.067,-5.017 19.279,-2.208 27.742,-6.521c12.317,-6.275 21.275,-17.929 33.371,-24.621c7.417,-4.104 16.883,-3.308 24.358,-7.308c11.871,-6.354 21.025,-17.108 32.946,-23.371c7.679,-4.033 17.379,-3.004 25.033,-7.079c12.079,-6.433 21.3,-17.45 33.321,-24c7.317,-3.988 16.558,-3.333 23.942,-7.2c67.317,-35.267 57.258,-47.458 63.075,-50.25c8.692,-4.167 20.025,3.067 28.908,-0.679c11.783,-4.967 18.654,-17.925 29.858,-24.083c8.275,-4.55 19.054,-2.863 27.354,-7.367c12.35,-6.704 21.379,-18.463 33.458,-25.642c6.988,-4.154 15.871,-4.146 23.054,-7.95c70.163,-37.15 50.996,-55.996 56.858,-58.925c11.038,-5.517 25.608,13.2 36.329,7.092c11.408,-6.496 16.829,-23.362 15.088,-36.375c-1.992,-14.904 -22.979,-22.667 -24.971,-37.571c14.808,-7.933 134.825,-72.212 183.567,-101.992c46.225,-28.246 924.35,-507.554 942.492,-522.217c50.567,-40.863 37.396,-54.271 35.896,-772.662c-0.458,-219.383 -10.292,-225.908 30.312,-275.033c49.158,-59.479 44.813,-62.804 49.983,-67.05c5.917,-4.858 15.054,-4.254 21.221,-8.787c8.829,-6.492 14.029,-17.138 22.854,-23.629l0.004,0.004Z" style="fill:#39a5ae;"/><path d="M4147.233,3097.829c10.546,23.25 24.004,12.15 34.417,35.096c1.192,2.625 -4.438,2.508 -2.175,35.971c0.325,4.783 5.183,8.508 5.508,13.292c-9.842,3.838 -19.992,6.854 -29.833,10.692c-24.821,9.675 -55.738,50.25 -117.363,87.529c-276.254,167.104 -473.5,263.258 -1027.85,400.821c-66.367,16.471 -268.792,55.062 -292.225,59.529c-88.825,16.933 -445.596,68.454 -554.579,73.508c-674.583,31.296 -918.533,-18.479 -996.704,-34.429c-757.792,-154.612 -700.308,-524.717 -466.533,-763.496c148.154,-151.325 470.108,-345.1 525.479,-354.637c12.092,-2.083 55.25,5 56.712,7.175c3.779,5.613 -5.946,12.304 -10.275,17.504c-2.742,3.292 -8.183,3.821 -10.496,7.429c-0.221,0.346 5.362,22.333 -64.204,58.829c-96.475,50.613 -703.163,409.7 -508.442,679.004c29.225,40.417 136.817,189.221 565.433,262.587c78.513,13.438 408.342,39.017 586.871,32.325c114.042,-4.275 431.171,-27.646 468.642,-30.408c55.412,-4.083 588.117,-72.8 937.413,-179.958c466.567,-143.133 721.146,-307.133 900.212,-418.371l-0.008,0.008Z" style="fill:#cdf5f5;"/><path d="M429.288,3490.046c11.117,67.463 10.108,67.258 12.004,72.854c2.058,6.079 9.079,9.4 11.817,15.204c3.896,8.267 6.583,47.762 52.3,102.746c71.988,86.579 -2.15,350.079 56.833,407.142c16.592,16.05 608.538,336.312 661.713,365.083c35.033,18.954 437.092,236.479 437.912,236.9c272.737,139.587 391.096,217.296 644.088,351.571c147.258,78.154 219.65,128.396 268.363,124.904c60.108,-4.312 628.004,-341.975 813.808,-432.1c1.992,14.904 22.979,22.667 24.971,37.571c1.738,13.012 -3.683,29.879 -15.088,36.375c-10.721,6.104 -25.292,-12.608 -36.329,-7.092c-5.858,2.929 13.308,21.779 -56.858,58.925c-7.183,3.804 -16.067,3.796 -23.054,7.95c-12.079,7.179 -21.108,18.938 -33.458,25.642c-8.3,4.504 -19.079,2.817 -27.354,7.367c-11.204,6.158 -18.075,19.121 -29.858,24.083c-8.883,3.742 -20.217,-3.492 -28.908,0.679c-5.817,2.792 4.242,14.979 -63.075,50.25c-7.383,3.867 -16.625,3.212 -23.942,7.2c-12.021,6.55 -21.237,17.567 -33.321,24c-7.654,4.075 -17.354,3.046 -25.033,7.079c-11.921,6.258 -21.075,17.012 -32.946,23.371c-7.475,4 -16.942,3.208 -24.358,7.308c-12.096,6.692 -21.054,18.346 -33.371,24.621c-8.462,4.312 -19.675,1.504 -27.742,6.521c-4.2,2.612 -1.258,10.85 -5.133,13.925c-7.012,5.558 -17.058,5.688 -24.946,9.908c-11.633,6.229 -21.683,15.175 -33.367,21.304c-7.763,4.071 -17.071,4.742 -24.654,9.133c-11.5,6.658 -20.442,17.238 -32.05,23.708c-7.746,4.321 -17.546,3.942 -25.296,8.262c-11.679,6.513 -20.387,17.696 -32.262,23.842c-8.321,4.304 -18.829,2.796 -27.233,6.933c-11.562,5.692 -20.258,16.225 -31.733,22.092c-8.483,4.337 -18.521,4.692 -27.396,8.146c-30.475,11.863 -29.162,16.788 -61.787,17.767c-42.129,1.267 -58.362,-18.392 -62.525,-19.729c-9.096,-2.925 -20.833,4.537 -28.646,-0.967c-12.533,-8.833 -14.779,-27.617 -26.292,-37.746c-7.2,-6.338 -80.363,-34.508 -87.458,-37.242c-43.942,-16.921 -50.9,-27.029 -58.562,-30.85c-10.987,-5.483 -23.713,-7.096 -34.45,-13.058c-9.029,-5.017 -14.787,-15.025 -24.113,-19.463c-10.304,-4.908 -23.483,-2.087 -33.312,-7.883c-10.537,-6.213 -14.079,-21.646 -25.246,-26.633c-4.425,-1.975 -27.333,-12.208 -58.562,15.458c-10.971,9.721 -19.008,22.45 -29.979,32.171c-17.75,-10.463 -1234.792,-667.938 -1496.508,-813.463c-125.992,-70.058 -126.65,-68.442 -137.342,-74.946c-74.438,-45.308 -79.925,-51.012 -80.083,-138.071c-0.483,-263.2 9.463,-262.825 -5.967,-525.158c1.087,-5.129 7.208,-8.237 8.296,-13.367c2.05,-9.679 -5.921,-22.438 0.829,-29.675c8.679,-9.304 28.004,-1.238 36.679,-10.542l-0.013,-0.012Z" style="fill:#40aab5;"/><path d="M3387.592,3701.838l30.075,17.692c7.588,116.325 9.55,115.925 9.646,232.171c0.175,216.55 -0.287,269.946 -38.875,280.367c-51.579,13.929 -1842.258,14.221 -1986.888,7c-50.029,-2.5 -60.808,-1.562 -69.046,-50.892c-1.708,-10.229 -1.646,-184.863 -0.737,-208.413c0.229,-5.908 2.396,-62.092 40,-62.121c59.958,-0.046 51.717,117.783 51.85,122.517c2.237,79.1 -13.038,108.929 65.787,113.912c33.808,2.137 1670.137,-0.929 1727.254,-1.554c89.933,-0.983 121.042,7.488 122.375,-82.988c2.075,-140.963 -1.912,-295.746 14.438,-330.479c3.367,-7.154 3.863,-16.033 9.208,-21.862c6.592,-7.188 18.317,-8.162 24.908,-15.35l0.004,0Z" style="fill:#81cdcf;"/><path d="M4147.233,3097.829c72.529,-61.521 68.792,-66.708 153.913,-109.617c39.675,-20 301.904,-222.488 194.717,-407.683c-131.771,-227.667 -694.542,-265.85 -714.592,-304.096c-1.4,-2.671 1.375,-35.729 3.012,-37.371c27.967,-28.004 464.262,38.546 658.471,167.4c77.546,51.45 166.767,126.7 180.3,257.171c20.65,199.071 -239.25,368.408 -249.942,411.625c-4.767,19.258 -0.971,39.796 -4.238,59.362c-5.613,33.617 -52.467,90.475 -131.262,68.292c-4.354,-1.225 -3.9,-1.537 -52.629,-20.729c-0.325,-4.783 -5.183,-8.508 -5.508,-13.292c-2.263,-33.462 3.367,-33.342 2.175,-35.971c-10.413,-22.95 -23.867,-11.85 -34.417,-35.096l0,0.004Z" style="fill:#cef6f7;"/><path d="M1840.404,2909.167c-10.167,-1.371 -20.604,0.804 -30.771,-0.567c-75.575,-10.183 -48.092,-74.958 -21.458,-84.029c37.233,-12.679 38.425,-5.546 491.642,-5.892c65.463,-0.05 807.792,-0.621 818.258,2.058c38.271,9.796 47.275,10.679 44.438,49.729c-0.321,4.392 -2.138,29.429 -40.292,37.504c-17.421,3.688 -911.079,-0.946 -1261.817,1.2l0,-0.004Z" style="fill:#eef6f5;"/><path d="M1840.729,2396.317c-9.496,-1.167 -19.167,-0.308 -28.667,-1.471c-70.871,-8.7 -63.954,-80.133 -2.037,-89.979c29.704,-4.725 1024.55,-3.683 1026.938,-3.588c7.596,0.304 87.396,3.496 62.025,71.963c-9.613,25.938 -84.475,27.129 -92.163,27.25c-252.279,4.017 -888.812,-3.288 -966.096,-4.175Z" style="fill:#f6fcfb;"/><path d="M2748.279,2563.888c8.483,0.117 117.354,-5.525 139.363,18.458c32.163,35.05 -10.404,61.404 -14.887,64.179c-21.083,13.054 -23.433,6.292 -651.554,7.233c-411.258,0.617 -412.7,2.704 -444.529,-13.192c-12.996,-6.487 -40.683,-65.912 32.9,-75.758c23.062,-3.083 69.688,1.733 938.708,-0.921Z" style="fill:#e9f4f3;"/><path d="M1869.792,3168.325c-6.967,-0.117 -76.9,-1.267 -86.642,-8.646c-3.604,-2.729 -28.212,-21.375 -19.35,-53.083c6.812,-24.371 43.5,-28.921 47.971,-29.475c10.092,-1.25 856.375,-2.312 906.812,0.429c5.942,0.325 63.683,3.463 52.617,52.562c-7.058,31.312 -74.329,33.933 -81.383,34.208c-18.112,0.704 -325.742,3.733 -820.021,4.008l-0.004,-0.004Z" style="fill:#f5fcfc;"/><path d="M1399.663,3574.917c8.679,1.35 17.483,1.787 26.167,3.138c29.404,4.575 27.575,9.121 42.9,14.196c-15.387,7.563 -24.646,24.733 -40.029,32.296c-17.258,8.483 -133.242,-13.058 -144.683,-15.183c-37.287,-6.925 -334.758,-62.171 -406.179,-244.429c-51.421,-131.217 15.471,-233.496 51.754,-294.042c14.629,-24.417 125.175,-157.675 160.883,-128.142c17.362,14.363 18.421,17.196 8.304,37.854c-2.254,4.596 -150.454,124.629 -156.804,269.192c-6.942,158.054 111.4,253.104 457.692,325.117l-0.004,0.004Z" style="fill:#92d8dd;"/><path d="M3979.858,3075.117c4.575,-3.683 10.938,-4.667 15.512,-8.346c23.25,-18.708 142.733,-126.896 174.242,-175.963c77.562,-120.783 36.367,-285.188 -163.858,-370.85c-30.283,-12.958 -28.438,-15.938 -60.079,-25.733c-30.692,-9.5 -133.404,-45.942 -133.733,-46.342c-0.454,-0.546 -1.821,-36.992 -1.413,-37.458c34.737,-39.287 568.95,103.442 463.442,430.196c-25.217,78.092 -84.383,136.45 -175.742,212.021c-6.733,5.571 -74.871,61.929 -94.296,55.179c-12.787,-4.442 -11.287,-28.258 -24.075,-32.704Z" style="fill:#95dfe3;"/><path d="M2607.95,3522.475c9.121,-2.25 108.592,-26.779 114.183,-27.45c5.012,-0.6 9.829,4.025 14.804,3.188c5.1,-0.858 8.392,-6.429 13.346,-7.921c9.046,-2.717 18.679,-2.829 27.975,-4.5c56.012,-10.067 72.654,-19.158 117.188,-27.863c50.183,-9.812 326.896,-63.912 611.229,-186.962c57.642,-24.946 86.075,-43.737 119.696,-51.608c14.096,-3.3 27.654,-11.092 42.125,-10.588c5.763,0.2 10.579,6.883 11.979,12.475c11.771,47.033 -77.675,82.988 -317.45,174.183c-126.933,48.275 -562.646,162.821 -728.188,167.65c-8.962,-13.533 -17.925,-27.067 -26.892,-40.604l0.004,0Z" style="fill:#78bec2;"/><path d="M1899.042,3414.254c-9.587,-0.017 -119.804,9.658 -136.204,-23.842c-2.092,-4.275 -19.138,-57.492 47.196,-62.704c11.804,-0.929 626.6,-1.454 646.917,2.375c42.375,7.983 44.825,32.829 45.287,37.513c4.563,46.238 -69.058,46.504 -76.2,46.529c-175.667,0.042 -351.333,0.088 -527,0.129l0.004,-0Z" style="fill:#cdecec;"/><path d="M2221.158,2147.9c-32.887,-0.029 -392.196,-0.342 -411.092,-2.729c-82.079,-10.362 -53.096,-76.646 -24.054,-85.396c27.817,-8.379 517.758,-2.85 521.546,-2.312c57.429,8.154 52.675,77.096 3.938,88.375c0,0 -83.108,1.892 -90.333,2.058l-0.004,0.004Z" style="fill:#f2faf9;"/><path d="M1284.204,2447.938c-9.833,20.283 0.742,52.246 -65.737,84.775c-29.904,14.633 -373.358,182.692 -373.838,182.783c-32.146,6.088 -31.925,-18.754 -31.896,-21.846c0.062,-6.875 0.283,-31.9 59.725,-61.771c38.2,-19.196 61.121,-38.154 208.542,-110.938c153.471,-75.771 159.063,-58.696 173.675,-61.5c10.375,-1.992 19.154,-9.517 29.529,-11.508l0,0.004Z" style="fill:#8dd1d1;"/><path d="M3605.183,3864.208c0.017,-4.054 0.025,-192.863 2.467,-203.2c19.579,-82.933 70.542,-43.408 75.579,-30.117c10.417,27.483 9.508,326.117 3.029,350.8c-3.767,14.35 -37.679,66.883 -72.137,7.321c-11.596,-20.046 -8.55,-92.058 -8.938,-124.8l0,-0.004Z" style="fill:#6fcfd4;"/><path d="M1075.425,1931.613c-4.583,5.542 -2.542,14.825 -7.125,20.362c-2.233,2.7 -19.75,23.875 -43.654,3.688c-15.229,-12.858 -7.879,-56.054 25.521,-54.121c10.879,0.629 16.842,7.729 17.871,8.954c7.45,8.871 -0.325,11.938 7.383,21.113l0.004,0.004Z" style="fill:#fff;"/><path d="M2200.425,1106.612c-4.583,5.542 -2.542,14.825 -7.125,20.363c-2.233,2.7 -19.75,23.875 -43.654,3.687c-15.229,-12.858 -7.879,-56.054 25.521,-54.121c10.879,0.629 16.842,7.729 17.871,8.954c7.45,8.871 -0.325,11.938 7.383,21.113l0.004,0.004Z" style="fill:#fff;"/><path d="M3799.287,1659.067l42.888,8.133c-1.246,3.667 -15.596,45.846 -15.596,45.846c-16.692,3.404 -24.742,-12.517 -25.812,-14.633c-9.204,-18.208 7.912,-20.771 -1.475,-39.342l-0.004,-0.004Z" style="fill:#fff;"/></g></svg>