<?xml version="1.0" encoding="UTF-8" standalone="no"?><!DOCTYPE svg PUBLIC "-//W3C//DTD SVG 1.1//EN" "http://www.w3.org/Graphics/SVG/1.1/DTD/svg11.dtd"><svg width="100%" height="100%" viewBox="0 0 1687 1633" version="1.1" xmlns="http://www.w3.org/2000/svg" xmlns:xlink="http://www.w3.org/1999/xlink" xml:space="preserve" xmlns:serif="http://www.serif.com/" style="fill-rule:evenodd;clip-rule:evenodd;stroke-linejoin:round;stroke-miterlimit:2;"><g id="Fondo"><path d="M1527.616,736.439c0.705,202.047 2.803,204.709 2.454,368.647c-0.107,50.17 3.999,55.626 -9.559,63.59c-9.131,5.363 -146.444,76.214 -170.701,90.312c-4.276,2.485 -56.74,30.011 -61.683,32.604c-187.175,98.203 -424.791,226.384 -437.456,230.492c-6.998,2.27 -11.448,0.64 -38.332,-14.292c-24.513,-13.615 -24.689,-13.072 -49.106,-26.765c-5.848,-3.28 -46.716,-26.199 -73.386,-40.491c-5.466,-2.929 -70.69,-38.809 -101.346,-53.651c-11.018,-5.334 -82.381,-44.901 -106.153,-56.417c-4.828,-2.339 -231.289,-122.768 -293.976,-155.681c-19.693,-10.339 -24.284,-9.917 -24.238,-32.163c0.078,-37.491 0.584,-37.476 2.548,-468.625c0.851,-186.796 1.517,-186.72 0.012,-218.766c-1.055,-22.474 10.709,-22.01 35.581,-35.672c14.57,-8.003 107.994,-54.091 117.413,-58.737c152.979,-75.467 151.96,-77.31 305.284,-152.138c1.69,-0.825 15.327,-8.704 64.571,-33.014c128.9,-63.634 145.464,-79.121 160.713,-73.723c16.663,5.898 14.925,9.543 112.203,56.016c13.302,6.355 12.666,7.325 165.02,82.021c84.12,41.242 84.504,40.282 168.145,82.551c5.789,2.926 6.21,1.985 73.049,35.18c133.607,66.356 133.577,66.32 144.994,72.469c14.195,7.646 12.135,11.686 12.277,75.049c0.041,18.497 0.35,18.466 1.672,231.205Z" style="fill:#79bec5;"/><path d="M1490.443,755.188c-0.745,368.859 0.077,368.931 -1.721,374.966c-2.502,8.398 -4.788,7.078 -57.278,35.589c-2.08,1.13 -85.516,43.426 -131.55,68.246c-74.987,40.429 -142.922,76.235 -155.383,82.802c-22.944,12.093 -259.946,137.005 -286.23,152.248c-15.299,8.873 -17.002,6.369 -39.335,-5.789c-18.853,-10.264 -176.385,-96.027 -236.66,-126.45c-31.526,-15.913 -29.865,-18.745 -135.828,-72.031c-8.586,-4.318 -8.035,-5.201 -106.078,-56.376c-9.723,-5.075 -9.56,-5.348 -120.946,-64.565c-17.279,-9.186 -13.695,-13.268 -15.037,-44.931c-0.867,-20.48 1.159,-20.48 -1.594,-256.229c-2.442,-209.137 -0.181,-209.074 0.391,-343.692c0.09,-21.137 -2.465,-35.387 5.54,-42.407c0.601,-0.527 414.815,-209.117 424.078,-213.175c8.14,-3.567 98.691,-50.015 107.251,-54.406c21.856,-11.211 22.161,-10.395 49.98,-24.974c47.355,-24.817 49.873,-24.937 54.683,-25.166c8.001,-0.381 8.404,3.441 88.194,40.528c9.545,4.437 125.773,62.72 150.362,74.105c21.853,10.119 307.182,151.686 310.626,153.63c2.118,1.196 48.181,24.327 52.375,26.433c33.267,16.706 43.575,12.353 43.26,40.459c-0.77,68.767 0.156,68.618 0.327,137.472c0.191,47.905 0.382,95.811 0.574,143.716Z" style="fill:#08131c;"/><path d="M1252.692,699.152c-6.061,37.297 -8.819,43.116 7.408,59.648c19.056,19.414 20.687,20.869 47.594,16.972c19.919,-2.885 35.269,-8.937 42.877,10.9c15.537,40.512 17.332,49.5 -0.206,61.009c-19.47,12.777 -37.783,14.661 -40.375,32.795c-0.413,2.892 -3.816,26.692 -0.667,36.51c2.268,7.071 16.587,16.105 18.284,17.175c26.63,16.8 36.849,19.1 26.148,40.957c-17.525,35.796 -21.925,49.684 -40.529,43.963c-36.894,-11.347 -42.27,-22.483 -62.814,-2.205c-22.075,21.789 -12.912,26.084 -11.264,56.999c1.399,26.251 -5.892,25.502 -31.007,33.386c-37.251,11.694 -39.542,6.088 -47.434,-6.523c-18.833,-30.095 -19.871,-31.551 -34.547,-32.524c-28.845,-1.912 -35.873,-3.659 -47.428,13.715c-14.841,22.313 -19.257,36.984 -45.323,26.913c-38.854,-15.012 -41.194,-19.895 -42.883,-23.42c-8.08,-16.862 17.572,-47.882 -0.406,-68.924c-22.9,-26.802 -27.328,-22.632 -57.78,-18.632c-24.185,3.177 -29.795,5.512 -38.138,-17.41c-8.127,-22.327 -20.578,-41.189 -5.78,-50.693c20.813,-13.368 42.442,-18.538 45.213,-36.949c0.055,-0.366 1.931,-33.509 0.939,-38.127c-4.402,-20.488 -50.717,-28.861 -49.754,-49.297c0.132,-2.797 17.775,-48.502 27.832,-52.45c16.458,-6.462 50.619,17.273 68.263,6.22c6.55,-4.103 18.444,-15.411 19.959,-16.851c21.987,-20.903 1.937,-49.06 8.591,-67.543c4.114,-11.429 53.912,-24.791 60.115,-23.258c14.032,3.469 18.648,22.537 31.715,41.118c6.13,8.718 16.526,8.045 37.384,8.048c21.576,0.003 23.664,-7.813 42.52,-33.826c12.349,-17.036 17.136,-14.692 51.492,0.249c24.673,10.73 21,16.055 20.006,32.055Z" style="fill:#e6f4f4;"/><path d="M552.938,574.222c1.185,-6.599 1.122,-6.458 2.367,-13.188c3.581,-19.353 -7.151,-21.549 -23.492,-36.233c-13.206,-11.868 -20.231,-17.871 -8.93,-36.634c20.523,-34.077 25.425,-35.881 28.963,-37.184c6.779,-2.495 32.34,10.228 36.055,12.243c23.409,12.691 28.696,3.188 51.304,-7.08c21.938,-9.963 13.336,-16.972 20.757,-56.674c3.171,-16.966 12.798,-16.186 53.856,-17.396c24.36,-0.718 22.625,6.7 29.908,29.882c7.453,23.726 7.393,25.981 25.789,32.269c23.11,7.9 25.101,13.777 45.255,0.145c2.296,-1.553 17.254,-11.473 18.756,-12.469c19.19,-12.726 23.449,-4.699 49.611,22.714c18.786,19.685 12.268,24.416 -5.016,45.874c-20.773,25.788 -13.053,29.453 -4.925,55.676c5.151,16.619 7.637,16.988 28.415,22.754c19.917,5.527 34.44,8.596 35.335,20.166c0.47,6.073 -4.584,40.389 -6.363,49.505c-2.124,10.883 -0.722,13.129 -11.145,16.787c-2.961,1.039 -42.234,0.084 -49.517,2.096c-1.661,0.459 -8.152,2.252 -15.85,14.586c-10.94,17.529 -11.414,17.201 -12.303,18.761c-12.922,22.663 19.496,56.548 2.338,72.155c-5.562,5.059 -39.493,22.225 -43.619,23.6c-21.96,7.315 -33.693,-33.148 -55.085,-37.226c-5.439,-1.037 -30.886,0.411 -37.825,2.344c-18.729,5.217 -29.161,42.837 -43.607,44.828c-8.136,1.121 -44.158,-13.472 -49.222,-15.937c-7.422,-3.615 -8.386,-3.105 -11.26,-10.939c-1.689,-4.604 2.719,-43.372 1.671,-49.179c-2.505,-13.88 -24.836,-34.172 -29.431,-36.433c-10.076,-4.957 -52.187,8.908 -61.911,-1.359c-5.095,-5.379 -16.911,-43.537 -18.216,-50.076c-4.203,-21.049 9.593,-23.634 37.509,-36.144c18.758,-8.406 16.368,-11.993 19.828,-32.233Z" style="fill:#e2eff0;"/><path d="M1227.583,918.111c-28.548,77.808 -103.139,80.343 -126.404,74.618c-95.394,-23.474 -103.127,-113.001 -77.224,-157.573c47.822,-82.289 130.67,-69.283 170.487,-35.626c26.264,22.201 45.232,60.283 38.122,99.414c-1.376,7.576 -1.678,7.401 -4.981,19.167Z" style="fill:#0a212a;"/><path d="M745.682,509.242c10.117,3.593 23.08,6.977 39.289,24.994c55.526,61.715 6.423,164.88 -77.581,160.661c-63.763,-3.202 -121.5,-84.045 -62.507,-158.546c1.282,-1.619 18.166,-19.361 37.302,-25.828c34.577,-11.685 44.72,-6.662 63.496,-1.28Z" style="fill:#0a202a;"/><path d="M1148.263,1140.646c-18.322,9.453 -19.313,6.242 -40.295,10.46c-7.436,1.495 -26.148,5.257 -94.128,11.321c-6.396,0.571 -136.899,5.909 -206.304,-1.474c-55.728,-5.928 -58.722,-3.622 -66.751,2.881c-3.07,2.486 -15.774,16.487 -39.222,9.14c-21.588,-6.764 -17.069,-21.796 -36.946,-27.069c-5.603,-1.487 -192.103,-32.98 -283.374,-114.242c-48.895,-43.534 -54.683,-87.327 -35.043,-119.533c6.351,-10.414 18.63,-33.325 75.313,-66.527c29.269,-17.144 32.287,-14.798 34.622,-12.983c3.661,2.846 0.449,8.592 0.088,9.237c-3.496,6.253 -36.782,14.831 -74.846,56.026c-58.151,62.935 19.658,117.953 31.612,127.125c33.171,25.452 107.367,61.085 175.216,76.495c8.729,1.983 25.868,6.971 44.161,10.667c15.63,3.158 15.337,4.093 31.062,7.138c23.261,4.505 18.202,-13.981 44.321,-18.773c13.655,-2.505 30.586,5.17 37.87,16.66c6.701,10.57 5.179,14.677 24.611,16.622c124.264,12.438 176.447,3.446 243.492,8.699c29.255,2.292 63.567,-3.719 69.018,-4.674c4.85,-0.85 53.952,-9.451 61.304,-5.514c0.658,0.352 0.295,0.583 4.216,8.316Z" style="fill:#b4eae9;"/><path d="M1045.456,1190.314c-0.961,-0.341 -11.329,-4.023 -11.783,-4.871c-8.779,-16.409 143.994,-5.988 274.891,-71.824c40.06,-20.149 68.865,-37.7 94.33,-76.114c33.406,-50.392 -21.303,-90.966 -13.512,-100.647c4.517,-5.612 12.109,3.016 12.816,3.819c26.226,29.803 68.24,90.782 -37.476,160.044c-118.981,77.952 -273.056,82.912 -319.267,89.593Z" style="fill:#51bcbb;"/><path d="M1097.044,509.795c0.074,-2.823 2.002,-2.201 2.076,-5.011c0.108,-4.118 -2.086,-3.076 -1.859,-3.274c2.542,-2.225 6.373,-2.247 9.532,-3.443c15.291,-5.788 16.481,-21.104 20.387,-22.556c1.455,-0.541 3.07,0.463 4.612,0.636c1.344,0.151 2.993,-0.518 4.042,0.335c1.255,1.021 1.226,2.994 1.872,4.477c9.347,21.476 23.367,17.878 24.437,19.969c0.682,1.332 -2.576,2.229 -2.506,3.724c0.102,2.179 4.114,3.992 2.955,5.84c-0.773,1.233 -3.428,-3.22 -15.784,9.046c-6.628,6.58 -3.797,8.409 -9.586,15.627c-1.049,1.308 -2.937,1.854 -4.606,2.022c-5.396,0.544 -5.586,-0.226 -8.459,-4.846c-9.587,-15.417 -10.402,-15.237 -27.114,-22.546Z" style="fill:#e4f4f7;"/><path d="M365.299,507.456c1.815,0.086 3.328,1.72 5.143,1.807c1.276,0.061 2.388,-1.876 3.57,-1.392c1.32,0.54 -1.156,2.684 10.922,14.094c5.763,5.445 6.77,4.083 7.027,4.709c0.447,1.092 -1.58,2.024 -1.509,3.201c0.107,1.794 2.184,3.22 1.999,5.008c-0.153,1.474 -10.761,7.019 -15.657,14.594c-2.36,3.651 -2.391,4 -6.977,4.413c-6.7,0.602 -6.203,-1.257 -10.663,-6.38c-11.404,-13.097 -17.356,-10.292 -18.022,-12.83c-0.432,-1.649 1.803,-3.055 1.872,-4.758c0.051,-1.257 -2.418,-2.547 -1.538,-3.446c1.021,-1.042 3.073,2.535 15.867,-8.992c0.761,-0.686 0.376,-0.992 7.966,-10.028Z" style="fill:#e5f6fa;"/><path d="M1161.769,868.883c-5.248,9.016 -5.013,9.114 -5.667,9.734c-1.788,1.696 -2.347,0.616 -4.242,2.226c-9.46,8.036 -7.475,9.708 -8.353,10.303c-1.009,0.685 -9.5,1.399 -10.6,0.894c-1.662,-0.763 0.359,-2.873 -15.888,-16.434c-3.553,-2.966 -4.102,-3.186 -3.099,-7.805c0.807,-3.72 2.08,-2.67 6.967,-5.253c8.521,-4.504 8.408,-12.884 17.39,-12.07c4.373,0.396 4.294,0.896 6.8,4.552c4.911,7.167 8.125,7.314 10.236,8.912c0,0 5.939,4.546 6.456,4.941Z" style="fill:#d2eff4;"/><path d="M758.099,948.484c0.311,-2.816 1.543,-2.353 1.852,-5.148c0.524,-4.74 -0.952,-4.502 -0.748,-4.836c0.894,-1.457 3.273,-1.031 4.809,-1.781c6.273,-3.066 8.985,-9.66 9.048,-9.702c1.16,-0.766 2.778,-0.126 4.161,-0.261c3.419,-0.334 3.634,-0.616 6.221,1.736c7.142,6.494 10.535,7.641 11.156,14.259c0.504,5.374 1.047,5.695 -2.389,9.795c-10.226,12.202 -9.318,13.084 -10.59,13.619c-5.935,2.495 -12.136,-9.935 -19.873,-15.824c-1.085,-0.826 -2.561,-1.03 -3.646,-1.856Z" style="fill:#d8f1f4;"/><path d="M1001.078,455.118c-3.121,3.307 -8.813,13.69 -20.429,2.288c-4.725,-4.638 -10.274,-7.131 -9.619,-14.389c0.539,-5.969 6.51,-8.258 11.075,-13.215c7.36,-7.99 9.815,-5.68 17.114,2.337c4.502,4.944 6.077,4.174 6.766,10.938c0.383,3.757 -0.05,4.819 -0.207,5.204c-1.592,3.906 -3.102,2.916 -4.7,6.836Z" style="fill:#ddf5f8;"/><path d="M954.774,1277.936c-4.278,4.503 -4.295,6.459 -10.166,4.3c-6.069,-2.231 -5.808,-2.945 -8.537,-6.675c-4.671,-6.384 -1.725,-17.74 9.139,-18.603c10.999,-0.874 13.72,10.115 11.884,16.707c-0.435,1.561 -1.885,2.71 -2.32,4.271Z" style="fill:#c1e0e5;"/><path d="M1300.463,587.051c-0.528,-2.46 -2.315,-4.532 -2.843,-6.992c-1.511,-7.041 9.277,-13.35 15.443,-10.832c15.569,6.359 7.676,16.017 6.743,17.159c-7.482,9.155 -15.349,4.451 -16.512,3.756c-1.199,-0.717 -1.631,-2.373 -2.83,-3.09Z" style="fill:#c2e3e9;"/><path d="M340.144,781.4c1.679,-0.38 2.626,-2.473 4.306,-2.853c12.167,-2.75 13.453,6.533 13.626,7.776c2.347,16.936 -23.041,17.012 -20.287,-0.155c0.281,-1.751 2.075,-3.018 2.356,-4.769Z" style="fill:#ace0ea;"/><path d="M1135.662,397.39c-3.819,4.817 -3.135,6.671 -9.423,6.356c-8.042,-0.403 -8.738,-11.401 -5.431,-16.707c5.43,-8.711 18.4,-6.875 16.496,5.456c-0.263,1.701 -1.38,3.194 -1.643,4.895Z" style="fill:#408096;"/><path d="M1367.889,584.721c-1.509,0.379 -2.332,2.272 -3.841,2.651c-14.808,3.72 -15.487,-15.879 -6.117,-18.007c14.004,-3.18 12.229,9.584 12.05,10.87c-0.227,1.634 -1.865,2.851 -2.093,4.485Z" style="fill:#97c8dc;"/><path d="M533.915,766.549c-0.272,2.469 2.524,4.635 2.251,7.103c-0.927,8.407 -8.96,8.152 -9.989,8.119c-1.328,-0.042 -13.112,-0.417 -7.286,-14.922c0.884,-2.2 7.521,-4.994 12.146,-2.859c1.166,0.538 1.713,2.021 2.878,2.559Z" style="fill:#7cbbcb;"/><path d="M686.507,1253.361c-1.442,0.357 -2.122,2.318 -3.564,2.675c-16.1,3.989 -15.53,-20.695 -1.101,-17.65c0.605,0.128 6.975,3.851 6.373,10.392c-0.149,1.624 -1.558,2.96 -1.708,4.583Z" style="fill:#8dc6d5;"/><path d="M953.47,324.694c-1.49,1.073 -1.518,3.541 -3.008,4.613c-4.939,3.556 -16.319,-0.622 -12.419,-11.956c1.698,-4.937 12.555,-4.933 14.287,-0.328c0.91,2.42 0.23,5.251 1.14,7.671Z" style="fill:#7bb5c3;"/><path d="M536.645,969.809c0.246,1.525 1.932,2.565 2.177,4.089c1.305,8.096 -8.657,14.097 -14.52,8.201c-0.566,-0.57 -4.98,-5.009 -1.062,-9.986c6.566,-8.342 11.814,-2.531 13.405,-2.303Z" style="fill:#74c2cd;"/><path d="M713.372,617.25c3.753,0.293 3.276,-2.116 7.017,-1.825c0.474,0.037 3.138,0.245 5.253,2.782c3.659,4.39 -0.23,13.872 -4.999,14.441c-1.091,0.13 -11.024,1.316 -10.714,-8.585c0.079,-2.544 3.364,-4.27 3.443,-6.814Z" style="fill:#6facbd;"/><path d="M1093.396,1236.127c2.088,-2.104 0.27,-3.104 2.378,-5.228c0.329,-0.331 2.325,-2.342 5.278,-2.485c0.933,-0.045 8.318,-0.404 8.946,7.504c0.199,2.509 -0.136,5.399 -1.722,7.353c-6.801,8.378 -12.883,0.349 -13.537,-0.514c-1.361,-1.797 0.019,-4.832 -1.343,-6.629Z" style="fill:#5f98ac;"/><path d="M1246.596,493.188c5.709,-7.028 7.591,-9.967 13.879,-3.404c5.315,5.547 4.972,7.253 -0.757,12.304c-5.674,5.002 -12.322,-1.875 -12.87,-3.771c-0.475,-1.645 0.223,-3.484 -0.252,-5.129Z" style="fill:#538492;"/><path d="M637.32,844.435c0.274,1.609 2.434,2.471 2.709,4.081c0.177,1.038 1.432,8.394 -7.594,10.751c-3.387,0.884 -10.07,-5.264 -9.438,-9.836c1.041,-7.526 8.601,-6.951 9.539,-6.88c1.709,0.13 3.075,1.755 4.784,1.884Z" style="fill:#5ba8bb;"/><path d="M1316.237,662.992c0.777,-0.841 1.387,-1.827 2.164,-2.668c8.425,-9.112 17.03,-1.323 14.307,7.523c-0.194,0.629 -1.314,4.268 -6.836,4.579c-7.639,0.43 -6.1,-2.742 -9.635,-9.434Z" style="fill:#0e2735;"/><path d="M1020.414,562.155c-2.392,-0.385 -4.81,1.365 -7.202,0.98c-3.889,-0.626 -7.351,-8.271 -3.971,-12.758c3.779,-5.016 15.268,-3.073 15.16,4.793c-0.031,2.222 -1.045,3.998 -1.222,4.31c-0.985,1.725 -1.769,0.931 -2.765,2.675Z" style="fill:#4c8da4;"/><path d="M745.961,324.136c-1.259,1.367 -0.906,3.771 -2.165,5.138c-3.839,4.167 -12.827,1.099 -13.259,-5.042c-0.073,-1.037 -0.745,-10.591 7.973,-10.256c3.364,0.129 5.844,3.511 6.192,3.986c1.962,2.675 -0.719,3.477 1.258,6.174Z" style="fill:#29586b;"/><path d="M598.2,1221.275c-1.308,0.291 -2.018,1.966 -3.325,2.257c-8.051,1.79 -10.788,-5.133 -11.162,-6.079c-0.586,-1.481 2.412,-7.529 3.834,-7.894c13.718,-3.517 12.543,6.651 12.408,7.817c-0.164,1.416 -1.591,2.483 -1.755,3.899Z" style="fill:#20485a;"/><path d="M1239.044,435.244c-5.234,-4.834 -9.225,-4.585 -5.483,-10.711c5.528,-9.048 20.392,0.127 14.123,7.516c-4.201,4.952 -8.019,2.965 -8.64,3.194Z" style="fill:#1f4f5b;"/><path d="M465.022,550.487c1.748,0.056 3.277,-1.569 5.025,-1.513c0.755,0.024 6.634,0.212 7.326,5.966c0.116,0.968 1.141,9.489 -7.328,9.73c-9.285,0.264 -8.009,-8.895 -7.869,-9.897c0.237,-1.699 2.61,-2.588 2.847,-4.287Z" style="fill:#1c3945;"/><path d="M707.03,1031.604c5.535,6.067 8.441,7.712 2.196,12.952c-6.559,5.504 -16.654,-3.609 -10.431,-10.503c1.942,-2.151 2.61,-2.35 2.9,-2.436c2.68,-0.797 2.699,0.771 5.335,-0.013Z" style="fill:#1a414f;"/><path d="M1419.376,767.472c1.315,-0.861 1.556,-2.88 2.871,-3.74c0.889,-0.582 13.107,-3.214 10.668,10.55c-1.008,5.691 -11.872,4.397 -13.3,-0.227c-0.648,-2.098 0.409,-4.485 -0.239,-6.582Z" style="fill:#143e51;"/><path d="M632.671,980.538c1.709,0.991 4.217,-0.928 5.927,0.063c7.065,4.096 4.55,9.99 4.185,10.845c-0.37,0.866 -2.326,5.452 -11.407,2.919c-1.297,-0.362 -4.035,-6.108 -3.447,-7.699c0.895,-2.423 3.847,-3.705 4.742,-6.128Z" style="fill:#386a78;"/><path d="M705.705,879.068c-1.544,0.213 -2.269,2.492 -3.813,2.704c-1,0.138 -10.667,1.47 -10.115,-7.545c0.508,-8.295 8.648,-7.078 9.585,-6.938c5.091,0.761 5.44,5.98 5.487,6.67c0.117,1.741 -1.26,3.368 -1.143,5.109Z" style="fill:#183e44;"/><path d="M1001.327,1227.466c0.634,1.477 3.203,1.441 3.838,2.918c0.693,1.614 0.438,3.679 -0.325,5.261c-0.617,1.278 -2.011,2.497 -3.43,2.522c-2.043,0.035 -4.397,-0.756 -5.656,-2.366c-2.194,-2.804 -0.682,-5.064 -0.44,-5.426c1.997,-2.985 4.036,0.049 6.014,-2.909Z" style="fill:#080e17;"/></g></svg>