<?xml version="1.0" encoding="UTF-8" standalone="no"?><!DOCTYPE svg PUBLIC "-//W3C//DTD SVG 1.1//EN" "http://www.w3.org/Graphics/SVG/1.1/DTD/svg11.dtd"><svg width="100%" height="100%" viewBox="0 0 1246 1379" version="1.1" xmlns="http://www.w3.org/2000/svg" xmlns:xlink="http://www.w3.org/1999/xlink" xml:space="preserve" xmlns:serif="http://www.serif.com/" style="fill-rule:evenodd;clip-rule:evenodd;stroke-linejoin:round;stroke-miterlimit:2;"><g id="ed451f76d6359045c2781f3410f408fc8280cbf02476a2cb5981275c7bf5904b.png"><path d="M1137.526,592.132c0.941,102.176 6.003,101.828 7.459,126.208c1.392,23.317 -7.116,36.706 -5.138,119.734c1.525,64.006 5.116,131.194 0.003,140.066c-5.634,9.776 -60.332,34.005 -89.582,51.35c-2.354,1.396 -129.443,70.458 -157.096,87.153c-11.821,7.136 -222.761,123.035 -245.178,134.608c-33.872,17.486 -37.274,24.295 -61.558,13.165c-21.171,-9.703 -162.909,-87.052 -168.587,-90.691c-11.962,-7.665 -132.269,-73.35 -135.079,-74.75c-22.298,-11.105 -21.412,-12.591 -63.489,-34.603c-10.023,-5.243 -9.868,-5.388 -124.112,-67.728c-26.778,-14.612 -22.403,-21.217 -22.013,-67.221c0.24,-28.334 -0.248,-226.287 -0.296,-245.964c-0.044,-17.989 0.267,-17.93 0.433,-224.86c0.055,-68.505 -3.658,-74.946 12.515,-85.346c26.326,-16.929 53.047,-27.717 121.393,-66.913c6.976,-4.001 7.763,-2.372 88.46,-47.744c69.046,-38.821 277.447,-155.486 282.898,-158.136c28.635,-13.922 31.84,-3.897 85.398,25.566c134.567,74.029 272.727,148.468 394.259,216.738c25.83,14.51 26.461,13.108 52.324,27.772c16.578,9.4 18.602,14.273 19.375,16.136c6.353,15.301 4.864,108.975 7.611,205.459Z" style="fill:#49b5be;"/><path d="M1107.605,585.072c0.466,53.288 -0.633,54.229 9.829,71.829c6.789,11.421 7.866,18.642 8.125,20.378c0.986,6.61 5.082,34.072 1.081,83.532c-2.764,34.169 -16.469,31.083 -19.353,49.453c-3.581,22.807 3.042,133.397 -3.875,146.248c-4.049,7.523 -39.272,23.803 -132.567,76.346c-29.179,16.434 -51.111,25.802 -99.3,54.865c-3.401,2.051 -84.117,46.86 -118.166,65.204c-28.579,15.397 -56.187,32.539 -77.082,42.555c-4.534,2.173 -3.99,3.128 -55.316,29.828c-20.139,10.476 -21.792,6.913 -44.036,-4.584c-37.82,-19.549 -37.88,-19.214 -74.654,-40.528c-8.496,-4.924 -9.451,-2.94 -107.508,-59.224c-5.36,-3.077 -205.859,-112.397 -217.782,-119.735c-21.39,-13.163 -65.877,-29.786 -69.373,-43.715c-0.186,-0.741 -7.503,-266.546 -6.552,-463.796c0.42,-87.154 -2.349,-89.652 7.501,-97.046c8.073,-6.06 43.483,-19.392 246.539,-132.056c70.218,-38.96 69.941,-39.24 139.87,-78.546c7.679,-4.316 88.206,-49.579 96.597,-52.843c12.413,-4.828 17.053,-1.37 71.756,29.196c25.264,14.117 181.554,98.7 204.104,112.027c18.917,11.179 183.965,100.119 224.142,120.614c14.716,7.507 12.788,11.242 13.799,70.544c1.873,109.914 2.116,109.895 2.22,119.453Z" style="fill:#061924;"/><path d="M592.035,840.955c-1.898,-1.776 -9.505,0.46 -10.614,-17.156c-0.751,-11.934 -0.128,-121.933 -1.684,-400.343c-0.462,-82.641 -0.907,-82.899 2.152,-89.362c3.599,-7.606 8.298,-8.567 73.837,-8.144c45.891,0.296 57.679,-2.285 56.794,27.247c-2.622,87.525 -2.83,475.902 -3.272,477.312c-2.517,8.028 -2.832,8.878 -11.116,10.085c-10.926,1.592 -51.921,1.554 -56.438,1.549c-42.362,-0.039 -42.195,-0.703 -49.66,-1.188Z" style="fill:#aee0e4;"/><path d="M430.607,817.163c1.045,-0.621 6.427,0.612 12.127,-7.204c6.509,-8.927 3.979,-9.752 4.083,-20.816c2.603,-277.283 2.582,-277.229 2.673,-281.622c0.4,-19.111 -2.533,-26.483 16.53,-26.557c4.491,-0.017 49.583,-0.191 56.143,0.072c5.065,0.203 5.801,-0.504 8.49,3.754c2.234,3.538 1.672,3.662 1.455,7.814c-0.132,2.53 0.241,5.062 0.314,7.595c1.935,67.159 1.223,67.078 1.97,134.295c1.679,151.029 -0.027,179.28 0.637,182.686c0.509,2.613 5.093,4.349 4.135,6.833c-1.801,4.671 -8.995,5.769 -10.796,10.44c-6.099,-0.584 -83.465,-9.49 -90.055,-12.016c-2.907,-1.114 -4.799,-4.161 -7.706,-5.275Z" style="fill:#8dd4db;"/><path d="M382.048,853.678c2.455,0.068 3.486,-1.721 13.331,0.372c31.239,6.641 31.453,11.419 133.88,26.005c13.167,1.875 148.733,12.256 252.571,-2.518c4.572,-0.65 4.478,-1.1 56.944,-9.448c15.934,-2.535 31.052,-7.777 56.458,-13.191c23.119,-4.927 86.322,-23.963 125.334,-52.767c26.579,-19.624 105.864,-79.966 -0.643,-152.044c-53.158,-35.974 -125.274,-47.357 -135.1,-55.775c-5.861,-5.022 -5.197,-7.108 0.87,-11.878c9.435,-7.419 100.56,22.7 141.505,46.707c67.954,39.843 97.824,96.254 51.929,154.066c-70.214,88.444 -216.816,108.419 -324.905,125.843c-6.974,1.124 -89.934,8.809 -147.641,5.45c-4.224,-0.246 -109.4,-3.945 -195.819,-30.558c-10.094,-3.109 -27.158,-11.011 -28.318,-11.896c-1.429,-1.091 -2.27,-2.795 -3.519,-4.089c-0.957,-0.992 -3.321,-1.395 -3.085,-2.752c0.114,-0.656 1.085,-0.025 4.75,-6.829c1.215,-2.257 0.28,-2.511 1.457,-4.696Z" style="fill:#c8f4f5;"/><path d="M846.592,819.569c-7.243,1.667 -30.765,7.08 -91.794,14.345c-2.548,0.303 -5.085,1.583 -7.613,1.141c-2.732,-0.478 -4.686,-3.294 -7.418,-3.772c2.155,-1.238 4.594,4.404 6.749,3.166c3.466,-1.991 3.796,-7.04 5.905,-10.436c1.291,-2.079 3.643,-3.601 4.281,-5.964c0.729,-2.698 -0.655,-2.576 -0.539,-14.703c2.305,-241.04 1.995,-241.935 5.57,-245.623c4.936,-5.093 37.925,-3.133 55.518,-3.791c11.172,-0.418 13.929,-4.687 19.38,5.11c0.855,1.536 1.102,53.637 1.521,82.308c1.72,117.719 0.445,158.622 0.988,161.392c0.531,2.704 2.917,4.696 4.033,7.216c1.377,3.109 2.042,6.501 3.418,9.61Z" style="fill:#8bd4d9;"/><path d="M430.607,817.163c-0.568,-3.15 -2.325,-2.825 -2.536,-14.071c-0.012,-0.639 -0.064,-25.928 -0.069,-28.182c-0.073,-35.3 -0.734,-35.142 -0.838,-70.396c-0.331,-113.047 -1.281,-242.322 -0.929,-245.772c2.172,-21.319 14.017,-18.667 46.809,-18.917c68.924,-0.525 75.982,-0.078 78.935,11.247c2.314,8.876 -1.264,372.078 -1.323,372.983c-1.008,15.294 -7.126,12.102 -22.287,10.398c1.801,-4.671 8.995,-5.769 10.796,-10.44c0.958,-2.484 -3.626,-4.22 -4.135,-6.833c-0.664,-3.407 1.042,-31.658 -0.637,-182.686c-0.747,-67.217 -0.035,-67.136 -1.97,-134.295c-0.073,-2.533 -0.446,-5.065 -0.314,-7.595c0.216,-4.151 0.779,-4.275 -1.455,-7.814c-2.688,-4.258 -3.425,-3.551 -8.49,-3.754c-6.559,-0.263 -51.651,-0.089 -56.143,-0.072c-19.063,0.074 -16.13,7.446 -16.53,26.557c-0.092,4.393 -0.071,4.339 -2.673,281.622c-0.104,11.064 2.426,11.889 -4.083,20.816c-5.7,7.816 -11.082,6.583 -12.127,7.204Z" style="fill:#f0f8f9;"/><path d="M846.592,819.569c-1.377,-3.109 -2.042,-6.501 -3.418,-9.61c-1.116,-2.519 -3.502,-4.512 -4.033,-7.216c-0.544,-2.771 0.731,-43.673 -0.988,-161.392c-0.419,-28.671 -0.666,-80.772 -1.521,-82.308c-5.451,-9.797 -8.207,-5.528 -19.38,-5.11c-17.594,0.658 -50.582,-1.302 -55.518,3.791c-3.575,3.688 -3.265,4.583 -5.57,245.623c-0.116,12.127 1.268,12.005 0.539,14.703c-0.638,2.362 -2.99,3.885 -4.281,5.964c-2.109,3.395 -2.439,8.445 -5.905,10.436c-2.155,1.238 -4.594,-4.404 -6.749,-3.166c-0.781,-4.377 -2.418,-4.063 -2.528,-14.162c-1.088,-100.199 -1.181,-245.808 -1.194,-267.183c-0.011,-17.341 -3.972,-36.133 17.916,-37.226c5.866,-0.293 73.917,-0.492 84.624,0.801c20.994,2.535 18.225,12.672 17.796,71.5c-0.375,58.611 -0.749,117.221 -1.124,175.832c-0.067,9.987 -0.494,40.388 -0.585,42.318c-0.704,14.932 -6.07,13.893 -8.08,16.406Z" style="fill:#f1fafa;"/><path d="M284.355,804.703c-2.501,4.142 -5.002,8.283 -7.504,12.425l-4.775,7.181c-2.548,-3.264 0.771,-4.363 -1.792,-7.647c-0.314,-0.402 -0.949,1.038 -5.955,-2.278c-1.149,-0.761 -1.364,-2.5 -2.48,-3.309c-1.422,-1.031 -2.211,0.416 -19.227,-10.598c-75.559,-48.908 -76.085,-92.755 -76.208,-103.005c-1.076,-89.676 153.905,-124.744 159.103,-126.177c65.476,-18.048 70.227,-10.586 71.969,-8.732c4.247,4.518 -0.207,12.283 -2.702,14.057c-2.456,1.746 -19.139,5.141 -20.828,5.485c-10.946,2.228 -82.995,16.892 -131.211,47.74c-86.712,55.476 -35.112,120.32 -1.332,144.622c26.324,18.938 25.679,19.806 28.196,21.07c1.819,0.913 3.941,1.192 5.67,2.266c3.228,2.007 5.849,4.894 9.077,6.901Z" style="fill:#c8f3f4;"/><path d="M780.168,977.39c-11.134,8.324 -11.926,6.719 -25.531,9.9c-2.841,0.664 -5.579,1.799 -8.464,2.237c-1.253,0.19 -2.541,-0.626 -3.784,-0.379c-1.079,0.214 -1.758,1.463 -2.834,1.694c-35.956,7.716 -135.217,18.202 -230.734,-14.096c-30.01,-10.148 -64.01,-25.495 -86.305,-38.375c-38.61,-22.307 -40.101,-23.822 -40.113,-29.885c-0.03,-14.465 22.849,4.957 69.599,27.803c84.27,41.181 155.253,48.641 224.774,46.296c0.999,-0.034 51.275,-4.186 63.48,-7.168c2.739,-0.669 29.621,-7.237 35.023,-3.92c2.175,1.335 2.713,4.557 4.888,5.892Z" style="fill:#7eb4ba;"/><path d="M284.355,804.703c2.647,-1.825 4.777,-4.333 7.424,-6.158c7.098,-4.894 42.379,-18.343 66.75,12.877c8.895,11.395 6.874,12.398 9.808,26.635c-16.498,7.386 -19.697,7.978 -21.511,8.313c-34.326,6.35 -43.263,-0.913 -51.131,-5.738c-6.963,-4.27 -5.9,-5.459 -11.005,-9.592c-3.628,-2.938 -9.493,-3.498 -11.785,-7.565c-1.223,-2.171 5.169,-4.178 3.946,-6.348c2.501,-4.142 5.002,-8.283 7.504,-12.425Z" style="fill:#f7fdfe;"/><path d="M276.851,817.128c1.223,2.171 -5.169,4.178 -3.946,6.348c2.291,4.067 8.157,4.627 11.785,7.565c5.104,4.133 4.041,5.321 11.005,9.592c7.867,4.825 16.804,12.089 51.131,5.738c1.814,-0.336 5.014,-0.928 21.511,-8.313c-3.952,17.162 -3.692,17.206 -4.142,18.668c-0.367,1.19 -3.543,11.501 -5.807,14.442c-21.442,27.851 -68.286,21.541 -82.644,-4.667c-12.481,-22.781 -4.12,-40.283 -3.668,-42.192l4.775,-7.181Z" style="fill:#9de1e6;"/><path d="M303.47,632.961c15.324,-8.605 15.181,-8.601 16.532,-9.293c26.907,-13.782 59.897,-23.884 68.564,-23.729c12.371,0.221 6.26,11.283 5.983,11.541c-1.342,1.252 -24.752,8.152 -26.926,8.793c-25.211,7.431 -51.94,22.528 -61.961,29.933c-30.917,22.848 -33.317,43.06 -42.258,37.624c-6.964,-4.233 0.944,-25.635 32.102,-48.933c4.059,-3.035 3.972,-2.961 7.963,-5.936Z" style="fill:#6db6b9;"/><path d="M867.303,951.802c-3.773,1.752 -44.494,20.664 -48.943,17.579c-0.864,-0.599 -1.542,-8.117 0.282,-10.829c1.714,-2.549 11.956,-7.067 13.061,-7.554c7.289,-3.215 7.535,-2.349 14.499,-6.251c2.191,-1.228 2.528,-0.401 27.951,-14.282c40.298,-22.004 51.833,-41.207 60.003,-33.651c5.96,5.512 2.855,6.949 -2.991,12.499c-3.78,3.589 -3.34,3.987 -7.714,6.837c-5.828,3.798 -30.074,22.474 -42.322,28.305c-7.097,3.378 -7.058,3.19 -13.825,7.348Z" style="fill:#60b1b6;"/><path d="M972.95,809.959c0.788,-2.108 0.238,-4.565 1.026,-6.673c1.048,-2.802 2.263,-2.25 14.375,-34.519c7.084,-18.873 5.758,-19.397 6.856,-20.758c1.321,-1.635 8.472,-1.712 10.06,0.141c7.17,8.365 -12.414,52.043 -14.847,54.439c-1,0.985 -3.059,-0.058 -4.121,0.859c-2.928,2.528 -3.834,7.315 -7.311,9.01c-1.958,0.955 -4.081,-3.455 -6.039,-2.5Z" style="fill:#2c717c;"/><path d="M692.746,760.675c1.54,6.622 2.853,6.276 3.296,14.168c0.095,1.687 0.911,16.236 1.497,21.068c0.567,4.673 1.422,9.31 1.901,13.993c0.121,1.182 3.245,31.719 -6.523,13.35c-0.294,-0.553 -0.261,-18.748 -0.258,-20.378c0.029,-14.067 0.059,-28.134 0.088,-42.201Z" style="fill:#90d2d6;"/><path d="M221.89,901.661c5.4,-5.24 5.196,-5.497 5.827,-5.654c2.867,-0.712 8.295,2.779 8.553,4.222c1.787,9.995 -0.76,12.2 -10.759,10.505c-1.506,-0.255 -2.59,-1.902 -3.156,-3.321c-0.713,-1.787 0.248,-3.966 -0.465,-5.753Z" style="fill:#324e5a;"/><path d="M1006.741,922.01c-2.418,-0.238 -4.6,2.206 -7.018,1.968c-3.333,-0.328 -7.779,-8.07 -3.507,-12.547c4.417,-4.63 12.336,-0.143 12.619,3.624c0.181,2.414 -2.275,4.541 -2.094,6.956Z" style="fill:#3f5861;"/><path d="M353.523,697.321c-1.643,-1.23 -4.368,-0.105 -6.011,-1.335c-0.729,-0.546 -7.371,-5.517 -0.188,-11.384c3.241,-2.647 12.54,-0.472 12.483,5.854c-0.025,2.793 -1.357,4.248 -1.617,4.532c-1.89,2.065 -2.842,0.338 -4.669,2.333Z" style="fill:#335a71;"/><path d="M808.074,418.512c0.032,1.78 1.971,3.171 2.003,4.951c0.111,6.154 -8.738,9.017 -12.416,5.497c-3.678,-3.52 -0.95,-12.656 5.639,-12.498c1.731,0.041 3.042,2.008 4.773,2.05Z" style="fill:#7c9ca3;"/><path d="M692.289,556.836c0.891,4.093 3.006,3.079 3.901,7.188c0.121,0.555 0.506,2.327 -0.801,7.054c-0.665,2.407 -2.377,4.438 -3.043,6.845c-0.019,-7.029 -0.038,-14.058 -0.058,-21.087Z" style="fill:#bbe8ea;"/></g></svg>