<?xml version="1.0" encoding="UTF-8" standalone="no"?><!DOCTYPE svg PUBLIC "-//W3C//DTD SVG 1.1//EN" "http://www.w3.org/Graphics/SVG/1.1/DTD/svg11.dtd"><svg width="100%" height="100%" viewBox="0 0 1246 1379" version="1.1" xmlns="http://www.w3.org/2000/svg" xmlns:xlink="http://www.w3.org/1999/xlink" xml:space="preserve" xmlns:serif="http://www.serif.com/" style="fill-rule:evenodd;clip-rule:evenodd;stroke-linejoin:round;stroke-miterlimit:2;"><g id="Fondo"><path d="M1164.031,759.426c1.287,4.033 3.861,2.215 5.15,6.256c0.13,0.409 -1.091,0.059 -1.512,5.147c-0.179,2.155 0.396,4.307 0.55,6.463c0.474,6.633 0.789,6.516 1.294,13.213c0.901,11.961 -4.171,23.414 -1.3,37.615c3.246,16.06 0.689,16.108 -0.129,32.389c-0.203,4.035 -0.08,8.083 -0.282,12.118c-1.214,0.324 -2.477,-1.085 -3.691,-0.761c-8.956,2.388 -15.16,13.665 -19.435,18.1c-5.2,5.395 -12.095,6.7 -12.424,25.745c-0.005,0.302 -0.107,33.488 -0.173,37.494c-0.024,1.469 -0.267,16.16 -1.179,18.327c-3.582,8.51 -10.77,10.381 -48.569,30.898c-63.538,34.488 -63.653,34.198 -76.161,41.725c-13.64,7.525 -42.698,21.941 -105.675,57.335c-26.941,15.141 -109.602,58.214 -125.558,67.806c-8.304,4.542 -57.335,29.639 -66.458,35.26c-7.868,4.848 -86.805,46.046 -89.014,46.894c-8.172,3.137 -8.318,0.846 -16.913,-0.766c-37.566,-19.198 -381.726,-206.365 -439.49,-239.672c-3.871,-2.232 -31.927,-18.41 -49.393,-26.094c-17.154,-7.547 -14.82,-12.234 -14.664,-69.261c0.314,-114.943 -1.695,-529.06 0.539,-538.038c3.174,-12.753 30.6,-21.538 50.628,-32.989c11.323,-6.474 71.83,-37.62 96.152,-51.977c1.921,-1.134 2.121,-0.737 24.608,-13.101c33.058,-18.175 33.347,-17.438 66.37,-35.579c1.795,-0.986 1.556,-1.312 22.043,-13.022c32.651,-18.663 33.828,-16.226 66.21,-35.636c24.019,-14.397 24.878,-12.527 51.924,-27.904c44.33,-25.204 106.793,-56.499 116.186,-61.205c23.463,-11.755 25.131,-4.96 71.86,18.957c126.908,64.956 127.299,64.151 153.742,79.625c3.579,2.094 66.554,35.342 114.009,59.794c16.198,8.346 15.966,8.59 32.186,17.027c10.909,5.674 129.877,67.557 136.464,70.736c24.447,11.797 26.091,15.85 27.073,18.272c2.48,6.116 1.698,6.385 2.355,132.523c1.144,219.701 -3.576,221.845 5.974,232.896c5.913,6.843 10.215,8.306 14.641,16.655c4.258,8.032 6.532,5.237 12.065,6.734Z" style="fill:#061824;"/><path d="M360.49,760.819c22.682,-44.964 23.327,-44.488 45.919,-89.515c23.146,-46.132 26.388,-45.778 27.457,-80.613c0.928,-30.256 0.607,-113.848 -0.606,-118.943c-3.489,-14.65 -25.871,-6.814 -28.014,-24.503c-2.184,-18.037 18.806,-19.666 21.118,-19.845c4.624,-0.359 97.823,-0.025 106.329,0.005c2.348,0.008 23.619,0.085 29.124,3.641c7.06,4.562 11.309,23.032 -3.548,29.45c-6.638,2.868 -15.087,2.131 -15.732,17.437c-0.316,7.51 0.165,7.446 -0.176,93.953c-0.17,43.257 -1.209,44.263 18.491,82.857c1.219,2.388 10.007,19.605 14.889,30.018c25.934,55.314 97.959,178.442 97.84,205.878c-0.04,9.19 -6.342,32.686 -28.32,43.916c-56.017,28.623 -265.283,19.199 -306.924,1.178c-73.656,-31.876 -12.724,-103.969 22.154,-174.915Z" style="fill:#d8f9f9;"/><path d="M1164.031,759.426c-5.533,-1.497 -7.808,1.299 -12.065,-6.734c-4.426,-8.349 -8.728,-9.812 -14.641,-16.655c-9.55,-11.052 -4.83,-13.195 -5.974,-232.896c-0.657,-126.138 0.125,-126.408 -2.355,-132.523c-0.982,-2.421 -2.626,-6.475 -27.073,-18.272c-6.587,-3.179 -125.555,-65.061 -136.464,-70.736c-16.219,-8.437 -15.988,-8.681 -32.186,-17.027c-47.455,-24.452 -110.431,-57.7 -114.009,-59.794c-26.443,-15.474 -26.834,-14.669 -153.742,-79.625c-46.729,-23.918 -48.398,-30.713 -71.86,-18.957c-9.393,4.706 -71.856,36.001 -116.186,61.205c-27.046,15.377 -27.905,13.507 -51.924,27.904c-32.382,19.41 -33.559,16.972 -66.21,35.636c-20.486,11.71 -20.248,12.036 -22.043,13.022c-33.023,18.141 -33.312,17.403 -66.37,35.579c-22.488,12.364 -22.688,11.967 -24.608,13.101c-24.322,14.357 -84.829,45.503 -96.152,51.977c-20.028,11.451 -47.454,20.236 -50.628,32.989c-2.234,8.978 -0.225,423.095 -0.539,538.038c-0.156,57.027 -2.489,61.713 14.664,69.261c17.466,7.685 45.522,23.862 49.393,26.094c57.764,33.307 401.924,220.475 439.49,239.672c-0.568,4.366 -6.785,6.608 -7.353,10.974c-1.315,10.108 17.094,9.159 18.758,9.073c15.403,-0.794 18.346,-8.767 19.534,-9.292c1.916,-0.846 4.35,1.602 6.244,0.707c2.802,-1.324 3.697,-5.265 6.442,-6.703c1.832,-0.96 4.359,1.011 6.204,0.076c2.697,-1.367 3.661,-5.119 6.375,-6.452c1.83,-0.898 4.263,1.192 6.106,0.323c2.657,-1.253 3.69,-4.809 6.293,-6.171c1.832,-0.958 4.36,0.6 6.191,-0.36c7.37,-3.861 4.258,-7.491 11.617,-11.292c2.028,-1.047 4.567,-0.469 6.753,-1.126c12.312,-3.7 11.184,-5.973 12.275,-6.081c2.114,-0.209 5.998,0.089 5.976,2.213c-0.033,3.33 -6.319,4.608 -6.078,7.929c0.275,3.78 7.014,4.946 7.289,8.726c-4.074,2.337 -16.733,9.597 -51.779,27.676c-36.548,18.315 -42.7,22.981 -49.593,24.009c-2.568,0.383 -6.363,0.949 -29.874,-12.671c-23.271,-13.481 -47.47,-25.37 -56.602,-30.665c-29.412,-17.053 -148.776,-82.024 -152.037,-84.042c-8.082,-5.001 -47.822,-26.278 -56.151,-31.353c-25.682,-15.645 -224.382,-124.834 -229.881,-127.504c-24.647,-11.968 -24.272,-15.679 -23.98,-42.969c1.34,-160.445 2.681,-320.889 4.021,-481.334c0.954,-120.804 0.063,-123.391 3.063,-130.132c4.62,-10.384 7.435,-7.866 83.894,-47.517c17.497,-9.074 16.713,-10.304 34.243,-19.336c99.403,-51.21 98.679,-52.338 197.366,-105.026c160.634,-85.761 209.19,-114.443 219.908,-115.894c4.174,-0.565 7.138,-0.966 48.293,20.971c99.942,53.274 100.456,52.233 109.119,56.913c64.867,35.039 147.723,76.409 153.713,79.858c25.952,14.943 126.838,64.686 169.191,87.048c64.594,34.106 69.899,33.45 72.286,47.662c1.457,8.672 2.005,308.709 5.106,388.293c0.36,9.235 -1.185,9.953 -1.453,12.204Z" style="fill:#6dd8df;"/><path d="M636.609,714.558c24.318,-44.382 25.867,-43.343 51.514,-86.891c18.257,-31.001 25.031,-31.887 25.268,-62.023c0.492,-62.579 -0.735,-62.471 -0.195,-125.018c0.019,-2.207 1.062,-9.889 -3.335,-14.437c-4.29,-4.437 -20.093,-5.926 -23.348,-15.967c-6.777,-20.909 18.676,-21.721 21.102,-21.798c1.825,-0.058 118.394,-0.596 125.156,-0.549c10.622,0.073 16.25,0.45 21.744,6.016c11.718,11.872 1.451,24.167 -3.873,26.377c-11.52,4.782 -13.27,3.049 -15.581,8.849c-1.619,4.064 -2.552,144.327 1.759,162.087c5.3,21.833 20.312,37.517 74.987,138.125c43.992,80.95 68.705,113.466 42.46,145.024c-20.247,24.346 -39.038,20.011 -146.55,20.596c-86.027,0.468 -86.14,1.382 -93.396,-0.399c-2.55,-0.626 -4.765,-2.294 -7.315,-2.919c2.39,-4.176 3.743,-3.041 6.111,-7.179c1.312,-2.292 -0.766,-2.853 0.848,-4.978c1.242,-1.635 3.287,-2.769 5.309,-3.126c0.493,-0.087 153.813,0.002 175.859,-0.469c13.336,-0.285 13.459,1.417 25.035,-2.022c12.012,-3.569 12.313,-0.429 13.245,-0.939c1.672,-0.915 0.67,-3.89 1.798,-5.426c1.565,-2.133 8.831,-1.469 10.112,-14.3c1.516,-15.185 -3.225,-28.425 -14.819,-48.479c-2.557,-4.422 -29.903,-51.721 -32.043,-55.233c-15.819,-25.957 -20.779,-20.9 -28.174,-20.881c-6.84,0.018 -16.18,-1.48 -18.916,-1.409c-36.062,0.937 -51.618,2.418 -56.091,2.844c-15.819,1.507 -122.04,0.318 -131.335,-1.829c-24.729,-5.71 -23.73,-11.116 -27.339,-13.646Z" style="fill:#e2faf9;"/><path d="M588.547,780.407c2.363,1.326 5.183,1.695 7.546,3.021c3.786,2.124 40.351,73.763 43.445,82.018c0.599,1.598 10.338,20.5 3.19,36.611c-6.564,14.795 -24.645,18.615 -72.788,23.509c-41.397,4.209 -196.145,4.437 -223.684,-11.842c-32.415,-19.161 -12.78,-49.733 16.722,-104.779c10.645,-19.863 12.599,-27.716 26.072,-28.724c15.915,-1.191 15.826,0.364 199.498,0.185Z" style="fill:#061d2b;"/><path d="M636.609,714.558c3.609,2.531 2.61,7.936 27.339,13.646c9.295,2.146 115.516,3.335 131.335,1.829c4.473,-0.426 20.029,-1.908 56.091,-2.844c2.735,-0.071 12.075,1.426 18.916,1.409c7.395,-0.019 12.355,-5.077 28.174,20.881c2.14,3.512 29.486,50.811 32.043,55.233c11.594,20.053 16.335,33.293 14.819,48.479c-1.281,12.831 -8.547,12.167 -10.112,14.3c-1.127,1.536 -0.126,4.512 -1.798,5.426c-0.932,0.51 -1.234,-2.63 -13.245,0.939c-11.576,3.439 -11.699,1.736 -25.035,2.022c-22.046,0.472 -175.365,0.382 -175.859,0.469c-2.022,0.356 -4.067,1.49 -5.309,3.126c-1.614,2.125 0.464,2.686 -0.848,4.978c-2.369,4.138 -3.721,3.003 -6.111,7.179c-1.966,-3.049 -3.297,-2.357 -6.701,-13.072c-12.579,-39.602 -38.279,-80.207 -49.793,-106.179c-15.682,-35.374 -23.981,-35.983 -13.905,-57.82Z" style="fill:#9beff0;"/><path d="M570.167,1019.297c-28.512,0.16 -295.621,8.844 -388.496,-83.869c-0.498,-0.497 -46.249,-42.204 0.26,-95.37c5.401,-6.175 31.337,-35.822 82.098,-61.446c1.37,-0.692 15.329,-7.738 18.278,-5.839c7.968,5.132 -3.23,12.494 -4.149,13.098c-7.631,5.017 -7.947,4.302 -15.499,9.512c-1.228,0.847 -1.604,0.185 -15.923,9.712c-14.133,9.403 -48.046,32.992 -57.161,67.017c-7.155,26.708 16.798,50.502 31.845,60.547c52.759,35.219 123.31,51.094 261.216,59.01c45.023,2.584 126.503,-1.726 137.488,-2.307c13.348,-0.706 117.879,-3.418 225.294,-29.191c223.957,-53.735 323.387,-136.54 230.074,-199.297c-39.86,-26.807 -94.905,-34.791 -97.958,-39.7c-2.828,-4.547 -1.882,-5.384 2.543,-8.349c2.257,-1.512 4.381,-2.935 33.618,4.751c55.542,14.601 188.917,70.603 92.324,158.664c-72.596,66.184 -218.329,97.439 -223.351,101.881c-5.299,4.687 -3.782,5.572 -3.963,12.6c-0.042,1.622 -0.365,14.168 -8.713,18.32c-24.25,12.059 -34.798,-18.442 -49.676,-17.212c-29.01,2.399 -71.883,21.438 -250.149,27.466Z" style="fill:#a5f5f4;"/><path d="M809.642,590.476c3.31,16.253 1.983,17.079 26.985,57.865c3.513,5.73 8.826,17.182 25.692,43.275c1.975,3.055 6.29,11.536 6.276,11.767c-0.46,7.799 -2.768,7.164 -10.614,7.638c-12.998,0.785 -12.909,-0.344 -162.77,-0.305c-9.491,0.002 -19.834,1.452 -22.988,-2.879c-4.095,-5.624 -1.604,-6.143 2.273,-11.811c1.564,-2.286 44.527,-69.256 47.169,-73.185c19.831,-29.494 16.807,-31.806 17.082,-132.203c0.129,-46.888 -4.193,-57.241 12.372,-58.974c5.896,-0.617 32.768,0.058 37.898,0.102c17.702,0.152 19.678,3.571 19.732,21.36c0.258,85.764 -0.48,100.467 0.893,137.35Z" style="fill:#062532;"/><path d="M1167.801,872.628c-0.185,1.521 -1.348,2.812 -1.533,4.333c-0.277,2.276 0.212,4.584 0.168,6.876c-0.976,50.207 1.065,50.123 0.792,100.348c-0.843,2.297 -0.848,4.847 -1.691,7.144c-3.006,8.188 -4.241,8.09 -77.076,48.427c-203.625,112.77 -320.511,175.225 -348.527,190.194c-2.133,-3.614 -7.631,-4.333 -9.764,-7.947c-3.149,-5.335 0.63,-4.895 4.279,-9.942c1.798,-2.487 2.628,-5.964 5.245,-7.567c1.61,-0.986 5.98,3.212 13.688,-5.856c1.826,-2.148 1.894,-5.858 4.341,-7.257c2.085,-1.192 5.088,1.864 7.175,0.674c2.607,-1.487 2.139,-6.367 4.894,-7.558c2.537,-1.098 5.635,3.283 8.06,1.954c2.591,-1.419 3.847,-5.293 3.352,-8.205c-0.61,-3.59 -5.658,-5.358 -6.269,-8.948c15.956,-9.592 98.617,-52.665 125.558,-67.806c62.977,-35.394 92.035,-49.81 105.675,-57.335c12.508,-7.527 12.624,-7.237 76.161,-41.725c37.799,-20.517 44.987,-22.388 48.569,-30.898c0.912,-2.167 1.154,-16.858 1.179,-18.327c0.066,-4.006 0.168,-37.192 0.173,-37.494c0.329,-19.045 7.223,-20.35 12.424,-25.745c4.275,-4.435 10.48,-15.712 19.435,-18.1c1.214,-0.324 2.477,1.085 3.691,0.761Z" style="fill:#57b6bc;"/><path d="M823.353,807.28c-25.789,-47.624 -30.789,-63.653 -9.15,-64.659c46.405,-2.156 48.509,-0.58 51.83,1.909c9.484,7.107 8.454,8.189 39.648,59.735c10.958,18.107 22.609,40.267 -10.023,45.454c-38.889,6.181 -59.31,-23.773 -72.304,-42.439Z" style="fill:#fdfefe;"/><path d="M774.936,1169.298c0.61,3.59 5.658,5.358 6.269,8.948c0.495,2.913 -0.761,6.786 -3.352,8.205c-2.425,1.328 -5.523,-3.052 -8.06,-1.954c-2.755,1.192 -2.287,6.071 -4.894,7.558c-2.087,1.19 -5.09,-1.866 -7.175,-0.674c-2.447,1.399 -2.515,5.109 -4.341,7.257c-7.708,9.068 -12.079,4.87 -13.688,5.856c-2.617,1.603 -3.447,5.08 -5.245,7.567c-3.649,5.046 -7.428,4.607 -4.279,9.942c2.133,3.614 7.631,4.333 9.764,7.947c-12.36,6.829 -12.245,6.766 -24.756,13.281c-0.275,-3.78 -7.014,-4.946 -7.289,-8.726c-0.242,-3.321 6.044,-4.599 6.078,-7.929c0.021,-2.124 -3.862,-2.422 -5.976,-2.213c-1.091,0.108 0.037,2.38 -12.275,6.081c-2.185,0.657 -4.725,0.079 -6.753,1.126c-7.36,3.801 -4.248,7.43 -11.617,11.292c-1.831,0.959 -4.359,-0.598 -6.191,0.36c-2.603,1.362 -3.636,4.917 -6.293,6.171c-1.843,0.869 -4.277,-1.221 -6.106,-0.323c-2.714,1.333 -3.678,5.085 -6.375,6.452c-1.845,0.935 -4.372,-1.036 -6.204,-0.076c-2.745,1.439 -3.64,5.379 -6.442,6.703c-1.894,0.895 -4.328,-1.553 -6.244,-0.707c-1.188,0.525 -4.132,8.498 -19.534,9.292c-1.665,0.086 -20.074,1.035 -18.758,-9.073c0.568,-4.366 6.785,-6.608 7.353,-10.974c8.595,1.612 8.741,3.902 16.913,0.766c2.208,-0.848 81.146,-42.046 89.014,-46.894c9.123,-5.621 58.154,-30.719 66.458,-35.26Z" style="fill:#75d3db;"/><path d="M551.631,327.766c9.86,7.473 12.415,6.573 13.659,18.968c2.894,28.825 -46.517,51.347 -55.633,30.499c-9.962,-22.782 10.097,-59.982 34.788,-52.561c2.497,0.751 4.688,2.343 7.186,3.094Z" style="fill:#f3fdfd;"/><path d="M414.701,338.443c13.072,5.803 13.851,4.875 23.38,15.472c1.734,1.929 28.913,32.155 -11.649,30.255c-3.482,-0.163 -28.997,-1.359 -40.997,-14.752c-14.213,-15.862 -0.407,-38.118 21.875,-33.265c2.52,0.549 4.872,1.74 7.392,2.289Z" style="fill:#f5fcfc;"/><path d="M1011.347,500.979c-16.373,10.061 -13.203,17.101 -22.695,15.969c-3.691,-0.44 -7.686,-9.652 -12.281,-13.699c-0.998,-0.879 -2.888,-0.937 -3.333,-2.19c-0.479,-1.349 1.099,-2.726 1.078,-4.158c-0.021,-1.471 -1.671,-2.856 -1.197,-4.249c0.332,-0.975 2.131,1.004 9.981,-8.124c4.824,-5.609 4.846,-7.428 12.024,-5.673c3.082,0.753 7.911,8.084 9.36,9.171c2.266,1.7 5.636,2.117 7.238,4.452c0.213,0.31 -0.944,0.172 -1.035,4.588c-0.043,2.096 0.901,1.877 0.859,3.913Z" style="fill:#cbf7f7;"/><path d="M407.037,815.131c1.075,-0.731 1.605,-2.102 2.68,-2.834c14.417,-9.807 31.56,10.797 18.896,24.216c-12.872,13.64 -28.76,-2.975 -25.317,-14.126c0.803,-2.6 2.938,-4.656 3.741,-7.257Z" style="fill:#c2f9fb;"/><path d="M463.642,296.944c0.262,-2.148 -0.81,-4.32 -0.548,-6.468c0.654,-5.358 6.857,-9.888 7.932,-10.193c16.334,-4.628 21.543,17.757 12.098,23.349c-14.122,8.361 -18.939,-5.943 -19.482,-6.688Z" style="fill:#e1f5f7;"/><path d="M263.527,622.236c-2.424,-9.164 -5.426,-10.975 2.311,-16.52c5.989,-4.292 11.687,0.489 12.454,1.132c13.073,10.969 -2.574,24.177 -12.009,18.304c-1.135,-0.707 -1.62,-2.209 -2.756,-2.916Z" style="fill:#cae9ec;"/><path d="M918.78,1001.779c1.122,-0.48 1.698,-1.854 2.82,-2.334c10.95,-4.686 20.343,9.559 12.639,17.648c-8.409,8.829 -22.39,-0.951 -17.636,-12.517c0.449,-1.093 1.728,-1.704 2.178,-2.797Z" style="fill:#9ae3eb;"/><path d="M271.197,429.073c1.753,-0.345 2.751,-2.56 4.504,-2.904c12.098,-2.379 13.137,6.956 13.275,8.197c1.678,15.066 -22.698,15.823 -20.325,-0.351c0.269,-1.833 2.276,-3.108 2.545,-4.941Z" style="fill:#cceff1;"/><path d="M545.783,865.318c0.083,-2.036 -1.581,-3.891 -1.499,-5.928c0.034,-0.84 0.292,-7.19 6.194,-8.484c18.426,-4.039 16.586,24.695 -0.645,17.81c-1.637,-0.654 -2.414,-2.745 -4.05,-3.398Z" style="fill:#c1f2f4;"/><path d="M485.763,576.507c-0.064,-1.617 -1.158,-3.081 -1.222,-4.698c-0.304,-7.623 7.669,-10.912 10.431,-10.185c9.178,2.416 8.842,9.376 8.79,10.469c-0.103,2.131 -2.43,3.746 -2.533,5.876c-0.451,0.038 -5.246,4.56 -13.072,1.116c-1.073,-0.472 -1.32,-2.105 -2.393,-2.578Z" style="fill:#175054;"/><path d="M927.021,577.305c-0.841,-2.274 -3.426,-3.616 -4.267,-5.891c-1.601,-4.329 5.356,-11.316 9.77,-10.043c9.177,2.647 8.115,9.864 7.958,10.934c-0.851,5.786 -6.901,6.165 -7.691,6.214c-1.962,0.123 -3.809,-1.338 -5.771,-1.215Z" style="fill:#aadce1;"/><path d="M776.927,309.641c2.342,-0.788 3.864,-3.266 6.206,-4.054c3.61,-1.215 6.816,1.799 7.258,2.215c8.048,7.569 -0.473,13.431 -1.405,14.072c-3.616,2.488 -12.752,-0.752 -13.294,-6.14c-0.207,-2.062 1.443,-4.031 1.236,-6.093Z" style="fill:#82bfce;"/><path d="M462.416,521.792c2.034,-2.32 0.152,-3.227 2.206,-5.57c0.313,-0.358 2.335,-2.664 5.201,-2.878c1.057,-0.079 9.781,-0.732 10.016,8.668c0.061,2.443 -0.97,5.152 -2.793,6.78c-7.157,6.392 -12.235,-0.018 -12.875,-0.827c-1.328,-1.677 -0.426,-4.496 -1.755,-6.172Z" style="fill:#1d5050;"/><path d="M250.336,510.486c-0.431,-1.048 -1.658,-1.635 -2.089,-2.683c-2.806,-6.826 2.377,-10.431 3.125,-10.951c3.389,-2.357 12.74,0.925 13.425,6.094c0.132,0.995 1.25,9.42 -7.358,10.167c-2.515,0.218 -4.588,-2.845 -7.103,-2.626Z" style="fill:#ade2e6;"/><path d="M641.187,527.66c-1.542,1.946 0.048,5.353 -1.494,7.299c-6.584,8.308 -12.631,0.305 -13.271,-0.543c-3.009,-3.982 0.377,-13.631 6.219,-13.797c3.212,-0.091 5.344,1.665 5.718,1.973c2.323,1.913 0.491,3.142 2.829,5.068Z" style="fill:#93cfd6;"/><path d="M525.625,1096.909c-0.944,1.282 -0.64,3.224 -1.584,4.507c-0.493,0.67 -4.323,5.872 -10.205,1.999c-6.492,-4.274 -3.777,-10.379 -3.396,-11.237c1.955,-4.396 11.908,-4.38 14.107,-0.356c0.831,1.521 0.246,3.566 1.077,5.087Z" style="fill:#90c4cd;"/><path d="M238.894,709.171c-2.154,-1.556 -2.701,0.043 -4.911,-1.555c-0.315,-0.228 -2.426,-1.754 -2.768,-3.995c-0.156,-1.021 -1.578,-10.351 7.683,-10.375c2.479,-0.006 5.132,1.424 6.603,3.419c4.683,6.354 -0.94,10.417 -1.657,10.935c-1.403,1.014 -3.547,0.557 -4.95,1.571Z" style="fill:#72babf;"/><path d="M995.292,396.83c-0.1,-3.879 -3.484,-2.502 -3.582,-6.318c-0.015,-0.584 -0.105,-4.065 3.25,-6.542c6.353,-4.691 10.511,1.029 11.036,1.752c3.118,4.289 -0.416,11.718 -4.209,12.24c-2.177,0.299 -4.318,-1.431 -6.495,-1.131Z" style="fill:#78b5bc;"/><path d="M996.997,658.711c0.641,-2.63 -0.889,-2.57 -0.258,-5.156c0.068,-0.278 0.188,-0.772 2.201,-2.813c7.636,-7.743 16.643,3.924 10.476,10.257c-5.38,5.524 -6.659,2.842 -12.418,-2.287Z" style="fill:#609fa8;"/><path d="M819.997,678.316c-0.337,2.089 1.296,4.186 0.959,6.274c-1.075,6.666 -13.771,6.211 -14.866,0.356c-0.192,-1.028 -2.066,-11.047 7.7,-10.566c2.447,0.121 3.76,3.815 6.207,3.936Z" style="fill:#88cdd2;"/><path d="M776.75,650.533c-3.858,-8.718 -3.984,-8.611 -4.166,-9.415c-0.08,-0.356 3.773,-5.759 4.316,-5.987c6.043,-2.534 9.716,4.61 10.137,5.428c1.667,3.243 -2.566,9.52 -5.229,10.041c-1.655,0.324 -3.403,-0.391 -5.058,-0.067Z" style="fill:#0c2d38;"/><path d="M755.618,663.821c-1.532,0.232 -2.465,2.14 -3.996,2.372c-0.907,0.138 -9.218,1.399 -9.478,-6.443c-0.316,-9.529 8.776,-8.292 9.786,-8.155c5.906,0.803 5.602,7.033 5.565,7.799c-0.078,1.601 -1.797,2.827 -1.876,4.428Z" style="fill:#84c5ce;"/><path d="M341.698,647.447c1.965,-1.288 2.106,-4.466 4.071,-5.753c4.359,-2.857 13.445,3.344 9.902,10.468c-0.418,0.84 -3.83,7.7 -11.542,2.091c-1.948,-1.417 -0.483,-5.388 -2.431,-6.805Z" style="fill:#3c7381;"/><path d="M183.259,757.542c-3.619,-4.175 -5.906,-3.913 -3.924,-9.169c1.739,-4.61 11.691,-3.758 12.996,-0.342c1.36,3.56 1.059,3.815 -1.438,6.71c-0.818,0.948 -1.095,2.561 -2.271,2.992c-1.679,0.616 -3.684,-0.807 -5.363,-0.191Z" style="fill:#0c1c27;"/><path d="M939.002,1105.622c-5.11,-0.146 -3.825,4.007 -8.858,3.863c-0.364,-0.01 -3.93,-0.112 -1.842,-4.169c0.777,-1.51 3.13,-1.68 4.828,-1.632c2.06,0.059 3.812,1.878 5.872,1.937Z" style="fill:#51b0b4;"/></g></svg>