<?xml version="1.0" encoding="UTF-8" standalone="no"?><!DOCTYPE svg PUBLIC "-//W3C//DTD SVG 1.1//EN" "http://www.w3.org/Graphics/SVG/1.1/DTD/svg11.dtd"><svg width="100%" height="100%" viewBox="0 0 8701 2476" version="1.1" xmlns="http://www.w3.org/2000/svg" xmlns:xlink="http://www.w3.org/1999/xlink" xml:space="preserve" xmlns:serif="http://www.serif.com/" style="fill-rule:evenodd;clip-rule:evenodd;stroke-linejoin:round;stroke-miterlimit:2;"><g><path id="NAY" d="M4084.331,1520.32l-7.687,-7.28l-36.818,-11.629c-5.532,-1.757 -10.031,-4.276 -12.628,-7.067l-16.808,-18.038c-2.179,-2.33 -2.901,-4.719 -2.129,-6.853l3.549,-9.439l-11.757,-10.152l-4.655,-0.181c-2.663,-0.098 -5.369,-0.41 -8.06,-0.928l-28.565,-5.491c-7.142,-1.379 -13.467,-4.071 -17.26,-7.353l-17.092,-14.773l-23.541,-1.55l-18.829,7.189c-3.598,1.355 -8.398,1.954 -13.701,1.708l-16.31,-0.788c-10.094,-0.485 -20.251,-3.981 -25.305,-8.724l-20.888,-19.606c-3.256,-3.069 -3.998,-6.303 -2.027,-8.946l10.993,-14.897l-4.518,-6.541l-21.029,-9.216l-40.471,-4.958l-16.403,0l-0.231,4.505c-0.105,1.765 -1.129,3.382 -3.031,4.686l-1.251,0.853l3.74,8.231c1.045,2.348 0.602,4.595 -1.296,6.443l-7.496,7.205l11.424,10.12l11.621,6.476c4.466,2.496 7.178,5.458 7.601,8.306l1.612,10.981c0.838,5.746 -7.589,9.569 -20.037,8.996l-70.133,-3.882l14,17.579l40.53,26.148l11.223,23.012l63.51,43.924l32.96,9.413l30.838,16.727l24.242,49.159l-32.003,17.776l-5.725,15.683l19.797,3.939l17.848,-4.095c2.657,-0.599 5.368,-0.961 8.957,-0.845l6.124,0.083l12.987,-17.39c1.695,-2.232 5.165,-3.89 9.893,-4.67l18.802,-3.136c2.012,-0.337 4.22,-0.508 6.527,-0.508l20.87,0l5.836,-5.285c3.403,-3.094 10.515,-4.629 19.033,-3.996l21.527,1.568c2.318,0.163 4.668,0.492 6.984,0.969l34.226,7.065c5.318,1.099 10.185,2.939 13.858,5.235l25.535,16.053l27.913,4.022c3.867,0.567 7.642,1.527 10.998,2.823l2.497,0.961l-2.727,-4.219c-0.557,-0.845 -0.895,-1.69 -1.077,-2.519l-2.504,-12.549c-0.341,-1.765 0.198,-3.413 1.578,-4.841l12.904,-13.345l17.474,-15.003l-4.962,-12.836l-5.217,-10.636l-42.047,-12.836c-8.269,-2.527 -14.13,-6.681 -15.312,-10.841l-8.495,-29.996l0.017,0.002Z" style="fill:#19b1a1;fill-rule:nonzero;"/><path id="AGS" d="M4611.534,1473.958l-8.882,-1.92c-5.064,-1.231 -22.487,-5.606 -34.983,-9.864c-2.999,-0.28 -7.772,-0.575 -11.674,-0.723c-8.312,-0.303 -16.936,-2.7 -22.676,-6.303l-1.905,-1.198c-2.234,0.353 -4.67,0.508 -7.388,0.459l-19.576,-0.435l-1.123,3.193c-1.05,2.947 -4.885,5.178 -10.583,6.147l-12.122,2.06l0.354,16.719c0.052,2.379 -1.588,4.481 -4.64,6l-16.457,8.133l1.868,6.401c0.168,0.607 0.244,1.198 0.214,1.773l-0.681,14.156l5.279,0l17.284,-6.788c5.486,-2.167 13.944,-2.437 22.202,-0.705l45.124,9.405c1.553,0.329 3.088,0.715 4.56,1.166l29.927,9.135l16.043,-0.705l15.314,-20.451c0.712,-0.951 1.77,-1.814 3.14,-2.545l18.503,-9.898c-6.674,-1.838 -12.306,-4.792 -15.079,-8.231l-12.047,-14.977l0.006,-0.004Z" style="fill:#19b1a1;fill-rule:nonzero;"/><path id="DUR" d="M3995.675,1366.586c-0.295,-0.599 -0.526,-1.198 -0.654,-1.788l-6.174,-29.799l-7.57,-23.701c-0.357,-1.133 -0.369,-2.24 -0.01,-3.283l5.872,-17.258c0.651,-1.944 2.547,-3.595 5.475,-4.792l16.263,-6.632l6.905,-8.397c2.939,-3.579 10.432,-5.466 19.568,-4.826l0.886,0.065l-3.089,-3.151l-23.858,-19.837c-3.691,-3.077 -4.836,-6.401 -3.139,-9.175l13.804,-22.742c0.722,-1.215 1.966,-2.281 3.685,-3.151l10.453,-5.367l13.614,-14.526c1.753,-1.871 4.854,-3.258 8.909,-3.996l17.31,-3.159l3.302,-8.887c0.724,-1.928 2.692,-3.579 5.64,-4.735l21.976,-8.633c3.655,-1.428 8.644,-2.011 14.009,-1.781l61.174,3.094l57.591,0.747l34.616,-3.004l6.927,-7.156l-9.772,-26.272l-9.212,-12.064l2.485,8.19c0.376,1.247 0.331,2.462 -0.145,3.587l-8.135,18.826c-1.301,2.996 -5.578,5.186 -11.697,6c-6.097,0.796 -13.456,0.156 -20.118,-1.798l-49.577,-14.542l-43.89,-5.728c-4.574,-0.591 -9.068,-1.781 -12.93,-3.406l-33.566,-14.125c-3.422,-1.436 -6.233,-3.167 -8.193,-5.031l-17.66,-16.874l-33.054,-11.694c-3.466,-1.223 -6.467,-2.765 -8.767,-4.473l-19.514,-14.511c-1.731,-1.296 -3.039,-2.667 -3.842,-4.054l-20.671,-35.685c-2.04,-3.522 -0.698,-6.853 3.668,-9.027l24.881,-12.417l4.89,-13.796l-36.47,-29.455c-4.207,-3.398 -5.255,-7.124 -2.846,-10.071l8.346,-10.209l-31.098,-19.122l-91.631,-30.849l-107.984,-6.606l-21.435,20.14l-26.892,20.954c-3.727,2.88 -10.815,4.227 -19.175,3.496l-36.731,-3.144c-7,-0.591 -13.917,-2.586 -19.015,-5.458l-26.566,-15.027l-13.026,7.034c-5.191,2.815 -14.334,3.455 -23.49,1.633l-33.729,-6.697l-66.597,1.444c-5.799,0.106 -11.582,-0.762 -16.957,-2.503l-68.374,-22.003l-11.779,0.871c-4.507,0.329 -9.475,-0.049 -14.278,-1.091l-43.498,-9.405l-25.182,1.723l-1.135,12.023c-0.097,1.091 -0.55,2.117 -1.356,3.045l-6.929,7.985l6.96,12.015c3.129,5.401 -1.794,10.053 -11.787,11.202l-47.354,5.432l26.532,26.516c3.523,3.53 3.694,7.181 0.47,9.898l-11.648,9.783l10.45,27.723c1.259,3.323 -0.581,6.336 -4.999,8.249l-25.362,10.981c-3.133,1.353 -7.348,2.076 -12.093,2.076c-0.283,0 -0.53,0 -0.801,-0.008l-67.078,-1.133l39.399,65.435l23.774,15.33l43.895,15.765c0.668,0.238 1.333,0.492 1.963,0.754l39.685,16.463c0.681,0.288 1.35,0.583 1.996,0.894l30.851,14.912c2.762,1.33 5.005,2.848 6.619,4.465l18.373,18.359l8.691,7.41l3.099,0.508l9.253,-4.235l7.495,-6.147c4.504,-3.719 14.603,-4.883 24.88,-2.905l41.044,7.837c1.717,0.329 3.4,0.739 5.024,1.223l47.857,14.125c3.941,1.156 7.46,2.734 10.172,4.546l38.801,25.886c3.413,2.281 5.426,4.841 5.736,7.296l1.938,16.242l6.592,13.443l17.577,9.537c4.23,2.289 6.973,5.015 7.757,7.69l1.969,6.811l21.065,11.341l33.727,19.163c1.826,1.034 3.374,2.159 4.573,3.341l15.488,15.216l12.528,5.409l41.859,2.503l35.077,0c2.024,0 4.107,0.122 6.2,0.386l51.232,6.277c4.949,0.607 9.796,1.897 13.909,3.693l34.018,14.905c4.334,1.897 7.6,4.268 9.334,6.746l9.76,14.125c1.679,2.438 1.762,4.851 0.245,6.902l-10.279,13.894l4.504,4.219l13.286,-5.064c3.802,-1.436 8.947,-2.011 14.594,-1.658l47.819,3.136c9.474,0.624 18.843,3.841 23.895,8.208l19.396,16.776l13.244,2.545l17.089,0.64c3.798,0.14 7.548,0.821 11.116,1.739l-6.16,-32.326l-16.082,-30.432l-0.006,-0.004Z" style="fill:#154a3c;fill-rule:nonzero;"/><path id="HGO" d="M5552.895,1659.798c-0.339,-4.595 5.467,-8.019 14.64,-8.602l11.378,-0.731l1.26,-5.474c0.719,-3.175 4.601,-5.614 10.567,-6.663c5.966,-1.05 13.424,-0.583 20.292,1.239l16.369,4.357l-5.516,-11.785c-0.423,-0.902 -0.622,-1.788 -0.592,-2.659l0.203,-7.56l-5.673,-1.568c-5.419,-1.501 -10.062,-3.758 -13.07,-6.344c-4.358,0.648 -9.433,0.567 -14.607,-0.311l-28.107,-4.702c-7.055,-1.174 -13.501,-3.677 -17.648,-6.853l-13.769,-10.53c0.086,0.41 0.183,0.804 0.282,1.174c1.596,1.379 2.844,3.045 3.877,5.056c3.466,6.788 -6.363,12.056 -20.7,10.948c-6.605,-0.28 -37.955,-1.33 -65.833,-2.224c-3.061,-0.098 -6.163,-0.55 -9.167,-1.182l1.616,9.242c0.754,4.308 -3.8,7.739 -11.776,8.848l-33.764,4.702c-5.949,0.853 -13.148,0.254 -19.727,-1.584l-0.443,2.413c-0.25,1.371 -1.101,2.626 -2.486,3.701l-10.867,8.436l-2.025,16.766l7.129,17.382c1.777,4.325 -1.66,8.084 -8.876,9.693l-46.383,10.374l2.17,25.927l26.161,9.053l34.113,0c9.196,0 19.069,2.683 25.197,6.845l38.085,26.025l2.374,-8.625c1.1,-3.947 7.115,-6.632 15.559,-6.959l40.345,-1.568c1.976,-0.083 4.059,-0.016 6.15,0.156l26.748,2.356c11.547,1.018 22.242,5.753 25.437,11.269l3.998,6.902c4.23,-2.299 11.148,-3.226 18.835,-2.364l28.794,3.136c3.928,0.42 7.855,1.296 11.425,2.527l31.745,10.981c4.71,1.625 8.569,3.815 11.011,6.228l7.755,7.658l1.24,0.477l14.259,4.958l13.14,0.674l11.512,-5.974l-6.692,-7.625c-1.998,-2.273 -2.626,-4.587 -1.815,-6.656l5.564,-14.125l5.996,-12.917l-10.667,-10.849c-0.733,-0.262 -1.432,-0.526 -2.141,-0.772c-13.445,-4.867 -32.926,-12.106 -31.413,-25.196l-4.6,1.716c-4.825,1.788 -11.769,2.208 -18.903,1.125l-26.063,-3.924c-7.732,-1.166 -14.807,-3.924 -19.088,-7.42l-18.164,-14.905c-4.533,-3.727 -5.257,-7.788 -1.952,-10.792c-4.515,-0.772 -8.892,-2.11 -12.572,-3.874c-5.713,-2.758 -9.182,-6.277 -9.436,-9.61l-0.688,-9.413l-0.002,-0.004Z" style="fill:#00a17b;fill-rule:nonzero;"/><path id="ZAC" d="M4633.296,1456.239c8.048,1.739 14.768,5.121 17.887,8.986l10.617,13.197c5.717,0.674 10.443,1.322 14.754,1.995c3.116,0.303 6.295,0.894 9.414,1.781c3.129,0.731 5.939,1.511 8.079,2.454c7.265,1.936 19.748,5.113 30.561,7.788l44.768,9.389l9.528,-0.492l0.585,-17.333c-3.426,-7.806 -7.817,-16.906 -9.709,-19.829c-5.197,-4.473 -19.35,-17.268 -25.728,-23.037c-6.053,-5.49 -3.695,-11.194 5.553,-13.427l0.42,-0.106l-1.893,-0.861l-23.632,-0.477l-17.43,2.98l-11.94,12.746c-2.445,2.602 -7.467,4.251 -13.834,4.546l-16.991,0.788c-9.28,0.37 -19.426,-1.985 -26.171,-6.09l-22.524,-13.723l-38.369,-16.398l-39.889,-13.575c-0.724,-0.246 -1.442,-0.508 -2.134,-0.788l-43.313,-17.251c-6.109,-2.437 -10.346,-5.769 -11.589,-9.118l-4.87,-13.311l-12.727,-13.689l-16.98,-7.936c-9.261,-4.349 -12.422,-10.439 -7.506,-14.56l6.323,-5.302l4.606,-9.045c2.661,-5.235 14.183,-7.443 26.605,-5.113l17.035,3.216l17.743,-2.24l9.837,-7.518l2.576,-17.39c0.641,-4.341 7.03,-7.321 16.219,-7.568l13.836,-0.36l0.254,-4.948c0.179,-3.447 3.933,-6.189 10.128,-7.394l44.238,-8.576l28.023,-18.458l13.886,-20.508l2.497,-16.151l3.685,-16.019c0.635,-2.742 3.618,-4.958 8.358,-6.179l26.729,-6.902l0.687,-0.534l-7.04,-1.781l-45.427,-9.151c-4.797,-0.969 -9.238,-2.535 -12.775,-4.515l-19.087,-10.652l-22.248,-0.894l-42.277,7.174c-5.344,0.92 -11.933,0.632 -18.248,-0.812c-6.31,-1.436 -11.82,-3.898 -15.295,-6.829l-11.343,-9.553l-37.759,-4.629c-7.187,-0.886 -14.029,-3.185 -18.724,-6.27l-25.048,-16.561l-77.098,-15.535l-58.269,5.531l-8.445,1.296l20.804,9.234c4.015,1.773 7.11,3.965 8.863,6.27l13.164,17.251c0.575,0.731 0.983,1.469 1.263,2.208l11.38,30.595c0.771,2.102 0.323,4.113 -1.309,5.795l-12.897,13.329c-2.245,2.314 -6.557,3.866 -12.091,4.349l-45.323,3.924c-1.391,0.122 -2.87,0.205 -4.329,0.148l-60.746,-0.78c-0.618,-0.008 -1.241,-0.024 -1.858,-0.057l-53.724,-2.724l-11.83,4.654l-3.856,10.366c-1.06,2.84 -4.737,5.007 -10.171,6l-19.631,3.569l-12.024,12.829c-0.732,0.772 -1.691,1.462 -2.87,2.068l-9.627,4.958l-10.061,16.561l18.717,15.576c0.444,0.368 0.847,0.747 1.233,1.125l19.283,19.614c3.589,3.644 3.574,7.428 -0.026,10.128c-3.615,2.7 -10.252,4.022 -18.131,3.463l-19.908,-1.353l-3.578,4.367c-0.968,1.198 -2.481,2.224 -4.453,3.029l-14.787,6.023l-4.326,12.704l7.184,22.602l6.149,29.53l16.106,30.473c0.314,0.632 0.544,1.255 0.658,1.879l7.774,40.788c0.167,0.804 0.125,1.592 -0.082,2.348l-1.434,4.973c3.855,-0.368 7.024,-0.943 8.968,-1.83c2.322,-1.068 2.514,-2.683 1.932,-7.698c-0.441,-3.685 -0.937,-7.863 1.183,-12.147c1.471,-2.962 3.82,-5.098 5.508,-6.656c2.078,-1.887 2.207,-2.125 2.082,-2.913c-0.228,-0.477 -0.879,-1.174 -1.403,-1.879c-1.762,-2.299 -4.137,-5.45 -4.543,-8.929c-1.583,-14.198 12.731,-20.205 43.921,-18.235c26.117,1.609 38.559,12.311 44.408,18.769c5.507,-0.122 11.004,-0.345 16.468,-0.575c9.315,-0.337 19.665,2.11 26.334,6.311l9.975,6.27c3.113,1.962 5.178,4.152 5.988,6.327l5.458,14.897c0.522,1.444 0.482,2.84 -0.135,4.121l-7.234,15.052l1.778,11.007l0.811,0.114l7.6,-0.41l-1.334,-5.515c-1.209,-5.038 4.768,-8.848 14.415,-9.478c-0.652,-1.387 -1.224,-2.602 -1.611,-3.413c-0.401,-0.321 -0.869,-0.64 -1.322,-0.961c-3.998,-2.947 -12.318,-9.084 -9.796,-15.962c2.364,-6.435 11.644,-11.022 25.461,-12.59c15.687,-1.781 35.892,0.485 51.457,5.777c7.276,2.47 12.427,6.205 13.766,9.98l1.042,2.947l17.264,0c7.618,0 15.795,1.846 21.918,4.94c6.123,3.086 9.397,7.026 8.771,10.554l-2.958,16.587l8.588,12.508c1.991,2.921 1.691,5.787 -0.838,8.011l-11.522,10.201c-2.422,2.125 -6.689,3.53 -12.05,3.931l-31.978,2.454l-24.115,25.375l7.754,13.386c0.869,1.501 1.133,2.988 0.769,4.367l-3.382,13.337c-1.153,4.572 -9.207,7.436 -19,7.065l-16.072,-0.55l0.244,0.223c3.611,3.193 4.461,6.614 2.341,9.372l-4.973,6.492l5.311,0c5.678,0 11.75,1.026 17.081,2.89l11.642,4.079l42.965,3.382c3.653,0.288 7.351,0.969 10.807,1.978l21.6,6.336l26.611,2.208l-5.426,-19.738c-1.522,-5.523 5.57,-9.644 16.77,-9.766l58.349,-0.607l0.17,-1.255c0.684,-4.349 7.146,-7.321 16.386,-7.534l12.615,-0.288l-5.411,-9.34l-33.792,-10.678c-5.346,-1.69 -9.727,-4.095 -12.382,-6.788l-6.747,-6.86l-14.136,-3.652c-10.601,-2.742 -17.858,-8.158 -17.618,-13.163l1.076,-21.871l-2.95,-10.079c-0.838,-2.939 0.737,-5.606 4.431,-7.428l17.468,-8.651l-0.395,-19.08c-0.085,-3.758 4.002,-6.73 10.85,-7.895l14.182,-2.397l1.963,-5.58c1.499,-4.235 8.338,-6.811 18.262,-6.648l22.749,0.5l3.241,-3.636c2.892,-3.234 9.761,-4.932 17.952,-4.686c8.279,0.337 16.786,2.724 22.477,6.303l16.136,10.144c17.011,1.337 22.88,3.587 26.323,4.916c5.105,1.962 18.927,5.704 26.651,7.607l20.26,4.367l-0.034,-0.018Z" style="fill:#7ac4af;fill-rule:nonzero;"/><path id="NVOL" d="M4820.095,1067.153c0.871,4.997 -5.405,8.724 -15.424,9.167l-35.564,1.568c-1.015,0.057 -2.059,0.057 -3.136,0.033l-58.204,-1.379l-17.067,6.935l-1.505,6l1.806,1.371l20.812,6.606c11.834,3.75 17.857,10.563 13.774,15.553l-5.191,6.287l11.933,12.573l11.509,14.05c0.715,0.863 1.223,1.739 1.555,2.602l3.614,10.193l54.167,29.571c3.844,2.11 6.465,4.572 7.445,7.034l12.995,32.261l63.436,34.395c3.757,2.043 6.352,4.432 7.431,6.837l20.033,45.072l6.545,5.679l4.822,-1.731c2.989,-1.058 6.796,-1.625 10.996,-1.625l17.2,0c-1.337,-7.321 0.294,-15.773 12.652,-19.943c4.109,-1.387 9.677,-1.838 15.561,-1.247c-1.921,-1.913 -2.883,-3.89 -2.803,-5.753l0.573,-13.599c0.03,-0.492 0.12,-0.969 0.291,-1.444l4.825,-13.591c0.98,-2.807 4.537,-4.981 9.851,-6.008l32.326,-6.27c2.587,-0.492 5.592,-0.664 8.626,-0.64l25.824,0.705l6.432,-7.296l-11.417,-5.925l-36.593,-17.178c-6.181,-2.905 -9.788,-6.697 -9.726,-10.201l0.268,-16.849l-5.311,-15.757l-23.823,-3.413c-4.798,-0.689 -9.444,-2.003 -13.327,-3.776l-11.499,-5.235c-10.646,-4.849 -13.336,-11.901 -6.082,-15.913l20.842,-11.507c1.489,-0.813 3.332,-1.469 5.437,-1.936l30.835,-6.663l23.793,-12.458c3.166,-1.666 7.807,-2.568 13.138,-2.568l20.917,0l-6.489,-8.306l-12.127,-17.152c-4.09,-5.803 1.087,-10.965 12.058,-11.999l17.577,-1.666l17.3,-7.05c2.601,-1.068 5.931,-1.716 9.68,-1.887l37.176,-1.708l40.033,-26.985c-10.493,-1.207 -20.103,-5.417 -23.619,-10.455l-11.986,-17.17c-18.118,-19.811 -25.076,-30.103 -26.052,-36.004c-1.111,-0.542 -2.365,-1.133 -3.631,-1.716l-17.664,-3.126l-12.981,4.505c-5.936,2.045 -14.683,2.076 -23.004,0.091l-34.394,-8.249l-38.543,-1.855c-10.366,-0.5 -20.759,-4.17 -25.652,-9.061l-20.53,-20.508l-35.927,-9.947c-6.838,-1.887 -12.345,-4.948 -15.042,-8.338l-13.961,-17.621l-13.025,-7.814l-28.481,-4.776c-9.65,-1.617 -17.918,-5.655 -20.962,-10.25l-10.495,-15.799l-20.423,-1.609c-7.217,-0.567 -14.402,-2.626 -19.592,-5.621c-5.185,-2.988 -7.818,-6.591 -7.175,-9.807l5.181,-25.474l-21.634,-8.314c-5.233,-2.011 -9.22,-4.711 -11.135,-7.558l-10.316,-15.257l-19.964,-4.318c-12.469,-2.693 -20.994,-9.102 -19.532,-14.658l2.134,-8.125c-4.829,0.378 -10.343,0 -15.82,-1.345l-35.129,-8.625c-2.418,-0.591 -4.707,-1.337 -6.825,-2.208l-5.004,-2.076l-8.692,2.651l-2.617,8.495l-3.083,21.584c-0.304,2.027 -1.846,3.807 -4.489,5.147l-23.32,11.761c-1.512,0.747 -3.336,1.345 -5.384,1.765l-36.327,7.363l-2.028,2.545c2.429,0.41 4.842,0.993 7.209,1.757l14.31,4.613l24.807,2.561c11.266,1.166 21.531,5.818 24.64,11.186l12.722,21.962c0.281,0.485 0.483,0.951 0.623,1.42l6.156,18.826c0.708,2.11 0.165,4.095 -1.58,5.753l-16.283,15.683c-4.397,4.219 -15.497,5.491 -26.684,3.086l-11.935,-2.576l-10.816,7.493l-34.539,20.731c0.077,0.016 0.151,0.033 0.196,0.049l22.677,6.277c2.606,0.715 5.053,1.617 7.213,2.651l8.916,4.243l22.183,5.08c11.632,2.659 19.69,8.543 19.049,13.886l-1.201,9.529c5.055,1.731 9.181,4.128 11.613,6.78l12.927,14.117c1.26,1.371 2.037,2.773 2.26,4.128l1.815,10.382l29.19,13.049c1.464,0.664 2.823,1.379 4.03,2.143l10.339,6.5l24.693,0.5c7.058,0.148 14.475,1.83 20.272,4.587c5.769,2.765 9.261,6.303 9.519,9.644l0.44,6.262l2.599,0.993l12.804,0.41c5.299,-0.427 10.65,-0.928 14.311,-1.314c4.893,-1.781 12.157,-2.281 19.556,-1.174c7.436,1.117 14.351,3.768 18.767,6.977c2.748,1.133 6.281,2.535 9.146,3.636c7.047,2.708 11.675,6.598 12.348,10.366l2.032,11.761l-0.003,-0.012Z" style="fill:#00a17b;fill-rule:nonzero;"/><path id="SLP" d="M4731.556,1181.773c-1.46,1.091 -3.441,1.97 -5.82,2.594l-23.001,5.943l-2.639,11.408l-2.601,16.914c-0.133,0.747 -0.416,1.462 -0.872,2.133l-15.381,22.742c-0.546,0.804 -1.314,1.542 -2.323,2.208l-32.154,21.182c-1.734,1.133 -4.098,2.011 -6.9,2.561l-38.658,7.493l-0.368,7.075c-0.24,4.572 -6.737,7.772 -16.268,8.026l-14.534,0.386l-1.862,12.433c-0.217,1.462 -1.095,2.807 -2.583,3.939l-15.39,11.777c-2.148,1.651 -5.514,2.807 -9.656,3.333l-31.063,3.924c-4.536,0.567 -9.718,0.337 -14.872,-0.624l-3.038,-0.575l-0.472,0.959c-0.23,0.435 -0.512,0.863 -0.877,1.265l5.927,2.783c3.147,1.477 5.691,3.201 7.385,5.038l16.788,18.031c0.991,1.05 1.673,2.117 2.066,3.167l3.507,9.61l32.652,13.008l40.403,13.746c1.078,0.368 2.098,0.754 3.075,1.182l42.192,18.038c1.565,0.666 3.005,1.404 4.3,2.182l8.469,5.163l7.747,-8.265c1.808,-1.92 5.037,-3.341 9.234,-4.061l27.425,-4.702c2.341,-0.402 4.921,-0.591 7.648,-0.526l38.522,0.788c6.838,0.14 14.051,1.731 19.767,4.349l32.424,14.905c5.206,2.397 8.719,5.45 9.724,8.478c1.03,3.037 -0.528,5.795 -4.32,7.674l-9.696,4.81c7.642,6.886 14.278,12.811 15.638,13.928c2.472,1.978 5.616,4.481 16.152,28.716c0.379,0.853 0.554,1.7 0.526,2.511l-0.656,19.13l20.682,7.648l33.567,0c6.06,0 12.549,1.174 18.096,3.266l73.933,27.871l40.896,-1.05c2.22,-2.159 4.218,-4.211 5.476,-5.679c-1.165,-5.45 6.515,-9.504 17.787,-9.504c4.235,0 8.746,0.599 12.977,1.651c4.734,0.689 13.504,1.846 21.731,2.897l25.019,-1.345c9.296,-0.459 19.655,1.92 26.459,6.073l16.883,10.258l51.869,5.629l5.767,-7.501c2.653,-3.447 9.438,-5.49 18.147,-5.072l21.091,0.788c7.14,0.262 14.566,2.076 20.189,4.932l16.92,8.602l13.161,1.109l-0.806,-4.686c-0.551,-3.159 1.788,-5.909 6.421,-7.575l32.846,-11.761c5.604,-2.019 13.953,-2.167 22.012,-0.435c8.116,1.747 14.876,5.163 17.966,9.061l10.919,13.746l15.58,12.795l7.277,4.39l15.174,-0.402c8.05,-0.148 16.963,1.716 23.472,5.098l9.088,4.711l22.509,0.739c3.469,0.114 6.723,0.23 9.805,0.329c-0.467,-2.643 -0.846,-5.704 -1.111,-9.258c-0.384,-5.105 6.812,-8.675 17.43,-8.682l-28.498,-14.001c-8.476,-4.17 -11.473,-9.833 -7.3,-13.861l11.728,-11.276l7.098,-10.045l-6.439,-3.061c-4.154,-1.985 -7.183,-4.408 -8.619,-6.886l-8.178,-14.117c-3.048,-5.261 1.55,-9.848 11.137,-11.121l9.983,-1.337l-1.316,-6c-0.389,-1.731 0.068,-3.348 1.294,-4.727l-2.755,-0.402c-3.608,-0.526 -7.131,-1.395 -10.321,-2.568l-29.86,-10.94l-23.209,-3.784l-19.539,5.647c-4.058,1.166 -9.259,1.501 -14.689,0.951l-94.302,-9.413c-7.03,-0.697 -13.925,-2.807 -18.871,-5.753l-58.71,-35.06l-14.469,-3.882l0.247,3.323c0.218,3.045 -2.275,5.647 -6.903,7.197c-4.611,1.552 -10.988,1.92 -17.61,0.985l-79.341,-10.981c-1.566,-0.213 -3.127,-0.5 -4.662,-0.853l-54.865,-12.549c-7.117,-1.625 -13.176,-4.546 -16.475,-7.952c-3.284,-3.406 -3.443,-6.92 -0.458,-9.561l18.117,-16.012l-6.18,-5.909l-10.092,0c-8.435,0 -17.492,-2.257 -23.702,-5.893l-14.011,-8.223l-17.997,0l-21.721,7.78c-5.095,1.838 -12.479,2.159 -19.95,0.837c-7.482,-1.314 -14.193,-4.095 -18.149,-7.518l-25.424,-21.962c-1.466,-1.272 -2.515,-2.594 -3.112,-3.914l-19.281,-43.374l-63.599,-34.503c-3.895,-2.11 -6.526,-4.587 -7.532,-7.067l-13.01,-32.287l-31.101,-16.981l-2.142,1.633l-0.008,-0Z" style="fill:#00756d;fill-rule:nonzero;"/><path id="CAM" d="M7405.581,1949.793c0.961,0.682 2.072,1.314 2.803,2.06l10.292,10.455c0.865,0.894 1.549,1.814 2.008,2.724l10.609,21.436l8.921,4.711l30.698,6.451l58.193,13.451l11.094,0.871l0.539,-8.011c0.149,-2.24 1.833,-4.201 4.775,-5.629l17.363,-8.371c4.56,-2.19 11.716,-2.905 19.332,-1.905l32.04,4.186c2.012,0.262 4.004,0.64 5.958,1.117l39.626,9.799l39.961,2.322l25.022,2.216c10.189,0.91 19.855,4.727 24.119,9.537l11.544,13.024l14.193,4.81l328.546,-11.645l-101.859,-142.769c-0.203,-0.295 -0.394,-0.591 -0.57,-0.894l-59.708,-106.568l-18.364,-7.057l-114.11,-46.303l-37.318,-14.329l-12.33,-2.289l-14.55,0.386c-4.968,0.049 -10.259,-0.542 -15.2,-1.913l-30.233,-8.371c-1.263,-0.345 -2.488,-0.739 -3.664,-1.166l-13.458,-4.916l-19.066,-0.36c-11.526,-0.213 -23.412,-4.507 -27.991,-10.12l-1.862,-2.265c-2.759,4.268 -5.854,10.439 -2.014,12.425c6.056,3.144 23.628,40.788 23.628,40.788l18.175,31.375l-13.588,9.413l-17.194,17.776l7.902,35.561l-6.927,20.912l-28.679,19.87c0,0 -41.677,15.692 -48.932,17.784c-7.254,2.094 -32.598,24.054 -32.598,24.054l45.918,-8.371l39.263,-12.549l-15.373,20.92l-17.22,10.455c15.126,4.186 18.764,17.776 18.764,17.776c0,0 -14.8,7.321 -17.214,10.465c-2.415,3.136 -29.288,18.818 -29.288,18.818l-20.54,1.05c0,0 -27.221,-3.144 -33.564,-3.144c-6.343,0 -10.855,10.465 -10.855,10.465l-16.022,-2.094l-19.665,-15.692l-51.318,-2.732l-0.012,-0Z" style="fill:#154a3c;fill-rule:nonzero;"/><path id="TLAX" d="M5714.625,1824.383c-0.813,0 -1.656,-0.026 -2.512,-0.065l-30.507,-1.568c-4.928,-0.254 -9.997,-1.239 -14.491,-2.807l-9.226,-3.291l-4.656,3.455l10.266,3.25l11.404,0.656c7.56,0.443 15.265,2.568 20.728,5.746l14.752,8.56l17.68,3.209c1.613,0.288 3.176,0.64 4.702,1.068l41.56,11.507c2.099,0.583 4.112,1.28 5.952,2.076l23.209,10.03l16.558,-8.413c3.393,-1.708 8.324,-2.537 13.972,-2.478l32.097,0.674l0.051,-1.92c0.081,-3.216 3.254,-5.787 8.435,-7.132c-1.279,-0.171 -2.551,-0.394 -3.834,-0.656l-22.812,-4.702c-6.387,-1.314 -12.08,-3.685 -15.798,-6.583l-23.243,-18.088l-21.538,-4.654l-39.645,-0.78l-20.008,10.366c-3.171,1.658 -7.805,2.545 -13.084,2.545l-0.01,-0.004Z" style="fill:#87c7ac;fill-rule:nonzero;"/><path id="TAB" d="M6958.869,2035.663l9.278,2.75c2.874,0.863 5.532,1.928 7.807,3.159l18.82,10.136l40.472,1.83c6.514,0.295 13.215,1.863 18.595,4.333l38.121,17.579l17.73,0l9.586,-5.95l-6.749,-10.447c-0.849,-1.322 -1.253,-2.651 -1.151,-3.906l1.341,-17.776c0.05,-0.829 0.326,-1.617 0.806,-2.364l8.295,-13.075c2.343,-3.693 9.414,-5.876 18.217,-5.549l48.504,1.568c4.656,0.156 9.526,0.969 13.971,2.364l33.548,10.455c6.053,1.879 10.873,4.67 13.368,7.747l7.273,8.889c3.401,4.152 2.099,8.239 -3.366,10.67l-1.696,0.739l3.694,3.48l10.059,10.776l7.408,4.308l29.995,8.42c0.991,0.28 1.963,0.583 2.903,0.912l10.041,3.522l8.126,-11.991l27.44,-32.443c2.19,-2.61 6.968,-4.333 13.112,-4.761l23.408,-1.601l9.171,-5.834c3.047,-1.962 7.916,-3.069 13.649,-3.118l51.316,-0.485l14.044,-3.323c5.482,-1.314 12.638,-1.198 19.567,0.303l21.77,4.711c5.087,1.099 9.655,2.856 13.139,4.999l2.444,0.148c7.72,0.459 15.546,2.675 21.01,5.95l5.573,3.348l10.329,2.011l22.59,1.855c11.191,0.92 21.69,5.344 25.358,10.678l13.329,19.344c0.491,0.731 0.863,1.462 1.081,2.182l32.14,0.575c7.348,0.132 15.119,1.944 20.989,4.883l10.415,5.228c3.365,1.682 5.928,3.644 7.431,5.696l0.863,1.174l14.846,4.046l51.892,-3.815l-7.279,-19.87l-6.077,-25.106l-1.758,-2.175l-23.382,-7.92c-5.276,-1.796 -9.522,-4.284 -11.945,-7.008l-8.164,-9.224l-6.409,-0.575l-43.301,-2.503c-3.245,-0.189 -6.559,-0.689 -9.737,-1.477l-41.481,-10.25l-16.922,-2.216l-5.587,2.708l-0.666,9.628c-0.183,2.553 -2.332,4.743 -6.065,6.181l-9.518,3.66c-3.949,1.519 -9.368,2.11 -15.306,1.633l-26.595,-2.092c-2.641,-0.205 -5.322,-0.617 -7.923,-1.215l-61.053,-14.117l-36.286,-7.617c-4.344,-0.91 -8.385,-2.322 -11.706,-4.071l-19.807,-10.463c-3.776,-1.993 -6.447,-4.341 -7.631,-6.723l-11.685,-23.611l-49.672,0c-12.236,0 -25.058,-4.686 -29.366,-10.719l-15.765,-22.2c-17.037,3.348 -29.543,6.287 -29.543,6.287l-56.775,18.826l-82.214,4.178c0,0 -72.828,2.092 -103.633,7.321c-20.422,3.463 -54.514,11.958 -75.289,17.308l26.615,49.094l0.022,-0.004Z" style="fill:#7ac4af;fill-rule:nonzero;"/><path id="YUC" d="M7623.287,1626.24l34.128,-10.463l-7.834,23.012l-1.776,0.772c3.324,1.666 5.972,3.603 7.484,5.671l9.365,12.728l6.229,5.966c0.144,0.132 0.263,0.254 0.391,0.386l7.823,0.148c5.635,0.098 11.583,1.198 16.761,3.086l19.687,7.189l20.703,5.738l12.233,-0.321c3.395,-0.075 7.091,0.205 10.736,0.878l22.525,4.178c3.09,0.575 6.097,1.412 8.818,2.47l42.192,16.209l123.914,50.071l150.131,-55.382l156.644,-59.993l25.211,-16.201l4.59,-28.757l-20.722,-42.677l-12.873,-19.072l-136.648,-7.083l-68.304,-1.042l-27.491,0l-31.733,7.321l7.867,6.27l31.743,0l-10.267,11.507l-30.812,12.549l-38.06,7.321l7.837,-8.363l10.56,-14.641l-71.307,8.363l-118.141,11.507c0,0 -58.013,9.413 -65.876,10.455c-7.863,1.042 -61.327,14.641 -61.327,14.641l-56.779,33.469l8.18,10.455l14.196,-8.363l0.003,-0.002Z" style="fill:#00756d;fill-rule:nonzero;"/><path id="PUE" d="M6051.857,2006.587c4.465,1.345 8.303,3.185 11.057,5.277l16.574,-15.807c2.739,-2.61 8.163,-4.162 14.859,-4.268l33.546,-0.526c8.811,-0.41 18.765,2.33 25.134,6.336l4.463,2.807l28.615,-10.957l6.296,-12.86l-8.251,-3.356l-12.272,-2.47l-27.972,1.288c-6.05,0.272 -12.782,-0.689 -18.67,-2.683c-5.904,-1.993 -10.48,-4.851 -12.708,-7.92l-6.354,-8.789l-9.065,0.542c-3.706,0.254 -7.925,-0.041 -11.995,-0.788l-30.157,-5.49c-11.27,-2.06 -20.131,-7.296 -21.315,-12.606l-2.956,-13.329c-0.085,-0.435 -0.122,-0.871 -0.121,-1.296l0.631,-23.012l-3.341,-19.09c-0.693,-4.03 3.281,-7.321 10.431,-8.617l16.985,-3.094l-28.767,-4.121c-1.086,-0.156 -2.196,-0.353 -3.274,-0.575l-34.221,-7.057c-9.742,-2.003 -17.528,-6.386 -19.645,-11.072l-4.534,-9.98l-18.439,-13.288c-5.158,-3.719 -6.474,-7.936 -3.483,-11.144l11.845,-12.622l-11.415,-19.705c-1.126,-1.944 -1.233,-3.849 -0.31,-5.549l13.548,-25.129l-7.351,-1.198l-17.282,-0.829l-7.44,6.443c-1.742,1.519 -4.463,2.667 -7.878,3.341l-19.944,3.916c-5.384,1.05 -12.156,0.853 -18.665,-0.583c-6.521,-1.428 -12.204,-3.955 -15.768,-6.985l-6.811,-5.795l-3.258,-0.122c-4.56,-0.189 -9.277,-1.001 -13.596,-2.348l-25.163,-7.845c-6.217,-1.936 -11.115,-4.826 -13.554,-7.977l-18.852,-24.318c-2.989,-3.866 -1.94,-7.648 2.8,-10.071c4.737,-2.429 12.538,-3.144 20.674,-1.913l16.945,2.545l4.1,0l4.516,-3.126l-22.562,-3.644c-8.698,-1.404 -16.428,-4.802 -20.183,-8.905l-9.654,-10.53l-5.894,-0.402l-5.637,3.455l-6.197,16.037c-2.098,5.409 -13.417,7.879 -25.915,5.761l-4.11,-0.705c2.295,2.125 3.731,4.349 3.481,6.435c-0.965,8.281 -7.815,14.166 -13.349,18.883c-3.496,2.996 -6.513,5.58 -7.477,8.125c-0.019,0.049 -0.031,0.091 -0.05,0.14c1.549,0.583 3.416,1.255 5.055,1.848c3.048,1.107 6.393,2.322 10.022,3.717c4.163,1.601 7.553,3.636 9.733,5.852l18.025,18.31c2.507,2.553 3.297,5.204 2.216,7.518l-11.747,26.863l1.084,1.239l34.083,0.664c3.325,0.065 6.782,0.477 10.146,1.207l36.271,7.845c6.181,1.33 11.662,3.652 15.274,6.476l23.068,17.958l6.459,1.322l18.736,-0.788c7.751,-0.321 16.628,1.42 23.248,4.629l20.583,9.939c5.325,2.568 8.697,5.811 9.298,8.946l2.11,10.981c0.976,5.007 -5.209,8.773 -15.184,9.265l-16.783,0.829l-0.094,3.077c-0.146,5.023 -7.832,8.462 -18.462,8.166l-41.61,-0.871l-18.461,9.372c-3.184,1.609 -7.755,2.488 -12.986,2.488c-0.53,0 -1.1,-0.008 -1.661,-0.033l-15.114,-0.526c-6.315,-0.213 -12.892,-1.649 -18.249,-3.963l-31.1,-13.451l-36.098,-9.988l-23.594,-4.276c-0.758,-0.132 -1.423,-0.394 -2.168,-0.565l8.663,18.621l16.706,26.171c0.054,0.065 0.061,0.132 0.103,0.205c0.243,0.42 0.401,0.837 0.559,1.255c0.118,0.321 0.276,0.648 0.342,0.961c0.082,0.368 0.041,0.731 0.039,1.099c0,0.345 0.017,0.689 -0.06,1.018c-0.076,0.329 -0.243,0.64 -0.372,0.961c-0.162,0.353 -0.309,0.697 -0.553,1.026c-0.09,0.106 -0.098,0.23 -0.187,0.337l-6.245,7.591l0.383,0.861l16.749,8.822c7.381,3.89 10.184,8.929 7.094,12.762l-3.71,4.546l13.076,14.264c1.458,1.601 2.254,3.258 2.334,4.834l0.608,15.692c0.138,3.216 -2.789,5.901 -7.992,7.353c-5.234,1.454 -12.223,1.542 -19.158,0.23l-16.606,-3.136c-2.012,-0.378 -3.948,-0.853 -5.812,-1.436c1.181,4.564 -3.543,8.273 -12.079,9.356l-9.287,1.19l9.548,2.438c5.866,1.501 10.91,3.874 14.131,6.656l9.189,7.954l40.254,3.833c6.043,0.575 12.01,2.19 16.78,4.522l11.819,5.787l39.893,3.815c5.114,0.492 10.234,1.731 14.584,3.538l14.341,5.958c3.975,-1.962 10.037,-2.791 16.945,-2.242l-0.603,-8.208c-0.332,-4.473 5.174,-7.837 13.951,-8.56l32.334,-2.618c2.27,-0.181 4.692,-0.181 7.14,0l28.709,2.102c3.879,0.28 7.819,1.001 11.481,2.11l1.328,0.402l-10.041,-17.333c-1.492,-2.576 -1.202,-5.08 0.868,-7.099l17.499,-17.251c3.345,-3.283 10.814,-4.916 19.59,-4.211l13.301,1.042c12.399,0.969 23.843,6.254 26.374,12.171l6.235,14.601l17,5.129l0.013,-0.006Z" style="fill:#00756d;fill-rule:nonzero;"/><path id="EDOMEX" d="M5473.002,1825.055l15.058,-21.897c2.793,-4.03 11.168,-6.08 21.224,-5.145l11.178,1.042c6.194,0.575 12.364,2.257 17.189,4.686l55.18,27.708l25.848,14.158c3.498,1.913 5.982,4.136 7.127,6.368l8.33,16.216c0.273,0.526 0.477,1.05 0.598,1.576l2.281,9.874l28.904,12.557l1.199,-0.049l-10.133,-15.889c-0.222,-0.329 -0.396,-0.656 -0.57,-0.985l-16.54,-35.602l-15.559,-4.932c-5.453,-1.731 -9.91,-4.211 -12.514,-6.959l-8.172,-8.633c-3.414,-3.603 -3.334,-7.304 0.262,-9.955l16.257,-12.09l-1.341,-1.337l-19.074,-6.591l-8.912,-0.969l-12.382,9.315c-3.347,2.503 -9.434,3.833 -16.496,3.561c-7.104,-0.254 -14.494,-2.035 -20.13,-4.859l-15.653,-7.845c-3.854,-1.928 -6.648,-4.227 -8.013,-6.583l-7.208,-12.443l-3.64,-0.321l-23.604,0.92l-3.845,13.969c-1.331,4.753 -9.745,7.568 -20.442,6.894l-24.698,-1.568c-8.429,-0.534 -16.862,-3.144 -22.229,-6.853l-42.404,-29.128l-27.707,0c-5.63,0 -11.641,-1.008 -16.937,-2.84l-19.346,-6.689l-0.368,0.829c-0.364,0.829 -0.944,1.609 -1.752,2.307l-22.452,19.622l-5.75,34.182c-0.115,0.689 -0.384,1.345 -0.779,1.978l-12.853,19.795l6.607,18.655l6.049,21.592c0.266,0.92 0.29,1.822 0.071,2.675l-3.378,13.345c-0.308,1.215 -1.093,2.33 -2.295,3.315l-5.691,4.564l4.721,8.151c2.054,3.545 0.663,6.902 -3.791,9.076l-23.846,11.678c6.283,1.905 11.603,4.727 14.123,8.099l11.078,14.798l33.925,13.542c1.378,0.542 2.648,1.133 3.827,1.765l16.272,8.749l7.772,-9.825c2.234,-2.823 7.386,-4.645 14.048,-4.981l66.268,-3.299l7.711,-17.867c1.86,-4.3 9.933,-6.754 19.676,-6.27l43.312,2.151l-5.31,-15.618c-0.537,-1.56 -0.395,-3.061 0.414,-4.416l11.622,-19.541l-17.656,-12.886c-1.637,-1.19 -2.9,-2.454 -3.757,-3.735l-8.921,-13.599c-1.673,-2.545 -1.602,-5.056 0.204,-7.124l17.801,-20.394l0.011,0.006Z" style="fill:#7ac4af;fill-rule:nonzero;"/><path id="GTO" d="M4762.078,1699.044l-1.993,4.152l11.535,2.175c5.091,0.961 9.836,2.618 13.555,4.711l20.128,11.334l13.769,-0.303l16.257,-10.398c3.624,-2.314 9.853,-3.398 16.722,-3.061l29.468,1.576c9.15,0.492 18.364,3.447 23.742,7.599l20.189,15.683c0.52,0.41 0.984,0.812 1.422,1.223l14.619,13.977l1.829,0.262l19.029,-8.446c3.592,-1.592 8.611,-2.33 14.295,-2.092l37.38,1.568c8.791,0.36 17.789,3.053 23.407,6.967l11.994,8.379l57.648,1.822l47.793,-2.783l35.835,-10.357l-28.57,-6.992c-3.405,-0.837 -6.592,-1.978 -9.347,-3.356l-46.951,-23.53c-2.993,-1.501 -5.376,-3.234 -6.929,-5.056l-15.916,-18.761l-21.377,-6.524c-9.299,-2.84 -15.448,-7.698 -15.544,-12.246l-0.225,-14.117c-0.022,-1.469 0.562,-2.84 1.793,-4.038l15.14,-14.905c2.956,-2.89 8.759,-4.481 16.648,-4.357l25.352,0.516l1.312,-1.69c2.186,-2.815 7.228,-4.662 13.836,-5.031l27.969,-1.584l4.488,-21.773c0.955,-4.515 8.188,-7.648 18.102,-7.296l24.357,0.353c-0.702,-0.723 -1.281,-1.469 -1.723,-2.232l-6.813,-11.761c-0.2,-0.345 -0.123,-0.674 -0.259,-1.018l-54.062,-5.86c-7.001,-0.764 -13.794,-2.89 -18.615,-5.826l-13.2,-8.026l-14.069,0.762c-2.818,0.122 -5.73,0.026 -8.75,-0.345c-5.141,-0.648 -9.897,-1.239 -14.247,-1.814c-2.373,2.438 -5.335,5.178 -8.873,8.33c-2.739,2.438 -7.881,3.906 -14.208,4.071l-60.979,1.568c-6.572,0.148 -13.319,-1.01 -19.266,-3.25l-74.569,-28.109l-33.4,0c-5.945,0 -12.346,-1.14 -17.82,-3.167l-24.592,-9.094l-4.639,2.11l2.852,2.372c2.098,1.757 3.402,3.61 3.792,5.425l1.83,8.633c0.547,2.519 -0.752,4.81 -3.648,6.516l-17.027,10.038l1.5,9.783l11.08,16.602c3.505,5.245 -0.567,9.971 -9.872,11.473l-13.884,2.257l3.689,6.368c2.244,3.874 0.383,7.485 -4.964,9.602l-27.372,10.867l-13.784,12.088l3.364,16.496l7.621,9.462l17.31,8.56c8.949,4.416 11.657,10.439 6.538,14.436l-11.707,9.076l0.011,0.006Z" style="fill:#006b60;fill-rule:nonzero;"/><path id="VER" d="M5914.025,1648.202c-0.925,-5.235 -45.676,-24.054 -45.676,-24.054l-59.254,-21.962c0,0 -17.557,-15.692 -36.612,-30.333c-19.055,-14.641 -64.113,-44.966 -64.113,-44.966l-15.147,-26.148l79.517,31.375l29.338,17.776l3.652,20.92l13.311,8.363l19.619,-13.591l-4.246,-14.641c0,0 -37.793,-17.784 -81.046,-37.655c-27.127,-12.466 -61.882,-32.344 -84.018,-45.425c-12.183,0.951 -24.434,1.928 -36.466,2.905c-1.143,0.091 -2.298,0.132 -3.478,0.132c-6.526,0 -13.602,-1.355 -19.444,-3.792c-12.873,-5.344 -37.309,-13.969 -48.876,-15.478c-6.768,-0.878 -13.22,-3.02 -17.794,-5.901l-8.464,-5.326l-7.509,-1.215l-1.461,3.413c-2.194,4.981 -12.345,7.459 -24.034,5.852l-21.617,-2.955l-3.762,1.985l4.956,1.822l37.818,5.474c12.469,1.806 22.613,7.625 23.354,13.41l0.917,7.057c0.461,3.603 -2.819,6.598 -8.826,8.06l-9.398,2.257l1.619,7.239c0.987,4.455 -3.681,8.034 -11.93,9.126l-7.256,0.969l0.775,1.337l13.342,6.352c7.993,3.825 11.412,9.011 8.567,13.041l-12.215,17.258c-0.266,0.345 -0.553,0.682 -0.893,1.01l-5.16,4.966l25.545,12.549c2.394,1.182 4.411,2.511 5.942,3.924l13.001,11.982l18.397,14.075l4.189,0.697l9.661,-4.3c5.119,-2.257 13.068,-2.773 21.247,-1.322c8.146,1.42 15.328,4.595 19.085,8.413l10.84,11.03l13.163,3.636c10.099,2.791 16.919,8.003 16.783,12.836l-0.38,14.387l5.966,12.762c0.571,1.247 0.734,2.47 0.476,3.628l-2.717,11.761c-1.336,5.72 -12.699,8.568 -25.543,6.541l-22.454,-3.595c-0.045,0.122 -0.084,0.254 -0.153,0.368c2.494,1.265 4.613,2.716 6.172,4.292c11.091,11.292 6.443,15.594 4.927,17.014c-1.892,1.747 -4.894,3.045 -8.624,3.8c-0.641,0.386 -1.406,0.894 -2.239,1.493l3.774,3.077l2.472,0.368l17.938,-6.663l22.409,-15.535c1.165,-0.796 2.63,-1.477 4.345,-2.011l20.158,-6.27c5.005,-1.56 11.922,-1.773 18.886,-0.583l0.68,0.114l3.289,-8.478c0.509,-1.33 1.608,-2.527 3.239,-3.522l14.049,-8.617c3.767,-2.322 10.093,-3.382 17.247,-2.897l34.696,2.348c10.422,0.713 20.558,4.538 25.081,9.478l11.176,12.188l29.649,4.784c8.584,1.379 16.208,4.711 20.015,8.732l8.172,8.633c3.507,3.701 3.297,7.501 -0.521,10.16l-19.256,13.329c-3.105,2.151 -8.311,3.364 -14.454,3.364l-10.343,0l2.845,3.652l8.817,2.758l12.525,0.5c9.555,0.386 19.289,3.496 24.716,7.879l6.335,-5.482c3.279,-2.848 9.876,-4.3 17.623,-3.939l32.651,1.568c1.977,0.091 3.993,0.303 5.991,0.624l38.526,6.27c7.04,1.148 13.498,3.61 17.69,6.754c4.212,3.144 5.723,6.64 4.133,9.569l-18.502,34.288l11.914,20.567c1.435,2.478 1.213,4.901 -0.641,6.886l-9.874,10.522l13.477,9.709c2.192,1.576 3.722,3.276 4.491,4.973l2.178,4.792l16.479,3.398l28.86,4.136l27.148,1.444c10.84,0.575 21.571,4.595 26.066,9.776l9.533,10.981c4.144,4.802 2.024,9.512 -5.335,11.769l-25.604,7.845c-0.945,0.288 -1.966,0.534 -3.063,0.731l-9.969,1.822l2.283,13.083c0.053,0.353 0.089,0.697 0.074,1.042l-0.622,22.882l0.803,3.595l4.646,0.853l20.288,-1.231c9.863,-0.567 21.428,2.257 28.167,6.985l13.369,9.405c1.323,0.936 2.423,1.92 3.286,2.921l10.604,-0.492l-15.807,-12.246c-7.702,-5.984 -5.147,-12.523 5.724,-14.625c10.935,-2.102 25.936,1.042 33.627,7.008l2.375,1.838c1.307,-0.033 2.626,-0.083 4.021,0.008l26.308,1.568c2.34,0.14 4.719,0.435 7.06,0.894l48.284,9.413c2.321,0.451 4.613,1.058 6.745,1.788l71.213,24.318c2.322,0.796 4.494,1.739 6.366,2.791l52.716,29.39l47.239,-1.215c4.178,-0.098 8.535,0.345 12.818,1.322l31.066,7.057c6.574,1.493 12.265,4.095 15.71,7.174l13.16,11.769c3.31,2.962 4.259,6.122 2.655,8.765l-7.519,12.352l-1.92,15.799l14.367,12.023l21.275,8.871l6.327,-0.715l20.614,-5.194l28.784,-14.765c0.669,-0.337 1.386,-0.648 2.184,-0.928l22.417,-7.845c6.902,-2.413 17.526,-2.045 26.782,0.928l19.501,6.27c9.182,2.955 15.07,7.871 14.823,12.376l-0.356,7.034l11.374,5.507l32.13,9.094l20.954,6.624l14.212,0c10.873,0 22.451,3.735 27.839,8.97l5.62,5.458l259.478,4.276l18.471,-7.518l-2.663,-7.231l-16.434,-13.754l-35.568,-16.406l-41.937,-1.897c-7.362,-0.329 -14.936,-2.281 -20.529,-5.293l-24.209,-13.049l-16.738,-4.966c-7.403,-2.208 -13.027,-5.753 -15.058,-9.488l-26.446,-48.775c-20.637,1.001 -47.977,2.348 -58.861,2.962c-18.437,1.042 -55.029,-14.641 -55.029,-14.641l-57.152,-29.283l-49.56,-5.228l-33.261,-13.599c0,0 -59.537,3.144 -119.988,-6.27c-60.452,-9.413 -133.022,-39.746 -133.022,-39.746l-34.168,-11.499l-51.995,-16.734l-47.784,-24.054l-57.484,-48.11l-61.997,-37.647l-147.263,-60.658l-39.626,-20.92c0,0 -26.898,-13.591 -27.818,-18.818l-0.026,0.004Z" style="fill:#0d534d;fill-rule:nonzero;"/><path id="CDMX" d="M5518.893,1837.842l-15.485,17.776l5.097,7.739l15.385,11.227l31.721,4.776l23.256,0l10.189,-3.561l-2.109,-9.143l-6.151,-11.966l-19.46,-10.67l-34.687,-17.408l-7.756,11.227l0.001,0.002Z" style="fill:#00577c;fill-rule:nonzero;"/><path id="COL" d="M4520.382,1977.632l41.808,11.989l9.497,-19c0.588,-1.166 1.632,-2.224 3.1,-3.102l26.087,-15.781l11.7,-26.057l-21.161,-14.322c-1.452,0.156 -2.872,0.345 -4.482,0.345c-0.865,0 -1.724,-0.026 -2.611,-0.065c-13.843,-0.739 -27.693,-4.702 -38.039,-8.462l-2.672,2.265c-4.21,3.538 -13.483,4.841 -23.374,3.242l-24.49,-3.931c-4.971,-0.788 -9.686,-2.249 -13.576,-4.178l-26.766,-13.337c-3.874,-1.928 -6.689,-4.243 -8.063,-6.614l-13.63,-23.53l-7.386,-10.743l-12.23,-5.753l-15.242,0.368l-18.337,6.401c-3.749,1.322 -8.758,1.822 -14.173,1.469l-35.183,-2.389l-24.806,14.526c-3.334,1.954 -8.141,3.086 -14.536,2.88l-44.881,-0.788l-41.022,-1.954l-11.098,5.458c17.112,3.177 34.394,6.557 49.582,11.022c9.002,2.643 17.412,8.166 25.913,10.227c19.431,4.711 38.725,2.568 58.418,6.762c14.826,3.151 33.076,9.126 47.742,13.065c19.84,5.334 39.195,11.834 58.622,17.686l22.693,20.92l36.571,8.363l26.028,23.012l-0.002,0.004Z" style="fill:#19b1a1;fill-rule:nonzero;"/><path id="GRO" d="M5914.777,2248.972l0.235,-7.477c0.129,-3.333 3.572,-6.015 9.359,-7.311l12.789,-2.856l-0.583,-2.61c-0.104,-0.469 -0.139,-0.928 -0.122,-1.387l0.299,-6.795c0.211,-4.595 6.697,-7.814 16.239,-8.076l21.23,-0.575l-0.714,-5.621c-0.35,-2.667 1.364,-5.038 4.839,-6.689l15.108,-7.132l3.694,-3.053l-9.855,-7.871c-2.122,-1.682 -3.478,-3.48 -3.997,-5.235l-2.573,-8.913l-1.517,-1.469l-40.35,-7.156c-4.088,-0.723 -8.004,-1.897 -11.372,-3.413l-37.201,-16.734c-3.615,-1.625 -6.476,-3.587 -8.277,-5.663l-12.221,-14.247l-15.269,-12.72c-1.297,-1.091 -2.3,-2.224 -2.961,-3.364l-8.781,-15.159c-0.499,-0.861 -0.815,-1.723 -0.897,-2.553l-2.156,-18.31l-0.015,-8.535c-1.105,-0.36 -2.284,-0.648 -3.312,-1.075l-19.738,-8.198l-41.389,-3.955c-6.027,-0.575 -12.026,-2.19 -16.764,-4.522l-11.819,-5.787l-45.473,-4.333c-8.977,-0.853 -17.593,-3.973 -22.345,-8.084l-11.942,-10.325l-25.64,-6.549c-7.699,-1.97 -13.863,-5.417 -16.47,-9.2l-5,-7.311l-12.029,-7.099l-28.166,-0.36c-8.293,-0.098 -17.102,-2.356 -23.15,-5.917l-22.046,-13.008l-20.873,-6.368c-4.34,-1.33 -8.108,-3.136 -10.852,-5.204l-6.976,-5.253l-35.758,-1.601l-7.077,16.382c-1.53,3.522 -7.144,5.893 -14.837,6.287l-68.143,3.39l-15.704,19.86c-2.524,3.209 -8.294,5.285 -16.652,5.038c-7.854,-0.057 -16.239,-2.068 -22.325,-5.326l-41.986,-22.586l-39.215,-15.651c-4.747,-1.887 -8.396,-4.349 -10.374,-6.959l-5.51,-7.394l-2.737,5.909l16.255,13.246l29.65,14.133c4.154,1.985 7.182,4.406 8.619,6.886l3.636,6.277c1.973,3.406 0.786,6.632 -3.234,8.806c-4.031,2.182 -10.434,3.11 -17.61,2.47l-18.36,-1.576c-3.474,-0.295 -6.989,-0.943 -10.299,-1.905l-25.186,-7.313l-52.943,0c-12.817,0 -26.168,-5.137 -29.834,-11.466l-1.046,-1.806l-23.696,5.375c-3.012,0.674 -6.593,0.943 -10.301,0.788l-55.299,-2.348c-2.861,-0.124 -5.795,-0.492 -8.673,-1.099l-44.933,-9.421l-4.061,0.329l4.284,8.682c0.466,0.977 0.691,1.936 0.656,2.88l-0.454,10.193c-0.113,2.24 -1.724,4.219 -4.64,5.663l-33.306,16.471c-2.28,1.14 -5.323,1.905 -8.799,2.232l-17.482,1.658l1.936,6.663l18.617,21.306l25.517,0.402l101.29,32.427l42.323,7.321l15.428,15.683l39.303,9.413c0,0 77.399,24.054 83.742,24.054c6.343,0 92.2,16.734 92.2,16.734c0,0 94.406,10.398 94.906,10.455c34.277,3.776 72.245,22.921 102.362,32.64c41.258,13.303 98.021,14.231 137.342,12.326l41.427,9.413l39.594,6.277l38.066,0l64.989,6.27l46.864,18.826l20.515,6.754l0.007,0.006Z" style="fill:#006b60;fill-rule:nonzero;"/><path id="MICH" d="M4864.866,2020.325c-0.938,-1.075 -1.579,-2.182 -1.908,-3.266l-4.777,-16.472c-1.423,-4.891 3.91,-8.781 13.214,-9.659l27.775,-2.633l25.327,-12.533l0.234,-5.326l-8.157,-16.571c-2.675,-5.45 2.884,-9.98 13.304,-10.825l28.768,-2.356c4.419,-0.37 9.454,-0.016 14.274,1.001l48.035,10.071l45.238,1.92l47.331,-10.719c6.298,-1.454 14.682,-1.018 22.304,1.107c7.642,2.133 13.543,5.696 15.753,9.512l4.264,7.361l33.053,0l-19.164,-15.633c-3.555,-2.897 -4.842,-6.041 -3.602,-8.741l11.967,-25.886c0.015,-0.057 0.099,-0.091 0.118,-0.14c0.427,-0.837 1.087,-1.617 2.015,-2.34c0.226,-0.181 0.523,-0.329 0.79,-0.5c0.415,-0.288 0.805,-0.591 1.315,-0.853l36.227,-17.735l-4.008,-6.92c-1.64,-2.83 -1.084,-5.564 1.531,-7.674l7.922,-6.36l2.553,-10.209l-5.518,-19.787l-7.379,-20.764c-0.562,-1.658 -0.389,-3.25 0.525,-4.678l13.638,-21.019l4.115,-24.507c-2.588,-0.485 -5.13,-1.091 -7.503,-1.92l-3.185,-1.117l-36.916,10.644c-2.076,0.599 -4.462,0.985 -7.081,1.133l-53.716,3.136c-0.847,0.057 -1.729,0.083 -2.59,0.083c-0.498,0 -1.017,-0.008 -1.525,-0.026l-74.344,-2.356c-8.911,-0.28 -18.182,-2.988 -23.92,-6.992l-12.199,-8.535l-14.375,-0.599l-20.957,9.307c-4.737,2.084 -11.981,2.675 -19.471,1.609l-27.651,-3.914c-8.568,-1.207 -16.393,-4.398 -20.539,-8.371l-20.684,-19.77l-10.662,-8.288l-3.496,-0.189l-15.119,9.693c-2.933,1.897 -7.603,3.012 -13.098,3.126l-36.051,0.788c-8.766,0.171 -17.774,-1.995 -24.23,-5.629l-24.911,-14.026l-23.246,-4.39l-80.931,4.645l-9.14,7.091c-2.765,2.133 -7.486,3.439 -13.24,3.652l-62.002,2.299l-33.755,4.03l-5.8,18.442l0.395,0.083l42.934,-0.682c2.744,-0.132 5.772,0.163 8.729,0.624l40.124,6.277c7.634,1.198 14.581,3.939 18.799,7.402c4.203,3.473 5.141,7.239 2.509,10.177l-10.015,11.227l24.34,13.936c4.36,2.486 6.959,5.425 7.326,8.231l0.293,2.314l17.889,-0.557c8.543,-0.213 18.192,1.913 24.768,5.671l16.561,9.413c5.345,3.037 8.05,6.73 7.31,10.012c-0.746,3.266 -4.826,5.769 -11.092,6.762l-13.364,2.117l0.349,16.595c0.113,5.409 -8.36,8.871 -19.894,8.355l-33.553,-1.666l-9.575,11.038c-1.814,2.11 -5.344,3.644 -9.959,4.357l-16.523,2.545l39.003,26.378c4.671,3.159 6.565,6.78 5.18,9.856l-14.749,32.803c-0.561,1.239 -1.635,2.364 -3.185,3.299l-26.227,15.856l-7.772,15.561l104.226,14.454l40.516,11.507l64.37,5.228l61.222,8.363l-15.682,-17.958l0.006,0.004Z" style="fill:#0d534d;fill-rule:nonzero;"/><path id="JAL" d="M4140.515,1856.004l32.203,-15.822c3.661,-1.788 9.067,-2.602 15.153,-2.33l48.961,2.356l34,0.575l25.637,-15.011c3.824,-2.224 10.121,-3.216 17.036,-2.773l37.876,2.568l16.632,-5.795c2.673,-0.943 6.017,-1.477 9.718,-1.568l32.84,-0.796c7.759,-0.189 15.794,1.501 22.139,4.489l28.36,13.337c3.905,1.838 6.846,4.054 8.434,6.36l10.212,14.905l11.903,20.493l15.34,7.477l0.476,-0.41c2.328,-1.944 6.265,-3.258 11.137,-3.727l16.555,-1.568c7.95,-0.747 17.215,0.804 24.406,4.014c0.024,-0.041 0.114,-0.065 0.138,-0.106c0.593,-0.985 1.594,-1.863 2.879,-2.651c0.222,-0.132 0.435,-0.254 0.661,-0.378c1.207,-0.64 2.567,-1.215 4.255,-1.651c0.218,-0.049 0.471,-0.075 0.71,-0.122c0.101,-0.026 0.156,-0.075 0.274,-0.098l18.35,-3.916c0.559,-0.122 1.145,-0.23 1.754,-0.329l13.248,-2.035l11.439,-13.213c2.909,-3.348 9.816,-5.147 18.505,-4.735l27.275,1.345l-0.259,-12.573l-14.636,-1.454c-6.399,-0.64 -12.74,-2.446 -17.568,-5.023c-4.827,-2.568 -7.75,-5.696 -8.133,-8.682l-1.258,-9.766l-28.862,-16.522c-6.875,-3.931 -9.178,-8.822 -5.904,-12.482l4.231,-4.761l-3.194,-0.5l-44.472,0.723c-3.761,0.041 -7.863,-0.36 -11.808,-1.207l-29.016,-6.27c-12.661,-2.742 -21.22,-9.291 -19.465,-14.887l10.593,-33.731c1.047,-3.323 5.62,-5.746 12.311,-6.549l45.994,-5.49c1.071,-0.132 2.168,-0.213 3.291,-0.254l54.742,-2.019l8.839,-6.868c2.593,-2.003 6.911,-3.291 12.204,-3.61l83.523,-4.841l5.307,-11.046c0.426,-0.894 1.125,-1.723 2.076,-2.462l4.304,-3.348l-6.849,-3.398c-3.224,-1.584 -5.729,-3.439 -7.302,-5.383l-11.365,-14.117c-0.899,-1.125 -1.475,-2.257 -1.702,-3.364l-4.313,-21.174c-0.412,-1.97 0.301,-3.807 2.032,-5.344l17.892,-15.685c0.946,-0.829 2.207,-1.576 3.741,-2.167l21.107,-8.387l-5.035,-8.692c-2.929,-5.056 1.207,-9.519 10.174,-10.981l13.202,-2.143l-6.094,-9.118c-0.64,-0.961 -1.045,-1.92 -1.172,-2.856l-2.291,-14.905c-0.365,-2.405 0.917,-4.58 3.689,-6.212l16.832,-9.921l-0.421,-1.985l-9.037,-7.518c-3.062,-2.535 -4.165,-5.155 -3.668,-7.508l-35.793,-7.508c-0.621,-0.122 -1.231,-0.262 -1.853,-0.42c-8.521,-2.102 -15.757,-3.898 -22.109,-5.523l-1.535,1.395c-0.615,0.542 -1.332,1.05 -2.191,1.493l-25.786,13.804l-17.707,23.652c-2.203,2.931 -7.496,4.826 -14.408,5.129l-35.58,1.568c-0.652,0.024 -1.323,0.041 -1.984,0.041c-4.996,0 -10.354,-0.796 -15.256,-2.291l-36.321,-11.087l-29.438,-6.14l-10.752,4.219l25.77,8.151c6.865,2.167 12.083,5.499 14.121,9.019l14.995,25.886c3.552,6.132 -3.286,11.178 -15.512,11.45l-19.183,0.443l-0.232,1.436c-0.695,4.448 -7.426,7.443 -16.926,7.55l-54.701,0.575l6.019,21.822c0.845,3.061 -0.954,5.803 -4.988,7.607c-4.018,1.806 -9.953,2.503 -16.428,1.985l-56.668,-4.711c-3.578,-0.303 -7.192,-0.977 -10.572,-1.97l-21.488,-6.287l-44.342,-3.496c-4.508,-0.36 -9.071,-1.304 -13.17,-2.734l-9.645,-3.382l-29.268,0c-6.773,0 -14.043,-1.462 -19.93,-3.996c-5.877,-2.553 -9.766,-5.909 -10.65,-9.216l-2.717,-10.193c-0.442,-1.651 -0.128,-3.226 0.946,-4.613l7.501,-9.776l-4.063,-3.603c-1.1,-0.985 -1.967,-1.993 -2.557,-3.012l-4.093,-7.065c-1.84,-3.177 -0.93,-6.22 2.528,-8.387c3.454,-2.175 9.231,-3.323 15.683,-3.045l28.288,0.977l0.915,-3.579l-8.681,-14.985c-1.455,-2.511 -1.206,-4.95 0.707,-6.951l30.49,-32.082c2.272,-2.413 6.782,-4.022 12.591,-4.455l32.726,-2.511l3.879,-3.421l-7.117,-10.366c-1.08,-1.576 -1.495,-3.151 -1.219,-4.629l0.735,-4.144l-13.558,-0.853c-5.071,-0.329 -10.014,-1.379 -14.27,-2.913l3.707,7.83c2.83,6 -4.302,10.711 -16.264,10.867l1.088,4.546c1.217,5.08 -4.896,8.97 -14.941,9.512l-29.225,1.568c-3.086,0.148 -6.318,0.008 -9.613,-0.459l-27.657,-3.924c-12.399,-1.747 -22.552,-7.493 -23.488,-13.262l-3.66,-22.742c-0.162,-1.05 -0.03,-2.06 0.419,-3.004l6.988,-14.534c-0.422,0.049 -0.828,0.091 -1.192,0.122c-19.167,1.592 -39.597,-8.091 -48.728,-15.084c-0.236,-0.181 -0.451,-0.353 -0.687,-0.526c0.215,0.599 0.378,1.223 0.471,1.846c0.971,6.435 -3.211,10.276 -6.01,12.811c-1.188,1.099 -2.067,1.879 -2.498,2.765c-0.793,1.609 -0.524,3.882 -0.21,6.516c0.718,6.254 1.74,14.814 -12.014,21.099c-14.403,6.575 -36.516,6.829 -54.419,6.992l-1.407,3.735l9.437,10.128l36.066,11.391c5.088,1.617 9.3,3.874 11.98,6.409l14.08,13.329c1.479,1.404 2.456,2.864 2.869,4.292l7.185,25.417l40.575,12.385c7.445,2.273 12.997,5.901 14.862,9.693l8.399,17.251l6.614,17.038c0.928,2.372 0.298,4.613 -1.813,6.409l-20.156,17.251l-10.242,10.636l1.73,8.633l13.936,21.477c3.036,4.67 0.084,8.97 -7.462,10.875l-12.443,3.136c-7.689,1.913 -18.475,0.977 -27.204,-2.372l-31.592,-12.147l-32.242,-4.645c-6.502,-0.936 -12.644,-3.029 -17.075,-5.803l-26.793,-16.849l-22.544,-4.645l-4.525,-0.329l-4.903,4.432c-2.898,2.618 -8.533,4.128 -15.422,4.128l-28.24,0l-8.477,1.412l-14.394,19.287c-2.5,3.333 -8.469,5.409 -17.053,5.178l-9.067,-0.122l5.671,4.087l-6.328,14.641l-35.37,1.042l-32.013,3.144l-18.739,11.499l39.943,25.106l13.009,18.818l54.133,31.375l83.164,30.333l78.914,37.647c0,0 25.371,5.137 44.916,9.102l-0.01,-0.004Z" style="fill:#00577c;fill-rule:nonzero;"/><path id="QROO" d="M8484.18,1553.033l-76.827,-37.655l-52.589,-10.455l-13.889,5.228l-36.87,2.092l-6.938,6.277l40.793,1.042l27.2,3.136l5.453,9.413l-30.51,2.094l-32.761,-0.617l11.341,16.799c0.257,0.36 0.467,0.723 0.623,1.075l21.837,44.974c0.555,1.158 0.754,2.307 0.59,3.398l-5.237,32.943c-0.282,1.666 -1.404,3.167 -3.302,4.39l-29.304,18.826c-0.785,0.508 -1.703,0.959 -2.748,1.363l-158.429,60.658l-154.174,56.89l58.611,104.59l21.478,29.882l81.534,114.415l60.65,2.988l-7.877,-13.599l19.628,-6.27c0,0 41.713,6.27 49.576,5.228c7.858,-1.05 14.483,-11.507 14.483,-11.507l-3.044,-19.87l15.092,-10.455l11.761,-19.878l6.333,-14.633l19.624,-6.277l-7.877,-13.599l26.904,-1.042l22.064,-2.092c0,0 -7.576,-9.413 -22.386,-9.413l-21.158,-7.321l20.826,-18.818l18.447,13.591l25.977,-13.591l6.056,10.455l8.793,18.818l-9.03,20.92l10.901,11.507l27.174,-4.186l21.491,11.507l16.043,24.056l13.889,2.084l17.195,-32.417l-5.483,-24.054l-8.497,-29.283l2.087,-21.962l6.937,-13.591l-3.044,-19.87l-12.426,-17.784l-19.608,20.92l-25.067,4.186l-4.266,-14.641l8.452,-14.641l39.867,-11.507l-5.459,-16.734l-15.122,-4.186l-21.118,14.641l-40.209,0l-25.107,-17.776l38.976,-2.094l13.899,-12.549l-7.278,-19.868l-8.513,-29.283l32.568,-53.337l46.498,-36.603l0.876,-24.054l-13.633,-19.868l-2.736,-23.004l-0.014,-0.004Z" style="fill:#19b1a1;fill-rule:nonzero;"/><path id="SIN" d="M3448.042,1338.14c17.502,7.715 41.247,9.791 60.497,15.882c20.814,6.583 40.102,16.185 58.848,24.211c21.818,9.348 43.633,18.696 65.45,28.042l10.883,-1.387c2.515,-0.329 5.266,-0.394 8.129,-0.238l47.102,2.675l-0.076,-0.041c-1.598,-0.894 -3.004,-1.863 -4.158,-2.88l-19.508,-17.258c-3.994,-3.538 -4.603,-7.313 -1.623,-10.168l9.265,-8.938l-4.05,-8.938c-1.037,-2.307 -0.617,-4.505 1.177,-6.311l-20.139,-1.207c-5.95,-0.353 -11.985,-1.747 -17.004,-3.906l-25.402,-10.981c-3.348,-1.454 -6.075,-3.175 -7.978,-5.031l-16.562,-16.266l-30.369,-17.258l-27.045,-14.56c-4.272,-2.299 -7.055,-5.046 -7.838,-7.739l-1.989,-6.845l-16.582,-8.996c-3.627,-1.962 -6.18,-4.251 -7.326,-6.573l-8.856,-18.038c-0.343,-0.682 -0.547,-1.371 -0.635,-2.045l-1.604,-13.484l-29.341,-19.583l-39.387,-11.621l-21.117,-4.046l-1.036,0.845c-0.744,0.607 -1.626,1.148 -2.672,1.633l-18.805,8.633c-4.986,2.281 -12.877,2.848 -20.985,1.485l-28.123,-4.702c-7.558,-1.265 -14.407,-4.038 -18.457,-7.501l-15.667,-13.345c-0.338,-0.295 -0.657,-0.591 -0.964,-0.894l-16.374,-16.374l-25.724,-12.425l-37.717,-15.643l-47.041,-16.898c-2.746,-0.985 -5.228,-2.175 -7.268,-3.488l-30.398,-19.606c-2.337,-1.511 -4.073,-3.159 -5.08,-4.841l-42.027,-69.8l-4.593,-7.042c-1.373,-1.166 -2.536,-2.397 -3.174,-3.677c-0.399,-0.772 -0.617,-1.527 -0.674,-2.249l-4.482,-6.878l-10.633,-8.011l-19.698,-2.97c-10.366,-1.56 -19.296,-5.943 -22.153,-10.875l-9.433,-16.283l-5.407,-4.465l-49.831,-4.891c-0.897,-0.091 -1.812,-0.205 -2.738,-0.345l-41.719,-6.279c-8.746,-1.314 -16.578,-4.662 -20.519,-8.741l-43.8,-45.492c-0.38,-0.402 -0.753,-0.812 -1.044,-1.231l-10.522,-14.182l-13.867,-3.965c-5.346,-1.519 -9.889,-3.776 -12.832,-6.36l-24.779,-21.708l-50.128,-5.491c-0.713,-0.083 -1.426,-0.171 -2.159,-0.288l-21.131,-3.175l0.506,9.299c0.064,1.314 -0.366,2.553 -1.278,3.668l-14.935,18.038c-0.831,1.001 -2.036,1.871 -3.568,2.61l-75.866,36.079c-0.393,0.181 -0.792,0.353 -1.211,0.516l-39.135,15.06l1.382,7.944l-16.917,0c0,0 -3.592,15.692 -15.696,9.413l-16.559,-8.296l-4.151,0.083l2.3,31.227l23.916,23.004l28.105,8.363c0,0 1.218,9.413 8.194,17.784l27.2,3.136l43.534,9.413l25.685,4.186l13.287,-13.599c0,0 30.828,2.094 27.814,11.507l13.311,8.363l23.282,7.321l-16.616,4.186l22.069,5.228l41.421,16.734l13.301,1.042l-9.689,-16.727l31.416,3.136l34.182,18.826l61.065,17.776l16.957,21.962l-1.172,19.87l43.549,24.054l2.102,-7.321l-23.9,-15.692l25.384,0l44.756,18.826l36.275,4.186l30.842,16.734l-0.89,9.413l-19.649,-1.05l-42.014,-10.455l-10.881,3.136l83.139,23.012l64.713,24.046l3.315,-5.228c0,0 -42.624,-18.818 -39.922,-25.098l36.275,4.186l78.913,37.645c0,0 15.746,19.87 1.831,17.776l-37.185,-16.734l-19.041,0c0,0 46.572,21.962 51.105,26.148c4.548,4.186 70.448,15.692 70.448,15.692c34.647,17.367 67.752,34.052 96.613,53.067c7.355,4.841 13.226,13.23 22.997,17.546l-0.016,0.006Z" style="fill:#006b60;fill-rule:nonzero;"/><path id="CHP" d="M8000.914,2208.75l-47.755,-2.084l-26.012,-23.012l-50.798,-14.641l-55.33,-18.826l-39.882,-3.136c0,0 -8.828,-4.867 -20.176,-9.724c-3.188,-0.262 -6.437,-0.705 -9.671,-1.592l-72.873,-19.878c-7.134,-1.944 -12.852,-5.163 -15.455,-8.708l-1.252,-1.7l-44.555,-0.796c-6.724,-0.114 -13.852,-1.649 -19.566,-4.201c-5.683,-2.561 -9.422,-5.893 -10.189,-9.135l-2.755,-11.318l-6.181,-8.978l-6.448,-0.526c-1.967,-0.156 -3.954,-0.435 -5.901,-0.812l-21.465,-4.186c-5.308,-1.026 -10.208,-2.807 -13.949,-5.048l-2.643,-1.584l-5.212,-0.311c-9.461,-0.567 -18.865,-3.735 -24.043,-8.091l-1.18,-0.607l-9.008,2.133c-2.393,0.567 -5.121,0.871 -8.06,0.902l-46.857,0.443l-8.37,5.326c-2.583,1.649 -6.472,2.7 -11.08,3.027l-20.86,1.42l-23.536,27.806l-15.574,22.98c-1.959,2.864 -6.833,4.8 -13.306,5.285c-6.52,0.492 -13.935,-0.526 -20.333,-2.773l-34.419,-12.049l-33.87,-9.519c-3.531,-0.993 -6.756,-2.322 -9.426,-3.865l-14.38,-8.371c-1.935,-1.133 -3.549,-2.372 -4.737,-3.652l-11.204,-12.031l-10.953,-10.284c-4.82,-4.538 -3.966,-9.281 2.135,-11.989l0.312,-0.122l-12.538,-3.906l-26.956,-0.878l-3.761,5.943l-1.095,14.617l8.847,13.697c2.156,3.323 1.299,6.541 -2.337,8.806l-20.238,12.549c-3.151,1.954 -8.134,3.037 -13.962,3.037l-6.789,0l3.87,3.242c1.748,1.469 2.935,3.004 3.509,4.538l5.458,14.897c1.235,3.39 -0.73,6.451 -5.382,8.338l-25.177,10.268l-0.11,3.882c-0.051,2.175 -1.528,4.095 -4.229,5.541l-20.047,10.76l-4.452,16.333l4.865,38.318l5.433,19.181l9.644,10.258l17.977,8.879c1.792,0.886 3.386,1.863 4.714,2.897l23.758,18.515l50.206,4.595l35.988,14.641l61.664,11.507l11.796,9.413l-35.958,0l-65.9,-11.507l-21.465,-4.186l-7.546,5.228l91.288,18.826l95.832,23.004l178.391,66.936l154.814,62.75l12.988,-3.144l-0.91,-12.549l-17.26,-18.818l-35.972,-7.329l-17.234,-11.497l13.889,-5.228l44.133,3.136l7.229,-9.413l-9.377,-12.549l-41.12,-12.549l-3.329,-9.413l14.755,-36.603l34.66,-67.98l321.546,0l8.461,-7.321l-23.005,-25.098l15.991,-12.549l-18.753,-17.784l0.011,-0.008Z" style="fill:#00756d;fill-rule:nonzero;"/><path id="OAX" d="M7004.609,2267.316c0,0 -20.571,-13.591 -7.275,-19.87l91.303,21.06l-4.754,-3.709l-19.511,-9.636c-2.795,-1.387 -5.08,-2.978 -6.659,-4.645l-13.765,-14.649c-1.134,-1.215 -1.904,-2.454 -2.246,-3.677l-6.074,-21.436c-0.078,-0.28 -0.129,-0.567 -0.175,-0.845l-5.038,-39.731c-0.091,-0.674 -0.036,-1.322 0.131,-1.954l5.407,-19.87c0.473,-1.708 1.859,-3.209 4.067,-4.383l1.657,-0.894l-237.424,-3.916c-10.674,-0.171 -21.793,-3.865 -27.037,-8.962l-5.309,-5.155l-3.618,0c-5.195,0 -10.722,-0.853 -15.745,-2.446l-27.209,-8.625l-34.55,-9.75c-2.599,-0.731 -5.018,-1.641 -7.164,-2.683l-24.28,-11.769c-4.638,-2.249 -7.761,-4.999 -8.877,-7.731l-28.503,14.617c-1.186,0.615 -2.608,1.117 -4.184,1.519l-24.919,6.277c-1.272,0.329 -2.655,0.575 -4.122,0.739l-20.852,2.348c-7.642,0.853 -16.852,-0.492 -24.162,-3.538l-37.661,-15.692c-2.986,-1.255 -5.535,-2.732 -7.459,-4.333l-21.557,-18.038c-2.751,-2.314 -4.109,-4.802 -3.825,-7.091l2.478,-20.394c0.084,-0.715 0.314,-1.404 0.72,-2.052l5.607,-9.208l-2.579,-2.299l-14.241,-3.234l-54.651,1.404c-8.682,0.171 -17.799,-1.92 -24.299,-5.549l-60.448,-33.707l-64.462,-22.011l-24.481,-4.776l7.726,5.228c5.429,3.67 7.071,7.936 4.312,11.227l-6.051,7.264l-10.842,22.118c-0.87,1.765 -2.794,3.258 -5.578,4.325l-31.7,12.137l-3.506,5.523c-2.203,3.447 -8.535,5.556 -16.671,5.556l-11.622,0c-11.056,0 -22.821,-3.857 -28.081,-9.216l-6.926,-6.77l-8.291,0.132l-15.46,14.723l-7.825,8.929c-2.259,2.553 -6.973,4.243 -13.037,4.662l-15.266,1.042c-12.089,0.796 -26.029,-3.439 -31.56,-9.602l-10.794,-12.072l-20.199,-6.098c-0.021,-0.008 -0.036,-0.008 -0.061,-0.016l2.467,4.258l12.425,10.39c3.469,2.921 4.681,6.073 3.312,8.757c-1.35,2.683 -5.154,4.686 -10.554,5.564l-19.332,3.136c-6.38,1.05 -14.335,0.386 -21.474,-1.765l-23.896,-7.205l-19.088,-1.395l-14.444,1.174l0.85,11.44c0.433,5.933 -9.298,9.651 -22.135,8.47l-5.632,-0.526l0.015,13.871l1.953,16.439l7.041,12.155l14.346,11.958c0.709,0.591 1.339,1.19 1.853,1.796l10.3,11.989l26.535,11.932l46.814,8.306c7.917,1.404 14.932,4.455 18.755,8.158l9.668,9.413c1.413,1.353 2.317,2.742 2.707,4.103l2.421,8.306l14.468,11.564c4.85,3.874 5.58,8.141 1.892,11.204l-10.71,8.879c-0.706,0.591 -1.572,1.125 -2.564,1.592l-11.22,5.302l1.283,9.98c0.646,5.015 -5.959,8.682 -16.192,8.962l-22.232,0.599l1.491,6.673c0.868,3.906 -2.609,7.189 -9.212,8.659l-14.259,3.185l-0.178,5.023l54.993,3.628l43.534,9.413l81.615,24.054l32.034,-3.136l29.896,-10.465l8.186,10.465l-13.593,9.405l7.872,6.277l45.019,-6.277l60.743,6.277l98.86,20.92l28.719,2.092l33.84,7.321l81.002,1.042l56.795,-18.826l53.459,-20.912l81.58,-12.549l50.144,-15.692l85.226,1.05l-3.345,-9.413l-77.676,-6.277l-23.26,0l-33.559,-3.136l4.221,-14.641l31.432,3.136l20.857,3.136l14.497,-4.178l20.243,-5.235l51.08,4.186l36.853,-2.094l33.856,7.321l-0.89,9.413c0,0 -46.839,3.136 -42.595,10.463l35.057,2.084l42.614,4.186l109.434,20.92l10.861,-3.144l-5.739,-6.27l-102.175,-15.692l0.013,0.002Z" style="fill:#19b1a1;fill-rule:nonzero;"/><path id="BCS" d="M2640.903,1263.867l-49.423,-10.465l-3.341,-9.405l-5.608,-7.845l-11.479,-5.228l-18.142,-5.753l-6.973,-8.371l-6.213,-8.889l-6.349,-7.321l-35.194,-0.518l-5.608,-7.845l-13.328,-12.031c-16.377,-6.09 -45.534,-19.598 -64.653,-20.648c-15.74,-0.863 -30.874,5.826 -45.332,7.148c-17.859,1.641 -34.431,0.861 -54.266,-1.658c-0.016,0 -21.478,-7.845 -21.478,-7.845c0,0 -5.744,-6.277 -6.957,-8.371c-1.207,-2.084 -9.548,-10.981 -10.457,-12.549c-0.908,-1.568 -15.112,-11.499 -15.112,-11.499l-2.13,-10.981l12.521,-5.753l-0.91,-12.549c0,0 -7.273,-8.889 -8.186,-10.465c-0.908,-1.568 -9.68,-9.405 -9.68,-9.405l-21.922,-6.803l-21.462,-7.845l-3.04,-8.887l-11.94,-11.499l-19.202,-5.753l-13.621,-16.209l-7.274,-12.557l-8.924,-9.931l-19.649,-1.05l-14.966,-5.746l-19.051,-7.321l-41.265,-18.302l-22.562,-29.807l-9.241,-14.117l-9.52,-7.321c0,0 -6.365,-7.321 -6.213,-8.889c0.151,-1.576 -3.043,-12.557 -3.043,-12.557l-12.851,-9.405l-4.997,-10.463l-6.529,-13.073l-24.483,-2.084l-9.081,-8.371l-6.213,-8.889l-37.03,-18.302c0,0 -27.679,-13.075 -35.385,-13.599l-1.342,10.463l11.351,10.455l18.142,5.753l16.027,9.413l15.884,14.641l-12.698,0l-19.802,-3.144l-36.128,-13.073l-8.48,-10.973l-4.702,-17.258l-12.391,-3.136l-20.719,-8.371l-4.841,-12.023l6.178,-5.753l-8.321,-8.889l-29.627,-3.66l-19.646,-4.711c-0.849,-8.633 -26.867,-25.492 -37.43,-34.208c-10.973,-9.053 -22.342,-13.664 -37.135,-20.485c-4.148,-1.913 -0.081,-4.178 -7.735,-6.935c-5.092,-1.83 -13.976,-2.75 -19.573,-3.924c-10.972,-2.289 -22.008,-4.406 -33.012,-6.606l-11.053,-9.939l-24.481,-5.753l-14.66,-8.889l-2.522,-5.015l-198.384,-7.337l-76.83,-3.841l-58.099,2.503l7.326,12.647l16.174,0.526l32.943,5.746l19.364,11.507l-19.956,2.094l-16.613,0.526l-14.813,3.66l-28.261,-6.803l-27.522,-14.641l-10.136,-12.023l-5.152,-5.228l-13.13,4.702l-7.697,6.803l-33.85,0l-39.903,-3.144l-33.247,-6.27l-25.38,-3.66l-30.237,-4.711l14.828,10.981l24.035,14.125l22.376,2.084l25.693,7.845l13.316,8.371l42.028,14.117l27.51,10.981l13.469,17.776l41.124,19.868l37.326,0.526l21.465,4.186l29.177,12.023l21.462,7.845l43.841,6.27l9.985,13.599l25.849,6.277l25.254,8.889l9.044,-6.279l22.212,0l18.294,4.186c0,0 12.074,-1.05 18.12,-5.228l14.514,3.136l9.361,-2.094c0,0 -2.13,-10.981 -3.038,-12.549c-0.908,-1.568 12.086,-4.702 12.086,-4.702l15.108,0.516l6.652,7.845l2.126,10.981l-2.845,11.507l14.824,14.641l46.419,19.868l50.487,17.776l63.189,17.776l40.503,7.845l13.16,9.939l53.972,25.622l20.446,33.459l10.893,15.167l8.006,1.042l4.847,-2.61l-14.541,-21.436l-3.785,-8.371l22.37,9.413l15.754,23.53l-2.235,19.87l2.154,29.283l-11.319,15.167l0.923,16.209l11.787,2.094l6.024,-15.167c0,0 4.375,-5.228 16.18,-3.136l2.13,10.981l-7.992,13.599l-0.755,7.837l9.523,3.66l8.31,-5.746l12.997,0.516l21.772,15.692l13.168,13.591l19.945,5.228l33.711,1.568l32.35,15.692c0,0 43.692,18.826 46.576,18.302c2.867,-0.526 48.071,13.599 48.071,13.599l38.552,13.591l43.544,16.734l55.023,21.962l36.589,19.344l35.976,10.981l44.754,7.845l47.927,18.826l24.951,19.344l18.306,22.488l29.5,23.53l27.982,13.599l20.54,-1.05l15.851,-10.981l22.816,-6.27l26.287,-5.746l15.696,-9.413l3.908,-15.174l-3.801,-15.675l-14.677,-12.557l-20.107,-10.981l0.023,0.012Z" style="fill:#19b1a1;fill-rule:nonzero;"/><path id="COA" d="M3797.03,568.262c-0.095,0.262 -0.069,0.542 -0.204,0.796l-17.014,34.511l-22.967,42.201l-24.432,67.011l139.596,152.34l94.434,31.795c2.868,0.969 5.477,2.151 7.631,3.488l44.349,27.264c6.129,3.758 8.177,8.296 5.321,11.793l-9.2,11.204l35.085,28.322c3.39,2.758 4.77,5.738 3.849,8.363l-7.227,20.394c-0.607,1.649 -2.076,3.094 -4.329,4.219l-21.406,10.678l16.222,28.003l13.385,9.955l34.633,12.246c4.447,1.576 8.124,3.652 10.514,5.943l18.353,17.556l22.449,9.439l41.055,5.36c2.742,0.353 5.486,0.928 8.083,1.69l26.896,7.887l2.213,-5.121l-9.901,-32.622c-0.029,-0.14 0.036,-0.254 0.007,-0.386c-0.197,-0.829 -0.185,-1.641 0.004,-2.429c0.053,-0.197 0.071,-0.394 0.144,-0.583c0.329,-0.863 0.907,-1.674 1.733,-2.421c0.188,-0.163 0.431,-0.288 0.64,-0.443c0.461,-0.353 0.865,-0.715 1.449,-1.026c0.384,-0.197 0.853,-0.337 1.246,-0.518c0.361,-0.148 0.705,-0.303 1.086,-0.443c1.445,-0.518 2.991,-0.943 4.727,-1.215c0.032,0 0.059,-0.016 0.086,-0.024l40.793,-6.27c0.668,-0.106 1.369,-0.189 2.076,-0.254l66.177,-6.27c4.397,-0.435 9.454,-0.132 14.361,0.863l93.423,18.818c5.657,1.14 10.829,3.136 14.586,5.606l23.444,15.511l39.919,4.891c8.364,1.026 16.23,3.973 20.743,7.78l5.421,4.572l25.854,-4.375c2.616,-0.443 5.575,-0.575 8.564,-0.492l38.994,1.576c7.641,0.321 15.502,2.372 21.165,5.531l22.686,12.655l39.355,7.928c0.191,0.041 0.383,0.091 0.579,0.14l-5.238,-6.435l-15.735,-16.53c-2.831,-2.996 -3.271,-6.08 -1.219,-8.584l1.095,-1.322l-6.184,-1.962c-4.168,-1.322 -7.78,-3.086 -10.423,-5.098l-11.339,-8.625c-3.52,-2.693 -5.116,-5.647 -4.435,-8.288l3.363,-13.337c0.544,-2.102 2.487,-3.906 5.587,-5.17l26.959,-10.981c3.342,-1.363 7.775,-2.027 12.885,-1.913l22.019,0.526l-17.838,-6.837c-6.694,-2.586 -11.195,-6.23 -12.183,-9.799l-9.891,-0.197c-8.52,-0.181 -17.512,-2.602 -23.441,-6.336l-18.127,-11.401l-36.348,-16.266c-5.934,-2.651 -9.7,-6.14 -10.302,-9.504l-2.387,-13.632l-6.365,-6.943l-4.502,-1.182c-10.841,-2.84 -18.067,-8.436 -17.446,-13.492l1.089,-8.781l-7.236,-1.658c-3.461,-0.788 -6.687,-1.887 -9.506,-3.224l-9.789,-4.662l-2.832,1.962c-5.724,3.965 -18.023,4.481 -29.173,1.223l-13.377,-3.924c-7.791,-2.273 -13.622,-6.031 -15.465,-9.963l-6.604,-14.125c-1.618,-3.48 0.104,-6.671 4.66,-8.69l16.822,-7.469l34.598,-20.747l18.603,-12.909c5.047,-3.496 15.322,-4.357 25.516,-2.151l9.881,2.125l6.151,-5.917l-4.869,-14.912l-6.979,-12.049l-11.052,-1.14c-3.673,-0.378 -7.35,-1.14 -10.761,-2.242l-2.464,-0.788c-6.556,2.527 -14.678,4.924 -23.019,5.541c-6.859,0.485 -14.651,-0.648 -21.229,-3.118c-6.578,-2.47 -11.158,-5.966 -12.426,-9.504l-5.006,-14.117c-0.645,-1.855 -0.35,-3.644 0.896,-5.186l13.793,-17.258c1.576,-1.978 4.621,-3.488 8.692,-4.308l39.474,-8.003l17.041,-8.584l2.705,-18.86c0.041,-0.246 0.097,-0.492 0.154,-0.739l3.855,-12.549c0.724,-2.389 3.274,-4.349 7.251,-5.564l28.324,-8.625c7.977,-2.421 20.027,-1.42 29.339,2.446l17.678,7.304l11.232,2.765l7.233,-7.116c0.421,-0.394 0.879,-0.772 1.424,-1.125l10.817,-7.174l5.003,-9.273l-9.537,-8.781c0,0 -36.281,-11.507 -67.117,-20.92c-30.837,-9.413 -101.617,-51.245 -101.617,-51.245l-73.198,-53.337c0,0 -39.646,-28.232 -65.336,-39.738c-25.706,-11.507 -82.827,-26.148 -82.827,-26.148c0,0 -39.294,-2.094 -56.84,-10.455c-17.527,-8.363 -51.417,-30.325 -51.417,-30.325l-79.175,2.084l-43.53,-9.405l-45.008,6.27l-63.183,-10.455l-15.092,10.455l-42.912,6.277l-32.598,24.054l7.269,12.549l-10.877,10.455l3.059,19.868l-22.949,11.507l-18.417,23.004l-14.295,-2.75l0.003,-0.002Z" style="fill:#00577c;fill-rule:nonzero;"/><path id="QTRO" d="M5221.888,1727.949c10.459,2.553 17.918,7.747 18.269,12.712l0.407,5.572l2.324,0.772l15.949,-13.936l5.048,-11.72l-3.109,-37.178c-0.305,-3.595 3.163,-6.549 9.309,-7.92l44.423,-9.921l-4.837,-11.761c-0.384,-0.951 -0.517,-1.897 -0.415,-2.807l2.462,-20.394c0.188,-1.485 1.051,-2.856 2.535,-4.022l11.041,-8.568l2.744,-14.404c0.65,-3.348 4.749,-5.901 11.116,-6.92c6.345,-1.001 14.214,-0.368 21.285,1.749l18.042,5.409l10.89,-1.519l-0.728,-4.235l-11.601,-6.36c-0.222,-0.122 -0.383,-0.262 -0.611,-0.394c-0.132,-0.083 -0.312,-0.14 -0.438,-0.213l-19.519,-11.769c-1.037,-0.615 -1.964,-1.272 -2.788,-1.944l-17.484,-14.363l-0.274,0.098l1.858,10.719c1.051,6.114 -8.706,10.103 -21.597,9.027l-46.692,-3.914c-6.406,-0.542 -12.835,-2.265 -17.817,-4.792l-12.818,-6.508l-4.509,5.883l-0.487,5.178l10.685,0.246c7.686,0.173 15.786,2.175 21.668,5.367c5.861,3.185 8.786,7.14 7.799,10.595l-3.149,10.981c-0.95,3.291 -5.353,5.746 -11.879,6.606l-17.676,2.356c-1.908,0.262 -3.889,0.42 -6.128,0.337l-36.304,-0.542l-4.278,20.697c-0.834,3.973 -6.558,6.762 -14.864,7.239l-31.067,1.765l-2.011,2.602c-2.568,3.333 -8.678,5.228 -17.32,5.096l-26.558,-0.542l-8.653,8.503l0.097,4.349l15.447,4.711c6.055,1.855 10.919,4.605 13.515,7.656l17.606,20.764l38.241,19.155l42.867,10.496l-0.02,0Z" style="fill:#19b1a1;fill-rule:nonzero;"/><path id="MOR" d="M5556.455,1945.444c3.208,0.985 6.101,2.224 8.497,3.636l15.939,9.405l28.182,0.36c8.293,0.098 17.123,2.364 23.154,5.925l11.076,6.541l6.968,-0.894l-2.658,-8.371c-0.805,-2.511 0.162,-4.851 2.76,-6.64l4.538,-3.144c6.262,-4.349 20.372,-4.497 31.899,-0.329l11.681,4.201l-12.114,-13.23c-2.672,-2.921 -3.066,-5.925 -1.096,-8.371l1.654,-2.043l-10.63,-5.598c-3.948,-2.084 -6.685,-4.546 -7.787,-7.026l-1.948,-4.367c-5.902,-0.36 -11.867,-1.716 -16.926,-3.916l-31.874,-13.845l-8.46,2.962c-2.966,1.042 -6.72,1.584 -10.852,1.584l-33.316,0c-2.49,0 -5.078,-0.197 -7.681,-0.591l-27.294,-4.103l-8.446,14.19l7.342,21.56l8.34,6.287l19.056,5.811l-0.002,0.004Z" style="fill:#0d534d;fill-rule:nonzero;"/><path id="TAM" d="M4819.164,777.041c0,0 -16.645,-17.784 -47.186,-30.333c-4.595,-1.887 -9.469,-3.766 -14.38,-5.621l-0.016,0c-0.247,0.262 -0.524,0.526 -0.832,0.772l-25.867,21.347l11.728,2.535c8.577,1.855 15.606,5.564 18.405,9.709l11.853,17.538l27.221,10.455c8.365,3.209 13.2,8.026 12.339,12.269l-4.003,19.254l10.509,0.829c11.343,0.894 22.031,5.417 25.651,10.833l11.603,17.507l21.547,3.61c5.845,0.977 11.289,2.864 15.371,5.302l22.666,13.591c2.192,1.322 3.916,2.75 5.091,4.235l11.514,14.519l34.544,9.569c6.029,1.666 11.06,4.251 14.01,7.189l16.895,16.874l26.116,1.265c3.262,0.156 6.626,0.632 9.866,1.412l25.854,6.197l11.583,-4.022c5.149,-1.773 12.437,-2.06 19.86,-0.739l35.374,6.27c3.678,0.648 7.225,1.666 10.355,2.97c28.867,12.031 30.893,18.253 31.65,20.591c0.549,1.69 0.406,3.307 -0.402,4.753c2.699,4.859 12.714,17.079 21.325,26.469c0.384,0.402 0.697,0.804 0.987,1.215l6.106,8.732l18.801,1.56c7.346,0.617 14.599,2.765 19.757,5.852c5.148,3.069 7.625,6.746 6.699,9.963l-2.106,7.313c-0.427,1.444 -1.515,2.742 -3.179,3.825l-27.78,17.784l-29.854,20.682c-2.739,1.895 -7.119,3.069 -12.391,3.315l-39.6,1.822l-16.591,6.754c-2.117,0.871 -4.747,1.462 -7.69,1.739l-2.848,0.27l4.623,6.549l16.038,20.493c2.533,3.224 2.234,6.435 -0.757,8.838c-3.01,2.397 -8.46,3.766 -15.018,3.766l-38.317,0l-21.05,11.03c-1.424,0.754 -3.183,1.355 -5.171,1.788l-29.538,6.386l16.218,2.322c11.603,1.658 21.335,6.829 23.179,12.303l8.804,26.148c0.199,0.632 0.318,1.265 0.287,1.871l-0.174,12.196l27.972,13.156l25.402,13.156c7.689,3.989 10.493,9.2 7.076,13.075l-16.586,18.826c-2.788,3.151 -9.6,4.776 -17.346,4.735l-34.001,-0.92l-20.07,3.898l-3.016,8.495l-0.431,9.89l15.577,14.765c4.075,3.857 4.094,7.928 0.038,10.727c-4.052,2.807 -11.551,3.989 -19.946,3.053l-21.564,-2.348c0.19,1.731 0.849,3.784 1.663,5.795l9.037,5.31l14.909,0c10.789,0 22.299,3.677 27.738,8.879l21.324,20.394c3.702,3.522 4.001,7.223 0.901,9.98l-10.813,9.561l23.342,5.334l51.617,7.14l-0.525,-7.124c-0.253,-3.587 3.23,-6.516 9.397,-7.879c6.172,-1.355 14.26,-0.977 21.691,1.018l52.607,14.125c3.891,1.042 7.416,2.486 10.278,4.186l55.253,32.992l74.764,7.469l20.967,-6.049c4.897,-1.402 11.397,-1.592 17.997,-0.516l24.855,4.046l18.901,-9.988c4.563,-2.413 12.108,-3.226 20.146,-2.11l14.154,1.936l1.695,-3.924c2.24,-5.22 13.157,-7.633 25.4,-5.647l38.546,6.27c6.158,1.001 11.915,3.029 16.093,5.655l8.721,5.482c18.774,3.866 38.8,10.841 51.4,15.626c5.457,-0.435 10.709,-0.861 15.861,-1.28l-17.76,-20.459l-24.499,-16.727l6.016,-11.507l2.999,-24.054c0,0 -36.658,-59.617 -40.29,-65.886l-19.991,-34.511l0.949,-16.644l-12.698,0l-11.507,16.644l-12.103,-6.277c0,0 -27.261,-47.06 -29.981,-55.421c-2.742,-8.371 6.016,-11.507 6.016,-11.507l-0.014,-14.641l-32.643,-5.228l-8.481,-14.641c-4.241,-7.321 -19.372,-18.826 -19.372,-18.826l36.552,-6.279c0,0 -21.163,-14.641 -24.508,-24.054c-3.341,-9.405 -4.256,-21.962 -4.256,-21.962l-16.631,-10.455l-6.978,-15.685l-26.007,-15.692l20.84,-4.178l-4.849,-8.371l25.4,0l16.599,-11.499l21.747,-6.277l19.364,11.507l2.726,15.683l15.141,18.826l27.16,-33.469l-13.663,-49.152l-25.43,-29.283l-29.91,3.136l-27.502,7.321l-38.388,-11.499l-35.38,-6.279l-80.383,0l-62.87,-6.277l-63.189,-17.776l-95.523,-18.826l-70.719,-12.549c0,0 -39.63,-28.232 -43.575,-31.375c-3.924,-3.136 -67.127,-35.553 -67.127,-35.553l-12.722,-21.962l-43.258,-27.19l-0.007,0.002Z" style="fill:#19b1a1;fill-rule:nonzero;"/><path id="CHH" d="M2330.357,252.876l12.126,4.652c4.761,1.83 8.493,4.227 10.578,6.795l16.579,20.394c0.243,0.303 0.467,0.607 0.664,0.92l28.267,43.522l33.086,24.046l28.414,21.395c1.701,1.272 2.963,2.618 3.752,3.981l17.723,30.595c0.228,0.394 0.42,0.78 0.564,1.174l16.842,45.492l19.23,38.499c2.245,4.481 -1.085,8.444 -8.479,10.152l-11.274,2.602l34.043,61.175l20.181,21.716c0.966,1.034 1.627,2.094 2.036,3.144l4.529,12.433l20.649,16.471c1.713,1.355 2.917,2.773 3.597,4.201l7.507,15.683c2.62,5.499 -3.155,10.03 -13.758,10.784l-44.181,3.144c-1.794,0.114 -3.693,0.132 -5.626,0.033l-37.729,-1.936l-13.665,4.981l1.484,1.674l12.873,10.276l8.254,5.507l29.407,9.242c7.349,2.314 12.784,5.933 14.552,9.701l4.392,9.447l21.198,9.027c3.394,1.444 6.18,3.185 8.113,5.064l8.728,8.478l20.155,3.931c9.447,1.838 17.22,5.943 19.844,10.473l19.083,32.943c0.932,1.609 1.173,3.201 0.693,4.662l-3.378,10.587l7.901,7.477l9.388,4.769l13.327,-1.156l0.167,0c1.633,-0.132 3.344,-0.163 5.15,-0.106c0.439,0.016 0.882,0.065 1.336,0.098c1.013,0.057 2.033,0.098 3.101,0.223c0.339,0.041 0.648,0.114 0.991,0.163c0.213,0.024 0.428,0.024 0.647,0.057l45.865,6.902l63.283,6.935c8.792,0.961 17.09,4.054 21.688,8.091l27.653,24.235l16.449,4.694c6.866,1.962 12.31,5.088 14.864,8.519l14.073,18.992l36.862,38.269l26.192,3.947l62.54,6.14c8.699,0.863 17.066,3.841 21.864,7.796l15.222,12.549c1.34,1.109 2.36,2.265 3.03,3.421l5.663,9.776l13.915,2.102c7.326,1.099 14.111,3.644 18.43,6.91l19.742,14.905c1.521,1.133 2.677,2.33 3.48,3.545l0.72,1.099l62.412,1.05l13.329,-5.761l-9.863,-26.14c-0.908,-2.372 -0.23,-4.613 1.897,-6.409l9.827,-8.257l-32.064,-32.049c-6.176,-6.163 -1.723,-12.204 9.933,-13.542l51.307,-5.885l-3.732,-6.443c-1.383,-2.387 -1.224,-4.719 0.455,-6.663l8.298,-9.577l1.631,-17.186c0.379,-4.16 5.994,-7.164 14.438,-7.747l45.78,-3.136c4.428,-0.321 9.343,0.083 14.089,1.109l43.373,9.389l14.418,-1.075c6.07,-0.443 13.007,0.418 19.155,2.405l69.655,22.405l63.499,-1.379c3.825,-0.075 7.445,0.272 11.18,1.018l24.477,4.859l20.48,-11.072c3.972,-2.167 10.371,-3.102 17.369,-2.488c7.055,0.575 14.059,2.576 19.192,5.474l39.155,22.143l12.544,1.075l20.299,-15.765l26.074,-24.546c3.266,-3.077 10.331,-4.637 18.533,-4.144l96.211,5.885l-132.669,-144.798c-2.102,-2.281 -2.813,-4.629 -2.038,-6.73l25.741,-70.598c0.077,-0.238 0.206,-0.477 0.31,-0.723l23.06,-42.356l15.869,-32.155l-2.147,-4.883l-42.415,-12.811l-59.557,-11.507l-55.612,-8.363l-60.171,-19.878l-51.694,-12.549l-86.182,-50.194l-13.33,-23.012l-45.682,-31.375l-80.443,-43.924l-57.74,-15.683l-132.74,-50.203c0,0 -71.962,-29.283 -106.124,-33.459c-34.147,-4.186 -113.383,-46.018 -113.383,-46.018l-205.215,-7.321l-197.347,-1.05l11.842,38.696l-3.608,15.692l-120.621,-2.003l3.958,12.246l-0.009,-0.002Z" style="fill:#19b1a1;fill-rule:nonzero;"/><path id="BCN" d="M922.804,439.766l45.03,12.023l40.999,28.765l38.526,6.27l12.72,10.981l33.106,15.167l40.521,18.826l19.055,14.641l30.991,4.178l14.673,16.216l18.907,12.549l3.795,23.004l7.138,21.436l-15.787,9.545l61.705,-2.667c1.413,-0.057 2.876,-0.049 4.36,0.016l78.445,3.931l198.038,7.311l-3.382,-7.674l-5.136,-5.228l-18.595,-8.371l-4.545,-7.845l1.647,-6.27l1.054,-7.321l-4.241,-7.321l-28.571,0l-26.149,-6.795l-13.764,-10.981l-16.932,-14.641l-3.65,-9.939l-11.644,-7.321l-32.482,0.526l-10.584,-7.321l-20.123,-10.981l-14.206,1.042c0,0 -1.95,9.413 -9.344,13.073l-14.367,-12.023l-3.345,-9.413l-7.409,-10.981l-13.465,-10.465l-1.518,-9.931l-12.113,-13.599l-35.84,-12.549l-59.124,-30.851l-50.184,-20.92l-20.409,-7.837l-32.942,1.568l-4.694,-9.939l-12.257,-15.685l-22.082,-8.889l-23.725,-6.277l-21.314,-5.753l-0.775,-14.117c0,0 -11.832,-31.375 -11.985,-33.469c-0.165,-2.094 -17.097,-16.734 -17.097,-16.734l-17.7,-17.776l-2.885,-10.455l-8.481,-14.641l-17.851,-8.889l-20.876,-17.784l-18.608,-19.344l-5.154,-16.209l3.904,-18.826l0.737,-11.507l-5.279,-8.026l-24.026,-12.878l-52.765,-17.981c-6.747,-2.307 -11.692,-5.712 -13.399,-9.258l-17.958,-37.391c-1.474,-3.061 -0.371,-5.943 3.06,-7.985l44.848,-26.664c1.971,-1.158 4.596,-2.011 7.723,-2.488l25.003,-3.807l20.676,-4.144l3.33,-6.894l-6.666,-11.507c0,0 -196.135,1.042 -255.973,0c-59.838,-1.042 -293.455,-6.27 -293.455,-6.27l8.937,13.591l24.348,18.302l28.586,14.641l7.579,20.394l51.407,23.004l12.856,9.413l-14.505,0.526l-10.116,9.931l17.853,19.87l34.925,14.641l64.876,33.469l27.556,40.264l61.832,28.241l32.239,42.874l32.062,15.167l28.141,30.325l15.894,21.962l37.533,35.561l25.706,11.507l40.498,7.837l35.528,8.371l41.124,19.868l0.007,0.006Z" style="fill:#006b60;fill-rule:nonzero;"/><path id="SON" d="M877.644,50.522c-0.477,0.091 -0.959,0.181 -1.462,0.254l-21.004,3.201l-36.499,21.708l12.963,26.993l45.282,15.436c2.148,0.731 4.161,1.592 5.936,2.537l7.662,4.113l17.202,5.966l111.129,40.264c0,0 25.844,6.27 41.697,6.27c15.869,0 20.553,-4.702 20.553,-4.702l16.604,-7.845l23.884,1.05l32.045,11.499l5.757,9.939l9.837,11.507l40.805,4.702l41.715,9.939l53.501,8.363l24.202,12.549l4.243,18.302l-12.217,6.277c0,0 19.979,30.851 20.886,32.417c0.908,1.568 18.625,23.012 18.625,23.012l32.348,12.023l7.1,10.455l28.442,19.868l23.14,16.216l10.297,17.776l14.672,12.549l22.535,11.507l5.753,9.931l13.464,10.463l49.269,8.363c0,0 8.333,12.549 8.178,14.117c-0.156,1.568 -5.576,10.465 -5.576,10.465l9.833,11.499l30.392,3.144l29.013,9.931l2.598,13.599l13.916,13.073l15.577,17.776l26.621,9.413l29.786,13.075l18.459,17.251l50.041,26.148l72.855,16.209l44.927,31.901l55.039,21.962l41.416,16.727l18.754,3.144l-0.77,-6.803l-12.694,-3.66l-16.935,-10.981l-2.432,-7.837l19.936,-2.094l20.553,2.61l15.28,13.599l27.057,8.363l24.046,6.803l11.47,-2.092l26.31,12.549l-2.263,1.568l-16.299,8.371l-10.877,10.455l6.67,18.818l47.776,16.734l11.198,15.692l21.174,7.321l53.501,8.363l64.687,9.413l11.796,9.413l-2.988,16.734l59.264,29.283l83.406,-2.092l42.046,25.098l14.463,18.515l48.833,-18.787l72.975,-34.708l12.296,-14.855l-0.13,-2.576c-6.793,-0.378 -13.861,-2.117 -19.336,-4.891l-24.732,-12.549c-2.301,-1.166 -4.224,-2.478 -5.694,-3.866l-14.08,-13.329c-2.575,-2.437 -3.577,-4.999 -2.827,-7.288l3.8,-11.893l-13.359,-23.061l-16.672,-3.25c-7.577,-1.477 -14.194,-4.44 -17.841,-7.985l-11.587,-11.261l-24.318,-10.341c-5.296,-2.265 -9.059,-5.204 -10.458,-8.198l-3.774,-8.117l-23.179,-7.288c-3.633,-1.14 -6.863,-2.618 -9.39,-4.318l-12.933,-8.625c-0.544,-0.368 -1.041,-0.739 -1.532,-1.125l-14.73,-11.761c-0.782,-0.607 -1.442,-1.231 -2.017,-1.879l-9.076,-10.193c-4.095,-4.58 -2.451,-9.135 4.173,-11.538l30.127,-10.981c3.606,-1.314 8.342,-1.879 13.61,-1.609l42.863,2.208l23.202,-1.649l-1.913,-4.046l-21.046,-16.784c-1.952,-1.56 -3.249,-3.201 -3.859,-4.826l-4.875,-13.319l-19.668,-21.174c-0.614,-0.689 -1.145,-1.379 -1.533,-2.076l-38.845,-69.81c-2.573,-4.613 0.703,-8.732 8.304,-10.481l11.656,-2.693l-15.886,-31.868l-16.934,-45.624l-16.193,-27.954l-25.56,-19.246l-35.317,-25.663c-1.668,-1.215 -2.96,-2.503 -3.815,-3.807l-29.236,-45.023l-12.969,-15.97l-15.104,-5.811c-6.53,-2.503 -10.996,-6.031 -12.135,-9.545l-5.088,-15.716l-462.493,-7.682l-37.779,-10.455c0,0 -429.868,-84.712 -490.315,-94.118c-49.361,-7.69 -301.508,-61.356 -392.481,-80.814l-18.682,3.742l-0.017,-0.008Z" style="fill:#00577c;fill-rule:nonzero;"/><path id="bcn" d="M402.03,17.893c4.483,7.739 -4.566,14.01 -20.224,14.01c-15.654,0 -31.972,-6.27 -36.456,-14.01c-4.483,-7.739 4.572,-14.001 20.23,-14.001c15.654,0 31.967,6.262 36.45,14.001Z" style="fill:#00252a;fill-rule:nonzero;"/><path id="bcn_mexicali" d="M715.307,21.7c4.483,7.739 -4.566,14.01 -20.224,14.01c-15.654,0 -31.972,-6.27 -36.456,-14.01c-4.478,-7.731 4.572,-14.001 20.23,-14.001c15.654,0 31.972,6.27 36.45,14.001Z" style="fill:#00252a;fill-rule:nonzero;"/><path id="son_nogales" d="M1861.221,251.521c4.483,7.739 -4.582,14.01 -20.224,14.01c-15.654,0 -31.972,-6.27 -36.456,-14.01c-4.483,-7.739 4.566,-14.01 20.224,-14.01c15.638,0 31.972,6.27 36.456,14.01Z" style="fill:#00252a;fill-rule:nonzero;"/><path id="son" d="M1981.439,527.088c4.483,7.739 -4.566,14.01 -20.224,14.01c-15.638,0 -31.952,-6.27 -36.436,-14.01c-4.478,-7.731 4.566,-14.01 20.204,-14.01c15.654,0 31.978,6.279 36.456,14.01Z" style="fill:#00252a;fill-rule:nonzero;"/><path id="son_navojoa" d="M2324.068,746.06c4.478,7.731 -4.566,14.01 -20.224,14.01c-15.654,0 -31.976,-6.277 -36.456,-14.01c-4.483,-7.739 4.566,-14.01 20.224,-14.01c15.654,0 31.972,6.27 36.456,14.01Z" style="fill:#00252a;fill-rule:nonzero;"/><path id="chh_juarez" d="M2869.393,223.502c4.483,7.739 -4.566,14.01 -20.224,14.01c-15.654,0 -31.972,-6.27 -36.456,-14.01c-4.483,-7.739 4.566,-14.01 20.224,-14.01c15.654,0 31.972,6.27 36.456,14.01Z" style="fill:#00252a;fill-rule:nonzero;"/><path id="chh" d="M3188.019,620.164c4.483,7.739 -4.566,14.01 -20.224,14.01c-15.654,0 -31.972,-6.27 -36.456,-14.01c-4.478,-7.731 4.572,-14.001 20.23,-14.001c15.654,0 31.972,6.27 36.45,14.001Z" style="fill:#00252a;fill-rule:nonzero;"/><path id="chh_parral" d="M3399.218,833.294c4.483,7.739 -4.566,14.01 -20.204,14.01c-15.654,0 -31.972,-6.27 -36.456,-14.01c-4.478,-7.731 4.567,-14.008 20.225,-14.008c15.638,0 31.957,6.277 36.435,14.008Z" style="fill:#00252a;fill-rule:nonzero;"/><path id="dur" d="M3853.6,1226.475c4.483,7.739 -4.566,14.01 -20.204,14.01c-15.654,0 -31.972,-6.27 -36.456,-14.01c-4.483,-7.739 4.566,-14.01 20.224,-14.01c15.638,0 31.952,6.27 36.436,14.01Z" style="fill:#00252a;fill-rule:nonzero;"/><path id="coa_torreon" d="M4087.892,1034.202c4.478,7.731 -4.582,14.01 -20.224,14.01c-15.654,0 -31.976,-6.277 -36.456,-14.01c-4.483,-7.739 4.566,-14.01 20.224,-14.01c15.638,0 31.972,6.27 36.456,14.01Z" style="fill:#00252a;fill-rule:nonzero;"/><path id="coa" d="M4636.655,1048.21c4.478,7.731 -4.566,14.01 -20.224,14.01c-15.638,0 -31.957,-6.277 -36.436,-14.01c-4.483,-7.739 4.566,-14.01 20.204,-14.01c15.654,0 31.972,6.27 36.456,14.01Z" style="fill:#00252a;fill-rule:nonzero;"/><path id="coa_piedras_negras" d="M4455.523,606.163c4.478,7.731 -4.588,14.001 -20.23,14.001c-15.638,0 -31.952,-6.27 -36.43,-14.001c-4.483,-7.739 4.566,-14.01 20.204,-14.01c15.638,0 31.972,6.27 36.456,14.01Z" style="fill:#00252a;fill-rule:nonzero;"/><path id="tam_laredo" d="M4803.601,771.552c4.478,7.731 -4.566,14.01 -20.224,14.01c-15.638,0 -31.978,-6.279 -36.456,-14.01c-4.483,-7.739 4.582,-14.01 20.224,-14.01c15.654,0 31.972,6.27 36.456,14.01Z" style="fill:#00252a;fill-rule:nonzero;"/><path id="tam" d="M5440.712,979.403c4.483,7.739 -4.586,14.01 -20.224,14.01c-15.654,0 -31.972,-6.27 -36.456,-14.01c-4.483,-7.739 4.566,-14.01 20.224,-14.01c15.638,0 31.972,6.27 36.456,14.01Z" style="fill:#00252a;fill-rule:nonzero;"/><path id="nvol" d="M4797.156,1001.562c4.483,7.739 -4.566,14.01 -20.224,14.01c-15.638,0 -31.972,-6.27 -36.456,-14.01c-4.483,-7.739 4.582,-14.01 20.224,-14.01c15.654,0 31.972,6.27 36.456,14.01Z" style="fill:#00252a;fill-rule:nonzero;"/><path id="tam_cd_victoria" d="M5223.394,1256.111c4.483,7.739 -4.586,14.01 -20.224,14.01c-15.654,0 -31.972,-6.27 -36.456,-14.01c-4.483,-7.739 4.566,-14.01 20.224,-14.01c15.638,0 31.972,6.27 36.456,14.01Z" style="fill:#00252a;fill-rule:nonzero;"/><path id="slp" d="M4901.258,1473.442c4.478,7.731 -4.582,14.01 -20.224,14.01c-15.654,0 -31.976,-6.277 -36.456,-14.01c-4.483,-7.739 4.566,-14.01 20.224,-14.01c15.638,0 31.972,6.27 36.456,14.01Z" style="fill:#00252a;fill-rule:nonzero;"/><path id="zac" d="M4483.714,1396.681c4.483,7.739 -4.566,14.01 -20.224,14.01c-15.654,0 -31.968,-6.27 -36.452,-14.01c-4.483,-7.739 4.566,-14.01 20.22,-14.01c15.654,0 31.972,6.27 36.456,14.01Z" style="fill:#00252a;fill-rule:nonzero;"/><path id="ags" d="M4594.968,1505.597c4.483,7.739 -4.566,14.01 -20.204,14.01c-15.654,0 -31.972,-6.27 -36.456,-14.01c-4.483,-7.739 4.566,-14.01 20.224,-14.01c15.638,0 31.952,6.27 36.436,14.01Z" style="fill:#00252a;fill-rule:nonzero;"/><path id="jal" d="M4426.966,1668.464c4.478,7.731 -4.566,14.01 -20.224,14.01c-15.654,0 -31.976,-6.277 -36.456,-14.01c-4.483,-7.739 4.566,-14.01 20.224,-14.01c15.654,0 31.972,6.27 36.456,14.01Z" style="fill:#00252a;fill-rule:nonzero;"/><path id="mich" d="M5049.172,1809.256c4.478,7.731 -4.566,14.01 -20.204,14.01c-15.654,0 -31.972,-6.277 -36.452,-14.01c-4.483,-7.739 4.566,-14.01 20.22,-14.01c15.638,0 31.952,6.27 36.436,14.01Z" style="fill:#00252a;fill-rule:nonzero;"/><path id="col" d="M4442.794,1860.517c4.483,7.739 -4.566,14.01 -20.224,14.01c-15.654,0 -31.972,-6.27 -36.456,-14.01c-4.478,-7.731 4.566,-14.01 20.224,-14.01c15.654,0 31.976,6.277 36.456,14.01Z" style="fill:#00252a;fill-rule:nonzero;"/><path id="col_tecoman" d="M4474.889,1915.922c4.483,7.739 -4.566,14.01 -20.224,14.01c-15.654,0 -31.972,-6.27 -36.456,-14.01c-4.478,-7.731 4.566,-14.01 20.224,-14.01c15.654,0 31.978,6.279 36.456,14.01Z" style="fill:#00252a;fill-rule:nonzero;"/><path id="gto_leon" d="M4836.219,1608.456c4.483,7.739 -4.566,14.01 -20.224,14.01c-15.638,0 -31.952,-6.27 -36.436,-14.01c-4.478,-7.731 4.566,-14.01 20.204,-14.01c15.654,0 31.976,6.277 36.456,14.01Z" style="fill:#00252a;fill-rule:nonzero;"/><path id="gto" d="M4909.125,1636.475c4.483,7.739 -4.566,14.01 -20.224,14.01c-15.638,0 -31.972,-6.27 -36.456,-14.01c-4.478,-7.731 4.582,-14.01 20.224,-14.01c15.654,0 31.976,6.277 36.456,14.01Z" style="fill:#00252a;fill-rule:nonzero;"/><path id="qro" d="M5186.431,1673.562c4.483,7.739 -4.566,14.01 -20.224,14.01c-15.638,0 -31.972,-6.27 -36.456,-14.01c-4.483,-7.739 4.582,-14.01 20.224,-14.01c15.654,0 31.972,6.27 36.456,14.01Z" style="fill:#00252a;fill-rule:nonzero;"/><path id="hgo" d="M5622.825,1739.332c4.483,7.739 -4.566,14.01 -20.224,14.01c-15.638,0 -31.952,-6.27 -36.436,-14.01c-4.478,-7.731 4.572,-14.001 20.21,-14.001c15.654,0 31.972,6.27 36.45,14.001Z" style="fill:#00252a;fill-rule:nonzero;"/><path id="ver_tampico" d="M5673.44,1487.45c4.478,7.731 -4.566,14.01 -20.224,14.01c-15.654,0 -31.976,-6.277 -36.456,-14.01c-4.483,-7.739 4.566,-14.01 20.224,-14.01c15.654,0 31.972,6.27 36.456,14.01Z" style="fill:#00252a;fill-rule:nonzero;"/><path id="cdmx" d="M5565.398,1846.508c4.483,7.739 -4.586,14.01 -20.224,14.01c-15.654,0 -31.972,-6.27 -36.456,-14.01c-4.478,-7.731 4.566,-14.01 20.224,-14.01c15.638,0 31.976,6.277 36.456,14.01Z" style="fill:#00252a;fill-rule:nonzero;"/><path id="edomex" d="M5446.915,1853.327c4.483,7.739 -4.586,14.01 -20.224,14.01c-15.654,0 -31.972,-6.27 -36.456,-14.01c-4.483,-7.739 4.566,-14.01 20.224,-14.01c15.638,0 31.972,6.27 36.456,14.01Z" style="fill:#00252a;fill-rule:nonzero;"/><path id="mor" d="M5575.004,1912.008c4.478,7.731 -4.572,14.001 -20.23,14.001c-15.654,0 -31.972,-6.27 -36.45,-14.001c-4.483,-7.739 4.566,-14.01 20.224,-14.01c15.654,0 31.972,6.27 36.456,14.01Z" style="fill:#00252a;fill-rule:nonzero;"/><path id="tlax" d="M5818.517,1839.319c4.483,7.739 -4.566,14.01 -20.224,14.01c-15.638,0 -31.972,-6.27 -36.456,-14.01c-4.478,-7.731 4.586,-14.01 20.224,-14.01c15.654,0 31.976,6.277 36.456,14.01Z" style="fill:#00252a;fill-rule:nonzero;"/><path id="pue" d="M5858.956,1909.129c4.483,7.739 -4.566,14.01 -20.224,14.01c-15.638,0 -31.972,-6.27 -36.456,-14.01c-4.483,-7.739 4.586,-14.01 20.224,-14.01c15.654,0 31.972,6.27 36.456,14.01Z" style="fill:#00252a;fill-rule:nonzero;"/><path id="ver_xalapa" d="M6125.781,1812.917c4.478,7.731 -4.566,14.01 -20.204,14.01c-15.654,0 -31.976,-6.277 -36.456,-14.01c-4.483,-7.739 4.566,-14.01 20.224,-14.01c15.638,0 31.952,6.27 36.436,14.01Z" style="fill:#00252a;fill-rule:nonzero;"/><path id="ver_orizaba" d="M6137.738,1915.922c4.483,7.739 -4.566,14.01 -20.224,14.01c-15.654,0 -31.972,-6.27 -36.456,-14.01c-4.478,-7.731 4.566,-14.01 20.224,-14.01c15.654,0 31.978,6.279 36.456,14.01Z" style="fill:#00252a;fill-rule:nonzero;"/><path id="ver" d="M6325.43,1878.803c4.478,7.731 -4.586,14.01 -20.224,14.01c-15.654,0 -31.976,-6.277 -36.456,-14.01c-4.483,-7.739 4.566,-14.01 20.224,-14.01c15.638,0 31.972,6.27 36.456,14.01Z" style="fill:#00252a;fill-rule:nonzero;"/><path id="ver_coatzacoalcos" d="M6872.82,2013.818c4.483,7.739 -4.582,14.01 -20.224,14.01c-15.654,0 -31.972,-6.27 -36.456,-14.01c-4.478,-7.731 4.566,-14.01 20.224,-14.01c15.638,0 31.976,6.277 36.456,14.01Z" style="fill:#00252a;fill-rule:nonzero;"/><path id="gro" d="M5618.986,2080.531c4.483,7.739 -4.566,14.01 -20.224,14.01c-15.654,0 -31.972,-6.27 -36.456,-14.01c-4.483,-7.739 4.566,-14.01 20.224,-14.01c15.654,0 31.972,6.27 36.456,14.01Z" style="fill:#00252a;fill-rule:nonzero;"/><path id="gro_acapulco" d="M5569.381,2169.799c4.478,7.731 -4.582,14.01 -20.224,14.01c-15.654,0 -31.976,-6.277 -36.456,-14.01c-4.483,-7.739 4.566,-14.01 20.224,-14.01c15.638,0 31.972,6.27 36.456,14.01Z" style="fill:#00252a;fill-rule:nonzero;"/><path id="oax" d="M6375.646,2146.417c4.483,7.739 -4.566,14.01 -20.224,14.01c-15.638,0 -31.972,-6.27 -36.456,-14.01c-4.483,-7.739 4.586,-14.01 20.224,-14.01c15.654,0 31.972,6.27 36.456,14.01Z" style="fill:#00252a;fill-rule:nonzero;"/><path id="tab" d="M7263.923,2013.818c4.483,7.739 -4.566,14.01 -20.204,14.01c-15.654,0 -31.972,-6.27 -36.456,-14.01c-4.478,-7.731 4.566,-14.01 20.224,-14.01c15.638,0 31.957,6.277 36.436,14.01Z" style="fill:#00252a;fill-rule:nonzero;"/><path id="chp" d="M7337.014,2188.881c4.483,7.739 -4.582,14.01 -20.224,14.01c-15.654,0 -31.972,-6.27 -36.456,-14.01c-4.478,-7.731 4.566,-14.01 20.224,-14.01c15.638,0 31.976,6.277 36.456,14.01Z" style="fill:#00252a;fill-rule:nonzero;"/><path id="cam" d="M7762.567,1768.467c4.483,7.739 -4.566,14.01 -20.224,14.01c-15.654,0 -31.972,-6.27 -36.456,-14.01c-4.483,-7.739 4.566,-14.01 20.224,-14.01c15.654,0 31.972,6.27 36.456,14.01Z" style="fill:#00252a;fill-rule:nonzero;"/><path id="yuc" d="M7838.513,1614.733c4.483,7.739 -4.566,14.01 -20.224,14.01c-15.638,0 -31.972,-6.27 -36.456,-14.01c-4.483,-7.739 4.582,-14.01 20.224,-14.01c15.654,0 31.972,6.27 36.456,14.01Z" style="fill:#00252a;fill-rule:nonzero;"/><path id="qroo" d="M8280.235,1933.182c4.483,7.739 -4.566,14.01 -20.224,14.01c-15.638,0 -31.972,-6.27 -36.456,-14.01c-4.483,-7.739 4.582,-14.01 20.224,-14.01c15.654,0 31.972,6.27 36.456,14.01Z" style="fill:#00252a;fill-rule:nonzero;"/><path id="nay" d="M3987.386,1555.233c4.483,7.739 -4.582,14.01 -20.224,14.01c-15.654,0 -31.972,-6.27 -36.456,-14.01c-4.483,-7.739 4.566,-14.01 20.224,-14.01c15.638,0 31.972,6.27 36.456,14.01Z" style="fill:#00252a;fill-rule:nonzero;"/><path id="sin_mazatlan" d="M3496.313,1327.667c4.483,7.739 -4.572,14.001 -20.23,14.001c-15.638,0 -31.947,-6.262 -36.43,-14.001c-4.488,-7.747 4.566,-14.01 20.204,-14.01c15.654,0 31.967,6.262 36.456,14.01Z" style="fill:#00252a;fill-rule:nonzero;"/><path id="sin" d="M3119.263,1120.456c4.483,7.739 -4.566,14.01 -20.224,14.01c-15.654,0 -31.972,-6.27 -36.456,-14.01c-4.483,-7.739 4.566,-14.01 20.224,-14.01c15.654,0 31.972,6.27 36.456,14.01Z" style="fill:#00252a;fill-rule:nonzero;"/><path id="bcs_santa_rosalia" d="M1720.767,746.06c4.478,7.731 -4.582,14.01 -20.224,14.01c-15.654,0 -31.972,-6.277 -36.452,-14.01c-4.483,-7.739 4.566,-14.01 20.22,-14.01c15.638,0 31.972,6.27 36.456,14.01Z" style="fill:#00252a;fill-rule:nonzero;"/><path id="bcs" d="M2441.162,1189.216c4.483,7.739 -4.566,14.01 -20.22,14.01c-15.654,0 -31.972,-6.27 -36.456,-14.01c-4.478,-7.731 4.572,-14.001 20.23,-14.001c15.654,0 31.968,6.27 36.446,14.001Z" style="fill:#00252a;fill-rule:nonzero;"/></g></svg>