<?xml version="1.0" encoding="UTF-8" standalone="no"?><!DOCTYPE svg PUBLIC "-//W3C//DTD SVG 1.1//EN" "http://www.w3.org/Graphics/SVG/1.1/DTD/svg11.dtd"><svg width="100%" height="100%" viewBox="0 0 1246 1379" version="1.1" xmlns="http://www.w3.org/2000/svg" xmlns:xlink="http://www.w3.org/1999/xlink" xml:space="preserve" xmlns:serif="http://www.serif.com/" style="fill-rule:evenodd;clip-rule:evenodd;stroke-linejoin:round;stroke-miterlimit:2;"><g id="c2d7fcce31c2573e93269af42c7d638b1251d6bbdbfb93c17e0c6081b072d981.png"><path d="M73.591,983.205c0,-12.782 0,-62.25 0.574,-159.778c1.272,-216.29 -0.057,-216.195 0.563,-382.539c0.277,-74.336 -3.215,-77.884 9.12,-85.346c5.622,-3.401 445.438,-240.578 501.558,-270.083c5.604,-2.946 23.585,-14.163 30.065,-13.906c3.848,0.153 4.247,0.169 43.157,21.334c5.786,3.147 71.866,39.092 72.317,39.361c2.512,1.505 405.201,217.235 412.482,221.219c14.721,8.055 12.714,14.484 12.69,34.132c-0.521,425.935 1.415,473.611 0.729,590.753c-0.094,16.119 2.482,19.969 -17.885,30.209c-49.676,24.976 -48.668,26.709 -101.041,54.438c-42.343,22.419 -42.104,22.83 -45.802,24.746c-37.238,19.295 -146.212,79.245 -158.231,85.392c-25.303,12.939 -52.814,28.755 -53.327,29.016c-19.319,9.844 -124.91,67.695 -144.913,78.282c-16.123,8.534 -18.321,9.713 -24.868,7.45c-2.126,-0.735 -118.571,-64.161 -121.931,-66.057c-30.514,-17.224 -332.104,-180.081 -333.353,-180.704c-23.637,-11.776 -61.387,-32.882 -66.672,-35.837c-12.619,-7.055 -13.763,-7.645 -15.232,-22.084Z" style="fill:#6dc0ab;"/><path d="M1125.415,789.533c-0.142,33.893 -0.283,67.786 -0.425,101.678c-0.21,65.009 1.701,79.924 -3.236,85.632c-3.621,4.187 -226.108,122.475 -240.598,131.178c-14.096,8.466 -70.309,37.889 -76.002,41.343c-5.352,3.247 -157.481,85.8 -169.595,92.064c-14.693,7.598 -18.476,11.62 -28.764,6.224c-6.598,-3.46 -46.048,-24.152 -82.099,-43.953c-89.137,-48.958 -89.611,-48.06 -97.248,-52.515c-27.016,-15.759 -294.207,-159.576 -312.095,-170.838c-12.762,-8.035 -9.243,-11.283 -9.417,-60.083c-0.142,-39.904 -1.421,-398.411 -0.639,-498.803c0.289,-37.111 -1.726,-40.344 4.299,-45.948c4.482,-4.168 161.012,-85.515 320.752,-173.688c7.749,-4.278 64.271,-35.476 97.305,-52.667c41.758,-21.731 55.4,-30.03 72.596,-39.011c15.354,-8.02 17.082,-6.917 43.734,7.17c4.756,2.514 54.424,28.766 59.36,31.58c37.988,21.653 38.578,20.526 41.866,22.431c40.626,23.546 323.798,173.996 335.904,180.941c30.331,17.402 43.061,18.322 44.642,30.251c0.125,0.939 0.365,324.276 -0.338,407.013Z" style="fill:#051518;"/><path d="M523.361,779.893c0.345,1.543 1.535,2.813 1.88,4.356c2.342,10.463 -4.306,38.019 7.37,40.817c2.131,0.511 157.843,1.399 165.466,0.258c11.266,-1.686 9.002,-11.753 9.234,-26.106c0.643,-16.016 -1.365,-21.667 14.678,-22.223c8.53,-0.296 93.719,0.232 97.223,-0.639c7.031,-1.749 6.153,-4.244 6.954,-40.077c0.558,-24.95 0.44,-187.122 0.428,-203.394c-0.012,-15.944 2.653,-25.298 -12.524,-25.731c-36.743,-1.05 -83.476,2.025 -88.092,-2.407c-4.985,-4.787 -3.791,-28.882 0.074,-30.923c6.769,-3.574 17.781,-1.145 112.177,-2.331c29.294,-0.368 26.63,10.683 26.811,46.858c0.142,28.278 0.957,191.064 0.396,353.477c-0.052,15.073 2.32,30.56 -22.359,30.942c-35.256,0.546 -35.223,-0.676 -440.759,-0.019c-21.964,0.036 -35.002,1.748 -35.185,-25.998c-0.071,-10.759 0.986,-386.977 1.025,-387.489c1.72,-22.074 12.059,-17.286 106.82,-17.483c22.819,-0.048 31.522,-2.211 32.162,12.679c0.069,1.594 0.703,16.351 -2.673,19.768c-3.795,3.841 -4.785,2.022 -77.942,2.755c-1.452,0.015 -15.316,0.153 -17.904,2.96c-4.016,4.357 -2.128,5.421 -1.673,211.789c0.112,50.967 0.183,52.436 4.626,54.21c5.001,1.997 103.311,0.289 106.629,1.276c1.856,0.552 3.3,2.124 5.156,2.676Z" style="fill:#69cba0;"/><path d="M550.205,377.843c0.117,-0.988 -1.544,-12.328 7.127,-14.405c5.039,-1.207 112.788,-0.938 115.949,0.505c6.818,3.112 4.648,14.428 5.354,101.127c0.776,95.349 0.407,95.707 2.614,98.578c3.526,4.588 8.161,3.282 35.86,3.786c36.009,0.655 38.895,-1.02 38.966,4.134c0.05,3.631 -0.376,3.586 -3.091,6.068c-4.434,4.053 -64.275,65.782 -67.454,68.894c-9.988,9.776 -45.093,48.836 -61.274,64.701c-10.301,10.1 -13.116,6.091 -22.778,-4.554c-57.873,-63.759 -95.293,-100.854 -103.861,-109.348c-23.41,-23.207 -24.096,-23.026 -24.161,-25.857c-0.173,-7.609 3.635,-4.745 11.232,-4.167c16.936,1.289 49.003,-0.24 53.259,-0.442c14.382,-0.686 11.484,-12.796 11.584,-29.176c0.49,-79.967 0.246,-79.857 0.673,-159.844Z" style="fill:#89dcb4;"/><path d="M276.636,735.709c-0.402,3.074 -0.804,6.149 -1.207,9.223c-5.712,2.398 -9.683,5.034 -13.287,6.271c-1.115,0.383 -5.604,1.923 -13.495,5.922c-7.934,4.02 -7.419,4.775 -15.277,8.849c-2.209,1.145 -11.48,5.951 -25.082,18.382c-2.84,2.595 -22.363,20.438 -27.67,39.33c-17.089,60.83 83.822,102.921 85.006,103.536c86.698,45.06 251.812,57.199 296.699,58.622c107.571,3.412 127.723,-2.654 179.157,-5.295c9.765,-0.501 96.059,-10.609 150.599,-23.957c17.529,-4.29 18.281,-4.985 23.782,-16.836c5.76,-12.409 22.306,-25.451 43.795,-15.373c9.921,4.653 10.689,4.45 22.841,-1.372c35.251,-16.89 52.423,-35.724 56.131,-39.792c3.345,-3.669 27.667,-30.346 17.061,-59.665c-24.131,-66.709 -136.891,-87.517 -139.863,-92.259c-0.957,-1.527 -0.134,-7.133 0.566,-7.487c9.79,-4.946 94.467,25.286 124.174,47.743c30.701,23.207 38.421,42.227 40.279,46.805c4.509,11.11 27.192,66.998 -87.47,121.701c-12.946,6.176 -15.139,5.244 -19.077,19.117c-5.396,19.008 -29.533,31.403 -49.918,15.702c-8.062,-6.21 -8.814,-5.327 -18.782,-3.611c-12.252,2.11 -12.037,2.585 -24.242,5.059c-74.314,15.065 -89.852,14.765 -96.543,15.634c-89.387,11.615 -138.911,11.165 -222.621,9.102c-69.056,-1.702 -233.607,-16.807 -333.794,-71.818c-117.222,-64.365 -74.677,-140.729 18.951,-183.391c23,-10.48 23.394,-9.104 29.286,-10.143Z" style="fill:#6ad9b7;"/><path d="M514.212,578.282c1.482,0.19 2.573,1.72 4.054,1.91c4.13,0.529 35.932,-1.132 39.054,-1.295c1.669,-0.087 3.341,0.103 5.013,0.113c7.316,0.044 7.006,-1.974 14.299,-2.212c0.779,-0.025 8.474,-0.276 9.734,-0.275c17.939,0.01 25.72,-7.246 29.041,-5.95c2.088,0.815 2.95,3.453 4.818,4.691c7.762,5.146 8.873,-2.555 38.763,0.372c3.365,0.031 6.731,0.062 10.096,0.093c7.438,2.548 7.404,2.496 8.034,2.752c10.061,4.077 42.755,1.213 44.981,2.09c1.527,0.602 2.079,2.98 1.775,4.593c-0.432,2.292 -0.826,2.137 -19.678,21.508c-78.979,81.151 -76.148,83.963 -84.35,89.384c-3.813,2.52 -5.339,2.66 -17.022,-9.823c-46.961,-50.176 -46.764,-50.184 -94.699,-99.613c2.029,-2.779 4.059,-5.558 6.088,-8.337Z" style="fill:#30a978;"/><path d="M615.37,1090.518l4.187,-0.14c0.232,0.586 2.897,7.329 2.897,7.329c3.409,4.902 7.173,6.34 7.487,6.618l-0.695,4.735c0.108,1.755 4.01,1.542 4.118,3.297c0.085,1.378 -4.391,-2.863 -12.782,11.586l-5.041,1.777c-1.374,-0.421 -2.547,2.212 -3.921,1.791c-0.163,-0.05 -2.714,-11.034 -14.366,-14.877c-15.028,-4.956 2.425,-7.191 8.183,-13.469c9.01,-9.824 5.969,-11.684 6.959,-12.218c1.363,-0.735 1.611,4.305 2.974,3.57Z" style="fill:#abefd9;"/><path d="M238.723,620.186l-1.087,4.64c-0.267,0.278 -2.649,1.287 -4.735,4.945c-1.726,3.028 -1.334,3.213 -1.588,3.37c-1.034,0.637 -2.429,-0.239 -3.64,-0.149c-1.289,0.096 -2.616,1.19 -3.813,0.703c-1.024,-0.417 -0.921,-2.034 -1.6,-2.907c-3.347,-4.301 -2.822,-5.044 -8.075,-6.841c-1.383,-0.473 -2.939,-0.364 -4.285,-0.935c-0.539,-0.228 -9.729,-4.123 -0.672,-7.286c1.178,-0.412 2.384,-0.744 3.557,-1.169c8.988,-3.251 7.741,-9.338 15.023,-8.429c3.346,0.418 2.816,1.32 5.332,3.927c6.749,6.994 8.336,5.207 8.389,6.032c0.108,1.652 -2.915,2.445 -2.807,4.098Z" style="fill:#88e3be;"/><path d="M292.503,839.818c1.23,-0.26 2.113,-1.487 3.343,-1.747c6.699,-1.414 13.338,4.928 9.414,14.264c-3.908,9.298 -19.992,1.714 -14.978,-10.04c0.435,-1.02 1.785,-1.457 2.22,-2.477Z" style="fill:#a1edcf;"/><path d="M977.757,478.25c0.751,-0.104 1.216,-1.039 1.968,-1.143c0.956,-0.132 9.552,-1.324 9.6,7.302c0.054,9.747 -15.003,11.133 -14.841,0.063c0.088,-6.019 2.61,-4.962 3.273,-6.222Z" style="fill:#70ddaf;"/><path d="M276.636,735.709c0.052,-0.024 3.87,-3.124 9.502,-4.418c0.774,-0.178 8.599,-1.975 9.926,0.005c2.238,3.338 0.014,3.258 -3.315,5.653c-2.109,1.517 -1.539,2.701 -7.144,3.632c-7.366,1.224 -6.644,2.841 -10.175,4.351c0.402,-3.074 0.804,-6.149 1.207,-9.223Z" style="fill:#021f1b;"/><path d="M271.504,677.616c-1.219,-0.66 -2.887,0.011 -4.106,-0.649c-0.646,-0.35 -6.633,-3.591 -1.216,-9.104c1.421,-1.447 3.964,-1.405 5.975,-1.145c3.008,0.389 5.497,6.857 2.586,9.499c-0.871,0.791 -2.368,0.61 -3.24,1.4Z" style="fill:#269c6a;"/><path d="M751.571,1055.029c-0.129,-1.41 -2.267,-2.098 -2.396,-3.508c-0.072,-0.784 -0.707,-7.711 7.125,-6.783c4.756,0.564 5.543,10.463 -0.442,11.091c-1.446,0.152 -2.841,-0.953 -4.287,-0.801Z" style="fill:#32b994;"/><path d="M462.554,1054.255c-0.084,-1.184 -1.238,-2.123 -1.322,-3.307c-0.039,-0.553 -0.377,-5.279 3.561,-5.952c8.218,-1.405 7.771,5.71 7.72,6.517c-0.346,5.497 -6.542,4.468 -7.206,4.357c-1.049,-0.174 -1.703,-1.441 -2.753,-1.615Z" style="fill:#3ca483;"/><path d="M1056.132,609.959c-0.938,-0.801 -2.553,-0.428 -3.491,-1.229c-3.083,-2.634 -0.447,-9.467 3.402,-9.533c4.508,-0.078 7.007,7.086 3.78,9.629c-1.011,0.797 -2.68,0.337 -3.691,1.134Z" style="fill:#197f5d;"/><path d="M295.7,518.236c1.847,0.178 3.495,-1.742 5.342,-1.564c0.076,0.007 7.205,3.516 1.743,8.906c-4.63,4.569 -8.466,-1.423 -8.53,-2.006c-0.2,-1.832 1.644,-3.504 1.445,-5.336Z" style="fill:#0e604a;"/><path d="M1176.389,775.004c1.333,2.114 4.391,2.73 5.725,4.844c3.163,5.015 -0.314,7.905 -4.925,4.186c-0,-0 -0.736,-8.308 -0.8,-9.03Z" style="fill:#102a2b;"/><path d="M514.212,578.282c-2.029,2.779 -4.059,5.558 -6.088,8.337c-0.575,-0.895 -2.059,-0.905 -2.634,-1.8c-0.361,-0.562 -3.57,-5.559 3.396,-7.622c1.737,-0.514 3.589,1.598 5.326,1.084Z" style="fill:#58c391;"/><path d="M658.988,575.636c0.65,-0.193 8.129,-2.414 8.129,-2.414c1.696,0.53 0.325,1.995 1.966,2.507c-3.365,-0.031 -6.731,-0.062 -10.096,-0.093Z" style="fill:#4aba8a;"/><path d="M396.036,785.42c-0.137,-0.436 -1.715,-5.453 -1.715,-5.453c0.118,-0.273 2.143,-4.974 3.031,-2.149c1.234,3.926 -2.528,3.748 -1.316,7.602Z" style="fill:#6fd2a5;"/></g></svg>