<?xml version="1.0" encoding="UTF-8" standalone="no"?><!DOCTYPE svg PUBLIC "-//W3C//DTD SVG 1.1//EN" "http://www.w3.org/Graphics/SVG/1.1/DTD/svg11.dtd"><svg width="100%" height="100%" viewBox="0 0 1246 1379" version="1.1" xmlns="http://www.w3.org/2000/svg" xmlns:xlink="http://www.w3.org/1999/xlink" xml:space="preserve" xmlns:serif="http://www.serif.com/" style="fill-rule:evenodd;clip-rule:evenodd;stroke-linejoin:round;stroke-miterlimit:2;"><g id="fa5ba7914ae01e554c4e1c9499365621204a78d65158c188122f4834fcd9d404.png"><path d="M1158.753,378.559c4.297,9.504 4.687,9.421 4.624,24.485c-1.291,308.565 7.921,526.317 -0.752,571.779c-15.681,12.408 -16.591,10.947 -526.836,285.485c-24.379,13.117 -26.458,6.87 -45.894,-3.683c-40.151,-21.801 -425.573,-231.076 -501.525,-273.185c-19.515,-10.819 -16.672,-15.809 -15.728,-96.039c2.212,-187.994 1.308,-502.403 1.469,-503.647c0.699,-5.384 0.315,-7.678 92.618,-56.694c261.635,-138.935 260.491,-140.571 283.343,-152.414c158.908,-82.35 159.757,-91.517 174.33,-82.789c43.054,25.785 512.511,272.357 534.351,286.701Z" style="fill:#b84142;"/><path d="M1132.481,579.149c-1.714,371.329 -4.133,371.473 -5.721,373.462c-4.939,6.186 -501.891,274.497 -511.122,274.552c-10.415,0.062 -374.754,-202.659 -488.451,-262.876c-26.595,-14.085 -19.91,-21.01 -20.34,-76.883c-3.54,-459.681 0.865,-489.378 5.353,-493.578c3.781,-3.539 230.358,-124.456 250.445,-135.176c102.224,-54.554 110.125,-58.481 119.834,-63.306c34.222,-17.009 123.459,-72.506 138.661,-67.965c3.815,1.14 506.285,266.191 508.594,270.503c1.998,3.732 2.822,3.949 2.747,181.268Z" style="fill:#26040b;"/><path d="M748.93,426.274c29.416,31.209 -10.724,22.151 -64.722,22.304c-16.001,0.045 -12.542,13.187 -12.62,76.828c-0.084,68.857 5.665,80.93 -16.824,81.699c-91.705,3.133 -92.901,2.689 -98.267,-3.061c-6.04,-6.472 -0.764,-133.971 -2.851,-147.633c-3.264,-21.358 -115.404,11.837 -81.617,-25.649c2.892,2.042 3.747,6.247 6.639,8.289c11.311,7.985 95.239,-87.966 128.33,-118.049c13.35,-12.136 11.603,5.209 29.494,16.692c4.691,3.011 4.318,3.04 8.214,7.014c31.59,32.233 30.911,32.793 33.803,35.436c16.829,15.378 55.998,57.579 64.358,53.396c2.821,-1.412 3.241,-5.855 6.062,-7.267Z" style="fill:#e34a44;"/><path d="M521.319,549.765c-22.208,2.484 -22.938,-0.888 -43.011,8.576c-8.414,3.967 -47.578,3.844 -88.862,24.666c-0.867,0.437 -15.92,8.03 -4.117,11.424c2.198,0.632 1.193,2.383 24.989,13.884c14.682,3.908 181.867,52.244 186.938,58.034c6.237,7.123 -1.811,7.489 -53.252,99.714c-13.521,24.24 -21.649,13.932 -65.777,0.438c-13.749,-4.204 -160.75,-49.154 -171.202,-54.68c-8.588,-4.54 -3.834,-8.515 45.158,-112.716c6.293,-13.385 1.705,-33.163 140.936,-60.19c19.112,-3.71 27.445,-8.584 28.202,10.85Z" style="fill:#fc6e66;"/><path d="M815.621,607.639c-0.538,-6.9 -0.181,-7.008 -0.581,-7.452c-5.626,-6.231 -8.637,1.827 -102.193,-23.841c-14.116,-3.873 -8.266,-35.494 -8.096,-35.883c2.9,-6.63 30.517,-0.452 33.102,0.127c79.657,17.821 117.355,20.018 135.229,59.128c45.44,99.429 59.517,106.672 41.689,112.978c-17.054,6.032 -17.19,5.221 -215.936,67.063c-4.074,-24.401 -6.608,-23.247 -17.968,-44.838c-20.436,-38.839 -29.285,-51.117 -25.346,-57.413c4.776,-7.634 179.249,-54.07 189.555,-64.595c10.17,-10.386 -9.536,-17.916 -29.453,-5.274Z" style="fill:#fc6961;"/><path d="M615.741,725.931c50.593,56.944 36.783,102.51 97.935,83.813c101.7,-31.094 139.788,-49.238 141.024,-34.737c7.579,88.927 -1.375,91.843 -8.569,94.186c-211.505,68.892 -211.044,69.422 -230.043,72.84c-0.636,-3.577 -1.271,-7.154 -1.907,-10.732c0.335,-170.803 -0.62,-170.762 1.56,-205.371Z" style="fill:#77191c;"/><path d="M595.196,745.088c0.346,2.146 3.422,3.177 3.768,5.323c0.873,5.418 -1.94,5.382 -0.2,68.6c0.895,32.519 0.708,91.816 0.724,93.001c0.226,16.894 14.145,18.933 14.694,19.29c0.636,3.577 1.271,7.154 1.907,10.732c-19.287,-0.273 -30.855,-6.447 -113.606,-32.828c-94.423,-30.102 -94.377,-29.173 -122.258,-39.958c-13.389,-5.179 -10.158,-32.921 -10.416,-65.019c-0.198,-24.587 -5.502,-41.006 16.957,-31.138c1.455,10.534 1.784,10.301 1.189,21.117c12.338,10.108 11.73,12.062 27.518,13.746c63.748,6.799 59.299,23.846 121.961,34.82c5.339,0.935 28.976,-6.714 30.309,-8.6c1.268,-1.795 2.276,-1.183 8.146,-34.837c0.793,-4.547 0.792,-4.55 0.597,-4.893c-2.292,-4.046 -4.389,-1.8 -6.68,-5.844c1.955,-3.524 13.848,-24.959 25.39,-43.513Z" style="fill:#ef574e;"/><path d="M920.951,962.027c-48.234,38.933 -492.319,91.887 -688.27,-33.413c-162.154,-103.689 59.829,-199.49 75.521,-189.111c5.826,3.854 4.719,6.592 -1.746,9.177c-253.317,101.281 -25.339,250.14 328.768,240.445c201.486,-5.516 278.765,-45.615 283.885,-38.604c0.55,0.753 0.136,0.852 1.842,11.505Z" style="fill:#ee6059;"/><path d="M748.93,426.274c-2.821,1.412 -3.241,5.855 -6.062,7.267c-8.359,4.183 -47.529,-38.018 -64.358,-53.396c-2.892,-2.643 -2.213,-3.203 -33.803,-35.436c-3.896,-3.975 -3.523,-4.004 -8.214,-7.014c-17.892,-11.483 -16.145,-28.828 -29.494,-16.692c-33.091,30.082 -117.019,126.034 -128.33,118.049c-2.892,-2.042 -3.747,-6.247 -6.639,-8.289c15.169,-14.496 128.116,-127.167 133.78,-130.561c13.088,-7.843 16.871,-2.693 143.12,126.073Z" style="fill:#fc786c;"/><path d="M815.621,607.639c19.917,-12.642 39.623,-5.112 29.453,5.274c-10.306,10.525 -184.779,56.961 -189.555,64.595c-3.939,6.295 4.91,18.574 25.346,57.413c11.361,21.591 13.895,20.437 17.968,44.838c-3.599,-0.318 -9.066,4.005 -17.39,-11.03c-53.345,-96.35 -57.915,-100.023 -49.93,-104.758c8.53,-5.058 146.111,-45.485 184.108,-56.331Z" style="fill:#fb8c7d;"/><path d="M992.279,916.654c17.569,-14.163 47.239,-32.566 54.572,-58.382c23.219,-81.743 -130.906,-113.685 -131.72,-122.906c-1.383,-15.656 138.113,25.736 156.488,88.107c18.479,62.725 -56.699,100.292 -69.494,107.837c-8.99,-13.203 -8.994,-13.073 -9.846,-14.656Z" style="fill:#e6443f;"/><path d="M386.765,773.09c5.874,1.373 7.441,1.739 72.185,21.808c78.494,24.331 90.225,32.677 110.855,-6.298c2.291,4.043 4.388,1.798 6.68,5.844c0.194,0.343 0.196,0.346 -0.597,4.893c-5.87,33.654 -6.878,33.042 -8.146,34.837c-1.333,1.886 -24.97,9.535 -30.309,8.6c-62.662,-10.974 -58.213,-28.021 -121.961,-34.82c-15.788,-1.684 -15.18,-3.638 -27.518,-13.746c0.595,-10.817 0.265,-10.583 -1.189,-21.117Z" style="fill:#ae3e3b;"/><path d="M521.319,549.765c-0.535,15.244 3.421,16.638 -3.942,23.985c-5.2,5.189 -109.221,25.575 -109.982,27.129c-0.281,0.574 0.211,0.537 2.923,7.435c-23.795,-11.501 -22.791,-13.252 -24.989,-13.884c-11.803,-3.394 3.25,-10.986 4.117,-11.424c41.284,-20.822 80.448,-20.699 88.862,-24.666c20.073,-9.464 20.803,-6.092 43.011,-8.576Z" style="fill:#f9655c;"/><path d="M986.599,923.464c1.667,7.353 2.198,6.842 6.432,12.965c-3.908,42.92 -50.035,50.982 -63.57,14.41c-13.008,-42.999 36.194,-56.807 57.138,-27.375Z" style="fill:#f95452;"/><path d="M615.741,725.931c-2.18,34.609 -1.225,34.567 -1.56,205.371c-0.549,-0.357 -14.468,-2.395 -14.694,-19.29c-0.016,-1.185 0.171,-60.482 -0.724,-93.001c-1.739,-63.218 1.073,-63.181 0.2,-68.6c-0.346,-2.146 -3.422,-3.177 -3.768,-5.323c0.99,-2.165 12.2,-26.685 12.465,-27.021c0.558,-0.709 5.141,-5.733 8.08,7.864Z" style="fill:#fa7e71;"/><path d="M635.095,1092.996l0.63,4.803c-0.574,1.115 2.573,2.073 1.999,3.188c-0.949,1.844 -3.694,1.942 -5.31,3.241c-4.037,3.246 -10.239,21.707 -17.767,9.323c-6.758,-11.117 -10.987,-11.866 -12.349,-12.107c-0.707,-0.125 -31.214,-5.528 -5.111,-7.376c1.945,-0.138 14.444,-1.023 19.28,-14.907c4.628,-13.287 6.053,2.396 18.627,13.836Z" style="fill:#faab9f;"/><path d="M385.8,520.667c2.624,-0.889 53.166,-18.006 34.635,0.114c-1.967,1.923 -47.891,15.571 -49.707,15.416c-20.055,-1.716 13.461,-14.897 15.072,-15.53Z" style="fill:#931d23;"/><path d="M238.275,544.027c-25.118,-2.175 -11.555,-39.097 3.69,-26.441c12.458,10.342 5.745,13.15 -3.69,26.441Z" style="fill:#fdc9c0;"/><path d="M943.548,427.425l1.363,4.737c-0.055,0.78 3.999,1.619 -2.746,8.892c-9.434,10.173 -10.123,-0.534 -17.684,-4.25c-8.888,-4.367 -2.59,-6.956 5.857,-12.413c6.591,-4.258 7.213,-2.121 13.21,3.033Z" style="fill:#edafaa;"/><path d="M367.547,453.446c-0.592,0.125 -5.431,6.924 -12.129,-0.665c-11.086,-12.559 15.056,-21.692 14.867,-5.72c-0.059,5.012 -1.785,4.162 -2.738,6.384Z" style="fill:#efd2cc;"/><path d="M992.279,916.654c0.852,1.583 0.856,1.453 9.846,14.656c-3.353,2.821 -3.356,2.307 -9.094,5.119c-4.235,-6.123 -4.765,-5.612 -6.432,-12.965c1.893,-2.27 3.787,-4.54 5.68,-6.81Z" style="fill:#a02d2a;"/><path d="M320.799,527.741c7.569,21.051 -6.936,12.202 -7.767,11.469c-7.662,-6.76 -2.079,-8.879 7.767,-11.469Z" style="fill:#911019;"/><path d="M970.529,692.81c0.815,22.843 -11.474,3.919 -11.148,-0.801c0.062,-0.892 0.808,-11.69 11.148,0.801Z" style="fill:#c54447;"/><path d="M249.928,687.668c1.28,-0.205 1.795,-2.175 3.074,-2.38c7.969,-1.277 9.523,9.043 6.005,11.883c-7.899,6.375 -9.351,0.533 -9.079,-9.503Z" style="fill:#da5251;"/><path d="M1016.886,549.851c-1.782,-0.119 -3.339,1.693 -5.121,1.574c-10.312,-0.688 -2.334,-18.626 5.278,-11.597c1.881,1.736 1.834,4.707 1.827,5.144c-0.046,2.946 -1.941,2.123 -1.985,4.88Z" style="fill:#e56351;"/><path d="M1060.315,569.122c8.158,-5.552 13.562,-4.29 11.035,5.522c-0.246,0.956 -6.501,12.66 -11.035,-5.522Z" style="fill:#dd6c6b;"/><path d="M375.501,903.378c11.783,12.313 -6.012,11.512 -7.986,7.796c-3.559,-6.703 0.547,-6.433 7.986,-7.796Z" style="fill:#a72326;"/><path d="M827.413,917.216c7.302,-7.204 14.423,-6.216 11.183,3.691c-0.293,0.895 -5.302,14.086 -11.183,-3.691Z" style="fill:#931e21;"/><path d="M788.557,374.171c-16.873,10.959 -11.258,-4.102 -10.758,-4.905c0.413,-0.663 4.237,-6.806 9.716,-1.006c1.374,1.454 -0.332,4.457 1.042,5.911Z" style="fill:#9e2b33;"/><path d="M473.246,922.697c0.192,1.243 2.332,1.563 2.524,2.807c1.627,10.521 -12.506,10.078 -11.246,1.216c0.705,-4.959 2.732,-2.949 8.722,-4.023Z" style="fill:#a61c1d;"/><path d="M456.79,1056.542c-6.285,1.43 -9.323,4.778 -9.887,-1.908c-0.293,-3.472 12.333,-18.058 9.887,1.908Z" style="fill:#ca5a52;"/><path d="M879.558,520.049c-8.058,-1.04 -12.055,-1.558 -7.715,-8.139c3.039,-4.609 10.885,-0.751 10.645,3.249c-0.114,1.897 -2.815,2.994 -2.93,4.891Z" style="fill:#82151a;"/><path d="M790.304,1056.53c-8.169,0.123 -12.547,-0.749 -8.025,-7.495c0.489,-0.73 12.433,-11.621 8.025,7.495Z" style="fill:#982e32;"/><path d="M195.933,716.202c3.697,-5.08 3.679,-8.233 8.625,-4.74c2.038,1.439 2.407,23.256 -8.625,4.74Z" style="fill:#6a1116;"/><path d="M1015.456,712.682c0.599,16.453 -7.383,8.651 -8.014,8.001c-6.223,-6.416 -1.05,-8.461 8.014,-8.001Z" style="fill:#7d1316;"/><path d="M434.962,363.897c10.891,-13.773 11.078,-0.765 11.035,0.117c-0.425,8.873 -5.392,6.454 -11.035,-0.117Z" style="fill:#86161f;"/><path d="M390.654,858.03c3.732,1.08 7.463,2.16 11.195,3.24c-3.732,-1.08 -7.463,-2.16 -11.195,-3.24Z" style="fill:#fa5e53;"/></g></svg>