<?xml version="1.0" encoding="UTF-8" standalone="no"?><!DOCTYPE svg PUBLIC "-//W3C//DTD SVG 1.1//EN" "http://www.w3.org/Graphics/SVG/1.1/DTD/svg11.dtd"><svg width="100%" height="100%" viewBox="0 0 5192 5746" version="1.1" xmlns="http://www.w3.org/2000/svg" xmlns:xlink="http://www.w3.org/1999/xlink" xml:space="preserve" xmlns:serif="http://www.serif.com/" style="fill-rule:evenodd;clip-rule:evenodd;stroke-linejoin:round;stroke-miterlimit:2;"><g id="c2d7fcce31c2573e93269af42c7d638b1251d6bbdbfb93c17e0c6081b072d981.png"><path d="M354.846,2772.65c0.433,-282.092 0.867,-564.188 1.304,-846.279c0.329,-373.113 -13.717,-421.821 17.558,-444.671c13.242,-9.675 540.9,-287.7 691.3,-372.9c79.804,-45.208 352.262,-190.658 395.225,-215.429c38.658,-22.288 178.808,-95.975 182.746,-98.108c31.096,-16.85 370.733,-200.867 388.8,-210.442c344.267,-182.463 344.112,-181.95 373.933,-197.967c171.921,-92.329 171.221,-94.767 185.179,-96.379c25.592,-2.954 25.875,2.517 467.233,238.729c258.033,138.096 256.892,140.112 277.708,150.208c97.525,47.292 96.029,49.158 509.346,271.35c25.392,13.65 313.896,168.746 317.454,170.479c20.9,10.175 539.575,289.708 548.15,294.412c99.267,54.471 127.825,65.221 130.242,108.433c2.629,47.033 3.742,852.087 3.846,926.183c2.108,1520.392 13.233,1520.433 5.971,1652.429c-2.596,47.213 -9.238,51.975 -167.608,132.946c-68.283,34.913 -66.729,37.192 -134.771,73.083c-27.417,14.463 -306.754,161.808 -342.383,181.446c-32.225,17.762 -298.721,164.671 -403.363,221c-1081.079,581.992 -1076.792,590.283 -1174.342,633.642c-35.162,15.629 -38.354,9.137 -174.404,-60.871c-144.625,-74.425 -169.704,-94.175 -189.588,-104.554c-93.154,-48.629 -93.067,-48.329 -111.408,-58.508c-631.225,-350.367 -633.333,-346.058 -687.754,-377.312c-115.192,-66.15 -116.083,-63.829 -221.092,-122.138c-203.283,-112.892 -204.496,-109.867 -221.758,-120.329c-49.542,-30.029 -634.229,-343.908 -641.488,-348.188c-44.008,-25.967 -31.183,-46.217 -30.962,-292.037c0.079,-87.058 0.575,-638.25 4.933,-1088.229l-0.008,-0Z" style="fill:#8baeb1;"/><path d="M4718.867,1946.458c-0.404,1430.842 -6.438,1656.321 -4.404,1974.483c0.592,92.763 3.929,124.4 -25.283,143.904c-48.3,32.246 -870.583,469.667 -966.754,526.254c-16.142,9.496 -198.213,106.863 -221.633,120.629c-2.842,1.671 -539.917,292.917 -625.854,340.367c-164.608,90.887 -245.892,132.004 -246.267,132.175c-36.367,16.55 -55.425,3.517 -119.583,-30.808c-151.804,-81.212 -228.55,-129.317 -980.992,-535.412c-114.287,-61.683 -372.887,-206.333 -484.042,-262.754c-30.208,-15.333 -28.229,-18.792 -371.2,-203.775c-56.35,-30.392 -172.462,-85.871 -181.692,-107.083c-11.746,-27.008 -5.758,-28.446 -6.804,-606.696c-0.142,-78.346 -1.958,-1832.429 -1.929,-1833.696c1.379,-60.692 32.654,-60.692 88.779,-90.292c122.829,-64.771 1591.488,-860.6 1618.746,-874.358c18.017,-9.092 15.85,-13.087 222.575,-118.733c132.271,-67.596 157.367,-110.267 235.892,-77.25c8.596,3.617 8.171,4.346 104.121,52.425c35.375,17.729 217.792,118.779 236.662,129.229c70.213,38.892 174.433,88.129 311.475,166.021c66.383,37.729 67.892,34.05 134.129,72.379c33.771,19.542 1007.387,540.933 1047.546,564.675c68.229,40.333 216.55,108.346 228.792,132.904c9.637,19.333 8.875,20.375 7.721,385.404l-0,0.008Z"/><path d="M2150.292,1941.283c6.596,6.767 28.446,8.287 30.171,66.021c1.583,52.954 0.746,110.712 0.608,120.337c-1.354,93.521 -20.725,91.592 -72.875,141.658c-218.458,209.742 -213.721,462.083 -213.854,483.337c-2.429,385.425 277.229,601.008 453.017,670.446c342.037,135.113 619.871,-13.154 710.046,-82.713c104.692,-80.75 126.013,-116.392 161.3,-162.808c17.858,-23.492 108.667,-142.938 128.571,-345.75c12.725,-129.671 -21.054,-250.896 -32.404,-280.062c-103.7,-266.488 -228.558,-291.963 -250.475,-347.762c-12.825,-32.658 -6.387,-227.058 -4.5,-235.921c0.808,-3.787 6.338,-29.75 35.646,-32.771c44.217,-4.554 260.717,154.904 354.329,298.888c97.988,150.713 107,204.729 130.937,275.858c25.483,75.725 25.154,76.129 38.1,222.304c15.321,173.017 -45.767,504.121 -321.404,766.588c-8.496,-7.35 -12.508,-19.008 -21.008,-26.358c-17.992,-15.558 -20.879,-7.383 -39.804,7.55c-196.742,155.25 -327.358,175.075 -404.742,194.875c-38.875,9.946 -232.083,59.379 -501.221,-19.846c-30.088,-8.858 -28.542,-12.046 -58.383,-21.988c-5.592,-1.862 -12.017,-0.658 -17.425,-3c-3.35,-1.45 -4.483,-6 -7.629,-7.854c-9.333,-5.508 -12.75,1.575 -120.938,-61.062c-210.388,-121.812 -307.371,-309.912 -324.7,-343.525c-54.721,-106.129 -55.708,-106.108 -82.825,-222.642c-12.542,-53.904 -15.158,-53.2 -21.175,-121.296c-0.604,-6.833 -0.275,-13.817 -1.821,-20.504c-1.621,-7.008 -7.342,-13.013 -7.583,-20.2c-0.104,-3.179 5.779,-1.942 5.996,-39.3c0.304,-52.017 2.142,-367.688 230.208,-608.125c4.688,-4.942 5.15,-4.342 61.625,-58.758c20.583,-19.833 23.488,-16.363 41.308,-39.154c2.737,-3.5 0.683,-9.837 4.096,-12.692c2.208,-1.846 4.296,2.617 31.642,-17.133c1.346,-0.971 20.475,-13.454 22.258,-14.617c3.746,-2.442 40.213,-26.238 42.571,-36.204c1.696,-7.158 -9.246,-12.971 -8.658,-20.304c0.35,-4.392 2.204,-3.237 30.988,-45.525l0.008,0.013Z" style="fill:#bad4d7;"/><path d="M2778.483,2531.183c-13.617,2.229 -12.471,5.058 -25.879,7.25c-10.133,1.658 -9.929,-1.038 -20.15,0.283c-6.858,0.883 -13.4,6.421 -20.15,4.917c-7.862,-1.75 -11.983,-11.954 -19.821,-13.821c-8.867,-2.117 -112.008,-1.746 -121.75,-1.708c-32.758,0.117 -37.325,-4.125 -55.842,22.896c-4.333,6.325 -6.746,13.842 -11.104,20.15c-2.846,4.121 -7.496,6.779 -10.342,10.9c-11.179,-10.425 -34.625,-3.767 -36,-71.517c-1.483,-73.154 -3.967,-926.879 -0.192,-945.858c12.333,-62.046 55.375,-47.788 154.288,-47.846c103.654,-0.062 164.604,-12.679 167.387,66.746c1.271,36.204 -0.529,376.988 -0.404,463.704c0.054,38.712 0.562,397.338 -0.046,483.908l0.004,-0.004Z" style="fill:#d0e4e8;"/><path d="M2150.292,1941.283c-28.779,42.287 -30.633,41.133 -30.988,45.525c-0.588,7.333 10.354,13.146 8.658,20.304c-2.358,9.967 -38.825,33.763 -42.571,36.204c-1.783,1.163 -20.912,13.646 -22.258,14.617c-27.346,19.75 -29.433,15.287 -31.642,17.133c-3.408,2.85 -1.358,9.187 -4.096,12.692c-17.821,22.792 -20.725,19.321 -41.308,39.154c-56.475,54.417 -56.938,53.817 -61.625,58.758c-228.062,240.438 -229.904,556.108 -230.208,608.125c-0.217,37.358 -6.104,36.121 -5.996,39.3c0.242,7.188 5.963,13.192 7.583,20.2c1.546,6.683 1.217,13.667 1.821,20.504c6.021,68.092 8.633,67.387 21.175,121.296c27.117,116.533 28.108,116.512 82.825,222.642c17.329,33.612 114.312,221.713 324.7,343.525c108.188,62.637 111.604,55.554 120.938,61.062c3.142,1.854 4.279,6.404 7.629,7.854c5.408,2.342 11.833,1.137 17.425,3c29.842,9.942 28.292,13.133 58.383,21.988c269.137,79.221 462.342,29.792 501.221,19.846c77.383,-19.8 208,-39.621 404.742,-194.875c18.925,-14.933 21.812,-23.108 39.804,-7.55c8.496,7.35 12.508,19.008 21.008,26.358c-431.763,379.979 -1084.258,326.667 -1437.85,-96.35c-68.75,-82.25 -79.925,-103.325 -125.717,-191.233c-56.883,-109.2 -98.242,-281.217 -100.467,-378.625c-11.983,-524.654 295.908,-761.963 436.204,-862.971c58.8,-42.333 75.446,-27.875 80.617,-28.479l-0.008,-0.004Z" style="fill:#d1e5e8;"/><path d="M2611.513,4586.175l-3.342,19.658c0.629,7.554 17.296,6.438 17.925,13.992c0.258,3.133 -16.358,-3.275 -40.042,21.887c-18.046,19.171 -23.975,56.717 -24.346,57.054c-4.446,4.008 -6.717,-18.075 -11.162,-14.067l-18.775,1.337c-9.533,-19.358 -16.104,-51.271 -57.233,-64.304c-24.058,-7.621 -38.071,-14.792 -17.3,-29.196c12.696,-8.8 31.433,1.883 59.654,-42.387c19.621,-30.779 13.421,-36.158 19.454,-36.808c0.683,-0.075 28.35,15.671 28.988,16.521c3.425,4.55 0.596,18.796 22.217,39.979c15.625,15.312 17.737,12.092 23.962,16.337l0,-0.004Z" style="fill:#d3e9ee;"/><path d="M2778.483,2531.183c-5.417,18.717 5.296,52.625 -66.488,55.292c-124.904,4.642 -201.142,-2.742 -218.55,-4.425c2.846,-4.121 7.496,-6.779 10.342,-10.9c4.358,-6.308 6.767,-13.825 11.104,-20.15c18.517,-27.021 23.083,-22.779 55.842,-22.896c9.742,-0.033 112.883,-0.404 121.75,1.708c7.833,1.871 11.958,12.071 19.821,13.821c6.75,1.504 13.292,-4.033 20.15,-4.917c10.221,-1.317 10.017,1.379 20.15,-0.283c13.408,-2.196 12.258,-5.025 25.879,-7.25Z" style="fill:#c4dfe0;"/><path d="M1659.367,3578.404c4.638,5.2 3.562,14.025 8.196,19.225c0.542,0.608 20.642,10.383 22.446,11.262c19.462,9.467 20.696,7.804 24.979,14.779c2.854,4.646 7.646,9.646 6.558,14.988c-0.792,3.892 -7.267,3.258 -10.683,5.283c-16.329,9.696 -18.546,1.65 -36.237,8.396c-16.813,6.412 -17,12.137 -5.833,26.387c2.975,3.796 10.037,1.233 13.85,4.183c2.037,1.579 -0.933,6.471 1.379,7.608c7.171,3.533 16.046,1.846 23.525,4.662c4.429,1.667 14.496,20.271 13.417,23.775c-1.325,4.308 -9.083,2.275 -12.45,5.271c-2.092,1.863 0.296,7.8 -2.496,8.021c-7.829,0.617 -15.508,-3.062 -22.779,-6.033c-6.225,-2.542 -10.65,-9.492 -17.321,-10.338c-8.108,-1.033 -16.15,7.396 -23.987,5.083c-10.567,-3.117 -17.321,-13.642 -26.358,-19.942c-40.046,-27.933 -37.1,-48.1 -29.025,-61.429c2.187,-3.612 7.467,-4.212 10.392,-7.258c3.521,-3.667 4.717,-9.333 8.633,-12.571c5.075,-4.196 24.588,-11.95 26.796,-12.825c6.617,-2.629 15.562,-0.962 20.454,-6.133c5.342,-5.65 1.192,-16.746 6.533,-22.392l0.012,-0.004Z" style="fill:#0c131e;"/><path d="M1084.871,2285.329c0.75,3.821 6.662,5.204 7.412,9.025c0.95,4.829 9.983,50.762 -32.55,52.196c-14.887,0.5 -15.217,0.067 -26.183,-9.546c-12.421,-10.888 -13.504,-11.042 -14.067,-27.783c-1.579,-46.812 44.087,-43.379 56.113,-35.246c4.046,2.738 5.225,8.617 9.275,11.354Z" style="fill:#cee4e9;"/><path d="M1334.521,2875.996c-2.446,-0.958 -3.287,-4.446 -5.733,-5.404c-11.596,-4.533 -27.371,-1.608 -35.746,-10.821c-5.992,-6.592 1.792,-17.767 1.65,-26.675c-0.454,-29.096 -10.867,-36.229 15.004,-50.037c4.871,-2.6 44.204,15.596 38.25,52.546c-0.233,1.442 -2.979,0.013 -8.362,16.221c-4.004,12.046 -1.125,12.333 -5.054,24.171l-0.008,0Z" style="fill:#0a131c;"/><path d="M1320.521,3499.167c0.133,6.592 5.858,12.263 5.992,18.854c0.467,22.979 -30.317,44.45 -50.442,28.429c-37.817,-30.112 4.767,-67.975 23.833,-60.925c7.729,2.858 12.888,10.783 20.617,13.642Z" style="fill:#c3dee0;"/><path d="M4390.425,2342.767c-0.871,-4.925 -7.242,-7.696 -8.112,-12.621c-0.558,-3.167 -5.787,-32.763 22.758,-33.117c29.275,-0.367 24.675,30.4 24.183,33.679c-2.65,17.737 -21.887,17.2 -24.262,17.133c-5.137,-0.146 -9.425,-4.929 -14.567,-5.075Z" style="fill:#acc4d1;"/><path d="M3171.442,4379.562c-5.588,-0.042 -10.258,5.508 -15.842,5.467c-18.854,-0.133 -27.579,-26.804 -17.458,-38.358c1.896,-2.162 17.892,-20.425 35.921,-0.867c6.567,7.121 5.746,17.721 5.621,19.325c-0.675,8.683 -7.554,5.612 -8.238,14.429l-0.004,0.004Z" style="fill:#88b5c9;"/><path d="M4052.542,1774.458c0.496,4.263 4.933,7.404 5.429,11.667c0.262,2.254 2.646,22.775 -12.354,25.55c-3.342,0.617 -38.933,7.208 -34.613,-24.583c3.296,-24.25 27.608,-19.925 30.454,-19.417c4.262,0.758 6.821,6.025 11.083,6.783Z" style="fill:#889394;"/><path d="M1949.913,4380.338c-0.763,-9.175 -8.083,-5.717 -8.838,-14.8c-0.146,-1.729 -1.142,-13.712 5.871,-20.904c19.621,-20.133 34.388,0.171 36.092,2.513c8.125,11.167 -0.246,36.542 -16.258,37.571c-5.796,0.371 -11.067,-4.75 -16.862,-4.375l-0.004,-0.004Z" style="fill:#89bdc8;"/><path d="M4218.629,2232.15c-0.471,5.554 3.779,10.842 3.304,16.396c-2.058,24.254 -43.062,20.917 -44.6,1.375c-0.238,-3.042 -2.308,-29.333 27.275,-26.667c5.512,0.496 8.508,8.396 14.021,8.892l-0,0.004Z" style="fill:#4c6f80;"/><path d="M1247.846,2698.4c5.017,-0.196 8.675,-6.083 13.692,-6.283c2.458,-0.096 22.654,-0.892 23.683,19.596c1.317,26.242 -21.787,25.342 -24.608,25.233c-19.817,-0.771 -18.542,-22.196 -18.392,-24.65c0.296,-4.988 5.325,-8.908 5.621,-13.896l0.004,0Z" style="fill:#3e6770;"/></g></svg>