<?xml version="1.0" encoding="UTF-8" standalone="no"?><!DOCTYPE svg PUBLIC "-//W3C//DTD SVG 1.1//EN" "http://www.w3.org/Graphics/SVG/1.1/DTD/svg11.dtd"><svg width="100%" height="100%" viewBox="0 0 1246 1379" version="1.1" xmlns="http://www.w3.org/2000/svg" xmlns:xlink="http://www.w3.org/1999/xlink" xml:space="preserve" xmlns:serif="http://www.serif.com/" style="fill-rule:evenodd;clip-rule:evenodd;stroke-linejoin:round;stroke-miterlimit:2;"><g id="_0658c9fe4fd0da3e07ef2e1ee8a8a0dc92bf761c54b6ea2b1d95797cd5a097f0.png" serif:id="0658c9fe4fd0da3e07ef2e1ee8a8a0dc92bf761c54b6ea2b1d95797cd5a097f0.png"><path d="M79.071,646.349c0.801,-23.703 0.339,-133.79 0.454,-176.61c0.251,-93.143 -0.581,-93.454 1.921,-98.329c3.395,-6.615 44.795,-23.766 197.576,-100.751c160.411,-80.83 160.921,-79.763 174.736,-87.045c33.394,-17.604 64.721,-32.956 70.392,-35.735c89.884,-44.048 89.745,-45.556 97.178,-45.248c6.466,0.268 6.265,1.4 72.778,35.312c160.816,81.994 161.142,81.239 235.136,118.367c101.033,50.695 101.274,50.184 110.05,54.609c52.31,26.376 52.586,25.572 57.091,27.928c21.22,11.094 41.533,20.793 45.177,22.533c21.076,10.063 20.333,13.173 20.27,29.862c-0.084,22.11 0.085,22.039 0.199,44.156c0.747,138.983 1.494,277.966 2.241,416.949c0.218,122.227 3.534,124.673 -4.604,130.617c-6.297,4.598 -85.491,44.934 -92.974,48.746c-31.751,16.172 -237.142,124.41 -239.032,125.311c-11.121,5.298 -178.36,94.459 -196.443,102.586c-15.262,6.859 -17.545,0.349 -39.139,-10.22c-2.034,-0.995 -458.115,-240.285 -491.542,-257.928c-7.552,-3.986 -19.22,-8.078 -22.487,-16.783c-1.652,-4.402 1.232,-70.592 1.022,-328.328Z" style="fill:#70bfc4;"/><path d="M105.711,661.054c0.005,-3.919 -0.818,-257.187 -0.613,-264.903c0.206,-7.747 0.288,-10.383 20.696,-19.884c38.573,-17.958 479.615,-240.628 491.021,-243.725c7.961,-2.161 10.867,0.696 156.013,73.475c77.688,38.954 77.363,39.379 84.199,42.579c16.422,7.689 220.949,110.039 259.298,128.861c15.299,7.509 19.574,6.573 19.635,23.613c0.881,245.331 -0.67,365.548 -1.08,397.333c-0.157,12.17 -1.913,148.325 -2.084,152.125c-0.265,5.89 1.8,11.027 -26.14,23.805c-21.015,9.611 -301.239,155.924 -337.237,174.211c-0.402,0.204 -136.983,73.102 -143.544,75.749c-10.464,4.22 -23.276,-7.044 -38.558,-14.42c-12.02,-5.801 -132.013,-68.455 -132.451,-68.665c-17.24,-8.295 -269.477,-141.952 -324.81,-169.522c-16.571,-8.257 -20.656,-7.647 -20.823,-26.085c-0.41,-45.218 -0.8,-45.149 -0.722,-49.074c0.471,-23.738 -1.722,-29.974 -2.801,-235.471Z" style="fill:#08131d;"/><path d="M612.588,672.889c1.25,0.138 2.351,0.986 3.601,1.124c0,0 9.562,-0.346 10.394,-0.376c71.113,0.984 74.356,-0.971 132.136,1.792c32.707,1.564 138.333,26.156 171.465,31.128c12.566,1.886 12.652,2.613 18.53,9.591c4.302,5.107 12.885,6.803 20.289,2.66c16.533,-9.25 17.437,0.264 98.546,16.31c0.791,0.157 10.588,2.095 4.697,8.925c-1.512,1.753 -20.985,4.018 -24.264,4.758c-6.672,1.506 -69.799,15.753 -83.581,18.027c-22.391,3.694 -21.937,5.445 -44.229,9.611c-44.391,8.298 -45.233,7.631 -88.361,-6.024c-10.167,-3.219 -94.252,-23.112 -97.944,-23.645c-18.029,-2.606 -190.925,-0.948 -200.774,-0.783c-29.878,0.498 -29.515,2.973 -58.559,9.759c-72.907,17.033 -93.278,27.626 -108.252,27.825c-11.117,0.148 -119.219,-20.877 -167.421,-31.975c-14.512,-3.341 -21.961,-2.708 -25.955,-5.078c-6.719,-3.988 -4.693,-7.623 2.797,-9.824c2.996,-0.88 6.192,-0.833 9.262,-1.404c3.907,-0.727 20.748,-4.927 33.824,-7.419c24.948,-4.753 33.627,-8.649 39.573,-8.585c11.773,0.128 14.798,9.988 30.157,-3.425c9.646,-8.424 17.972,-5.01 47.979,-12.068c24.908,-5.859 34.981,-6.524 39.771,-7.482c39.17,-7.836 39.004,-8.203 78.204,-16.155c8.093,-1.642 9.88,-2.004 103.089,-5.266c27.596,-0.966 27.659,1.651 55.023,-2Z" style="fill:#bbf5f4;"/><path d="M567.388,452.946c1.574,-0.039 14.858,-0.367 19.674,-0.398c10.985,-0.072 10.909,0.577 137.315,-0.045c17.172,-0.085 28.546,-1.12 31.093,6.848c1.543,4.828 0.724,4.955 0.763,128.145c0.016,50.11 1.071,53.673 -6.861,55.649c-3.034,0.756 -114.19,1.198 -123.062,0.326c-13.077,-1.284 -25.588,0.735 -34.38,0.463c-37.621,-1.162 -97.856,1.304 -107.801,0.691c-11.519,-0.71 -10.338,-7.682 -10.316,-47.335c0.075,-135.975 -1.047,-136.73 2.228,-140.695c2.95,-3.571 3.774,-3.755 91.346,-3.649Z" style="fill:#bbf4f3;"/><path d="M1019.986,499.184c0.053,14.136 0.624,167.934 -0.086,176.703c-1.567,19.367 -13.229,8.846 -65.27,1.861c-12.469,-1.673 -31.621,-6.97 -43.606,-8.543c-29.654,-3.891 -29.131,-6.37 -58.868,-10.305c-0.809,-0.107 -49.556,-8.849 -53.865,-9.621c-15.158,-2.718 -13.265,-7.136 -13.447,-22.581c-0.126,-10.756 0.097,-151.996 0.368,-156.781c0.861,-15.16 16.062,-9.335 37.108,-8.095c18.481,1.089 96.715,10.23 152.042,14.63c40.615,3.229 41.961,5.273 43.929,8.259c1.445,2.194 1.671,13.308 1.695,14.474Z" style="fill:#bcf6f5;"/><path d="M272.69,683.501c-22.73,6.122 -27.822,6.041 -33.961,6.826c-14.401,1.841 -13.963,-5.31 -14.097,-19.465c-0.129,-13.734 -1.206,-128.022 -0.359,-171.676c0.38,-19.569 9.958,-15.179 39.113,-18.675c8.604,-1.032 31.638,-3.794 107.644,-12.067c40.695,-4.429 40.606,-4.825 44.145,-5.164c20.617,-1.976 29.236,-3.082 30.451,11.31c0.774,9.165 0.542,144.483 0.52,157.046c-0.012,6.711 1.567,16.985 -11.048,20.122c-13.955,3.47 -26.966,5.476 -29.33,5.841c-50.516,7.788 -82.984,18.751 -133.079,25.902Z" style="fill:#c8f7f6;"/><path d="M596.815,624.597c-79.899,0.215 -96.056,0.941 -97.711,0.354c-7.804,-2.768 -6.737,-4.586 -6.802,-12.951c-0.082,-10.628 -0.998,-128.661 -0.09,-132.858c1.902,-8.8 5.619,-7.233 70.288,-7.539c15.778,-0.075 165.58,-0.175 166.57,0.056c8.684,2.027 8.281,3.975 8.334,12.843c0.082,13.721 -0.093,130.127 -0.633,132.094c-0.211,0.77 -1.737,6.325 -6.831,7.272c-9.834,1.829 -85.309,-0.516 -133.125,0.729Z" style="fill:#114752;"/><path d="M999.638,621.809c0.033,25.968 1.233,38.895 -4.694,40.747c-7.773,2.428 -42.187,-6.833 -94.232,-14.478c-31.98,-4.698 -31.742,-5.736 -63.684,-10.24c-28.532,-4.024 -30.416,-6.072 -32.214,-8.026c-3.214,-3.493 -3.893,-8.836 -2.648,-120.83c0.103,-9.229 -1.531,-27.268 5.629,-29.3c6.965,-1.976 54.363,6.182 142.373,12.76c44.302,3.311 45.288,4.649 47.577,7.752c2.131,2.889 2.546,3.284 1.893,121.616Z" style="fill:#12505b;"/><path d="M244.004,631.627c-0.515,-117.518 -1.091,-119.17 -0.247,-122.607c2.269,-9.236 12.742,-6.048 73.394,-15.317c12.823,-1.96 29.34,-2.798 34.515,-3.376c27.016,-3.017 26.804,-3.972 53.728,-7.089c18.911,-2.189 22.531,-0.872 22.782,11.119c1.087,52.008 0.278,117.258 0.152,127.453c-0.173,13.945 -4.02,13.403 -17.701,15.809c-30.144,5.301 -29.723,7.001 -59.381,11.591c-24.829,3.843 -26.912,6.247 -49.06,9.557c-45.373,6.783 -45.888,11.434 -54.391,8.462c-4.717,-1.649 -3.833,-8.739 -3.792,-35.602Z" style="fill:#155965;"/><path d="M841.889,808.086c-1.627,2.606 -3.254,5.213 -4.881,7.819c-42.801,0.19 -81.3,-1.093 -220.553,-0.805c-117.689,0.243 -157.905,0.754 -171.635,0.929c-36.581,0.465 -37.365,-1.032 -38.811,-3.796c-0.72,-1.376 0.509,-3.069 0.601,-4.619c0.208,-3.489 -1.73,-10.305 0.25,-12.234c0.925,-0.901 7.362,-2.987 8.019,-3.2c33.376,-10.819 54.054,-14.741 58.839,-15.649c13.008,-2.468 24.037,-7.34 44.347,-9.834c13.62,-1.672 159.032,-0.165 162.263,0.006c16.557,0.875 50.528,-1.078 63.733,2.042c71.304,16.85 85.755,22.503 92.93,25.31c5.949,2.327 5.281,3.406 5.815,3.511c1.492,0.292 3.913,-1.969 4.526,-0.577c0.89,2.023 -1.024,4.338 -1.997,6.322c-0.864,1.763 -2.58,3.014 -3.445,4.777Z" style="fill:#123d47;"/><path d="M875.944,804.231c2.959,-0.711 2.421,-1.774 5.393,-2.488c0.396,-0.095 0.348,0.403 5.09,-0.032c0.196,-0.018 30.993,-5.713 34.657,-6.584c3.054,-0.726 20.997,-4.99 38.456,-7.8c14.937,-2.404 44.145,-8.668 44.398,-8.694c0.929,-0.096 8.773,-0.905 10.616,4.847c0.369,1.15 0.029,62.913 0.393,83.537c0.179,10.17 3.127,19.466 -10.547,25.518c-3.535,1.565 -38.878,17.207 -44.241,19.447c-57.968,24.212 -58.022,23.863 -63.012,26.067c-7.123,3.146 -7.153,2.862 -14.789,4.067c-0.326,-0.899 -4.076,-11.236 -4.076,-11.236c-1.098,-12.738 0.645,-113.024 -1.357,-123.055c-0.243,-1.218 -0.738,-2.377 -0.981,-3.595Z" style="fill:#17454f;"/><path d="M367.983,809.423c-1.27,19.101 0.25,19.055 -0.476,38.247c-1.47,38.892 0.407,71.076 -2.22,94.481c-1.471,-0.104 -2.849,-0.851 -4.319,-0.955c-1.804,-0.127 -2.733,1.194 -9.208,-0.987c-6.574,-2.215 -41.103,-18.133 -64.588,-27.462c-0.266,-0.106 -49.561,-21.089 -53.971,-25.369c-7.105,-6.895 -4.129,-19.425 -4.527,-35.022c-0.752,-29.461 -0.172,-29.354 -0.555,-58.909c-0.195,-15.034 5.815,-13.383 20.645,-11.137c4.355,0.66 64.502,12.835 78.57,14.617c2.354,0.298 24.276,3.075 29.212,5.15c1.003,0.421 0.846,0.543 11.438,7.346Z" style="fill:#144049;"/><path d="M367.983,809.423c1.96,-3.37 0.319,-6.188 13.441,-8.938c10.382,-2.176 10.632,1.745 11.087,12.403c0.592,13.869 0.176,111.272 -0.041,113.227c-1.271,11.45 -11.053,13.822 -16.015,15.736c-0.721,0.278 -6.16,2.376 -9.536,1.532c-0.661,-0.165 -0.97,-1.067 -1.631,-1.232c2.627,-23.405 0.75,-55.589 2.22,-94.481c0.725,-19.192 -0.794,-19.146 0.476,-38.247Z" style="fill:#50989f;"/><path d="M875.944,804.231c0.243,1.218 0.738,2.377 0.981,3.595c2.002,10.031 0.259,110.317 1.357,123.055c0,0 3.75,10.337 4.076,11.236c-0.52,0.146 -3.791,4.025 -15.926,-0.987c-9.009,-3.721 -10.708,-8.615 -11.095,-9.73c-2.643,-7.617 -1.041,-122.978 -1.041,-122.983c1.099,-7.373 6.384,-7.971 7.246,-8.069c1.809,-0.205 1.772,0.133 14.402,3.884Z" style="fill:#478b92;"/><path d="M798.346,732.985c-22.043,-5.284 -22.101,-4.525 -44.25,-9.121c-1.132,-0.235 -17.504,-3.632 -0.809,-14.426c13.999,-9.051 17.645,-10.731 29.468,-7.525c19.578,5.309 19.75,4.278 39.571,8.837c36.398,8.372 36.493,7.756 39.638,8.554c0.952,0.241 13.347,3.385 1.655,12.161c-1.201,0.902 -10.543,7.914 -16.409,9.12c-3.875,0.797 -7.698,1.582 -48.864,-7.6Z" style="fill:#052735;"/><path d="M360.988,587.226c3.732,-6.518 3.005,-7.241 5.795,-8.375c5.169,-2.101 5.054,0.073 9.097,3.984c2.33,2.254 2.286,2.924 5.501,2.27c11.343,-2.307 9.004,-10.034 10.899,-10.258c1.465,-0.174 2.548,1.487 3.842,2.196c3.137,1.719 3.076,2.139 2.749,5.676c-1.909,20.683 -26.94,13.144 -27.678,13.117c-1.175,-0.042 -1.134,0.687 -14.681,0.72c-14.041,0.035 -12.393,6.403 -19.574,6.548c-6.796,0.137 -10.646,-11.398 -14.78,-11.422c-8.91,-0.05 -14.973,37.118 -29.565,20.43c-0.661,-0.756 -6.736,-7.703 -9.883,-7.751c-5.578,-0.085 -4.34,4.315 -9.918,3.962c-10.151,-0.643 2.612,-25.578 14.727,-20.116c2.025,0.913 3.665,2.512 5.49,3.778c10.511,7.297 10.886,0.482 17.735,-10.242c0.815,-1.277 6.878,-12.865 7.212,-13.098c1.445,-1.006 6.996,-0.686 7.896,0.18c0.975,0.938 1.117,8.945 9.729,16.154c3.665,3.068 8.617,-0.998 15.794,-1.06c7.988,-0.069 7.161,2.463 9.612,3.306Z" style="fill:#c1ebec;"/><path d="M598.261,574.596c-2.842,-5.235 -5.098,-3.357 -7.92,-8.555c-0.134,-0.246 -0.521,-0.959 1.574,-3.133c0.907,-0.942 2.384,-1.147 3.373,-2.002c0.76,-0.656 1.05,-1.738 1.768,-2.439c4.019,-3.922 3.799,-5.532 9.372,-4.469c5.417,1.032 5.62,4.533 15.426,0.102c15.454,-6.982 18.497,2.026 24.203,2.885c6.176,0.93 11.967,-16.854 15.761,-22.871c10.719,-16.997 8.752,-17.992 9.753,-19.413c5.375,-7.63 9.606,-4.757 11.244,4.476c0.643,3.627 -0.53,3.74 5.021,29.392c2.966,13.706 8.326,9.486 11.165,10.925c4.907,2.487 4.684,3.521 3.229,8.779c-4.051,14.635 -14.563,3.941 -15.445,3.043c-10.43,-10.612 -10.693,-27.122 -11.613,-27.813c-3.399,-2.555 -4.036,-1.168 -6.13,2.508c-5.476,9.616 -5.257,9.721 -5.735,10.555c-8.659,15.108 -12.477,18.709 -23.054,12.485c-10.697,-6.294 -12.493,-3.163 -18.555,-0.611c-10.799,4.548 -12.02,-0.417 -20.255,3.847c-1.164,0.603 -2.018,1.707 -3.182,2.31Z" style="fill:#bbe7e7;"/><path d="M679.991,700.322c-0.767,0.436 -9.592,5.45 -9.592,5.45c-8.09,1.562 -85.854,0.634 -93.319,0.545c-1.174,-0.014 -12.217,-0.146 -14.658,-0.679c-1.668,-0.365 -3.127,-1.627 -4.833,-1.697c-2.272,-0.094 -4.44,1.316 -6.712,1.222c-0.185,-1.675 -5.403,-12.32 6.836,-13.634c3.135,-0.337 112.151,-2.019 117.36,-0.476c5.324,1.577 3.385,3.431 4.918,9.268Z" style="fill:#427d87;"/><path d="M930.565,575.697c3.747,1.338 7.495,2.675 11.242,4.013c-0.079,0.076 -8.448,10.019 -11.664,10.556c-4.203,0.701 -19.506,-11.267 -30.474,-5.002c-11.837,6.761 -12.74,3.177 -18.95,-2.002c-10.898,-9.089 -15.469,12.152 -24.055,12.597c-7.717,0.4 -10.154,-12.058 -14.45,-13.434c-5.828,-1.866 -9.848,1.433 -9.958,1.446c-1.713,0.205 -3.908,0.153 -5.047,-1.142c-4.238,-4.819 5.563,-12.632 6.493,-13.373c10.87,-8.666 17.372,7.446 22.996,7.465c4.055,0.014 14.106,-15.46 15.542,-18.22c4.08,-7.842 8.564,-8.132 11.574,0.158c0.36,0.991 -0.437,2.12 -0.235,3.155c3.17,16.192 14.481,9.457 17.084,9.048c2.393,-0.376 5.523,-0.867 29.901,4.735Z" style="fill:#c3eded;"/><path d="M679.991,700.322c0.107,1.679 -0.36,3.363 -0.253,5.042c0.469,7.383 1.035,7.548 -0.071,9.195c-2.308,3.44 -16.158,3.49 -53.379,3.175c-68.188,-0.576 -69.354,0.834 -72.801,-3.372c-1.009,-1.231 -1.716,-3.724 -1.813,-4.066c-0.716,-2.523 -0.067,-2.56 -0.797,-5.133c2.272,0.094 4.44,-1.316 6.712,-1.222c1.706,0.07 3.165,1.333 4.833,1.697c2.441,0.533 13.484,0.665 14.658,0.679c7.465,0.089 85.228,1.017 93.319,-0.545c0,0 8.825,-5.014 9.592,-5.45Z" style="fill:#14404f;"/><path d="M469.039,728.591c-66.558,14.601 -71.236,19.67 -93.865,7.501c-5.95,-3.199 -6.031,-3.062 -6.698,-3.775c-1.546,-1.653 -3.509,-13.282 12.206,-6.625c7.756,3.286 11.834,7.347 24.982,4.665c73.728,-15.037 83.193,-20.433 83.596,-10.39c0.143,3.568 -2.293,4.24 -20.221,8.623Z" style="fill:#0e3943;"/><path d="M577.021,570.24c-1.336,1.142 -3.09,1.725 -4.426,2.867c-0.342,0.292 -10.32,12.961 -10.853,13.383c-0.535,0.423 -4.333,3.431 -8.518,0.233c-0.865,-0.661 -0.725,-0.718 -6.224,-8.54c-5.396,-7.677 -7.648,-7.858 -14.882,-1.941c-9.181,7.511 -11.231,1.297 -11.52,0.421c-2.257,-6.84 14.299,-19.448 16.897,-19.976c6.811,-1.385 6.958,-0.279 11.958,4.596c5.802,5.657 5.83,10.106 12.594,5.552c1.239,-0.834 1.106,-0.967 6.991,-7.684c13.348,-15.235 12.639,-20.495 18.705,-17.526c3.875,1.897 3.105,2.755 2.819,6.983c-0.45,6.646 -2.423,8.252 -13.54,21.634Z" style="fill:#ccf0f0;"/><path d="M930.565,575.697c10.282,-11.914 9.317,-12.5 16.497,-26.519c2.624,-5.123 2.249,-6.805 7.987,-6.349c4.037,0.321 3.485,1.564 4.238,5.564c9.343,49.641 3.606,50.755 0.507,52.08c-4.991,2.135 -6.427,-11.379 -6.546,-12.502c-0.168,-1.583 -0.079,-3.198 -0.38,-4.761c-0.134,-0.696 -0.889,-1.214 -0.907,-1.923c-0.025,-0.96 0.707,-1.815 0.787,-2.772c0.264,-3.168 -2.131,-9.888 -2.5,-9.886c-2.37,0.014 -2.8,3.827 -4.09,5.815c-1.906,2.936 -2.149,2.601 -4.349,5.266c-3.747,-1.338 -7.495,-2.675 -11.242,-4.013Z" style="fill:#a9ddde;"/><path d="M479.186,950.565c6.338,-2.759 7.395,-1.725 11.488,-8.705c2.956,-5.043 2.326,-7.356 8.136,-6.298c4.152,0.756 2.709,6.611 8.295,11.546c8.106,7.161 9.557,3.892 10.204,4.506c0.927,0.88 -1.084,2.395 -1.105,3.673c-0.02,1.289 1.912,2.843 0.987,3.741c-0.637,0.618 -2.053,-2.454 -10.105,4.571c-4.739,4.134 -5.011,9.132 -5.542,9.847c-0.795,1.07 -6.035,2.138 -7.546,1.305c-1.453,-0.802 -3.471,-11.579 -10.363,-14.019c-2.551,-0.903 -6.069,-0.234 -7.776,-2.334c-0.96,-1.181 4.36,-1.868 3.399,-3.049l-0.073,-4.785Z" style="fill:#c9f2f3;"/><path d="M724.236,709.948c-1.916,1.097 -3.49,2.73 -5.407,3.826c-3.808,2.18 -22.338,6.705 -23.021,-3.745c-1.069,-16.344 7.662,-17.948 9.272,-18.244c3.465,-0.636 26.422,-0.962 28.269,0.121c6.268,3.674 -0.783,10.533 -1.428,11.16c-0.592,0.575 -0.713,0.423 -7.686,6.881Z" style="fill:#032f3e;"/><path d="M514.007,714.069c-1.535,-1.088 -18.094,-12.826 -18.287,-14.8c-0.062,-0.632 -0.535,-5.471 3.766,-6.989c1.049,-0.37 23.426,-1.007 28.613,3.179c2.087,1.684 7.177,11.944 7.748,14.948c0.197,1.038 -0.047,8.158 -7.764,7.795c-6.253,-0.294 -6.007,-1.191 -14.075,-4.133Z" style="fill:#05303f;"/><path d="M629.427,330.67c-1.675,0.031 -1.55,-0.57 -3.286,-0.538c-3.216,0.059 -3.134,0.789 -3.378,0.66c-1.047,-0.55 -1.045,-2.124 -1.489,-3.219c-3.408,-8.413 -3.418,-8.559 -10.459,-14.366c-2.139,-1.765 -3.135,-1.827 -1.794,-4.229c1.09,-1.951 1.438,-1.619 7.519,-5.922c3.062,-2.167 5.472,-8.576 5.804,-8.717c1.163,-0.496 2.458,0.679 3.721,0.741c1.18,0.058 2.514,-0.997 3.523,-0.383c1.069,0.65 0.961,2.311 1.503,3.438c3.798,7.901 9.736,9.732 9.778,9.819c0.695,1.439 0.304,3.22 0.029,4.794c-0.637,3.65 -1.784,2.812 -4.926,4.845c-2.36,1.527 -3.004,2.917 -6.544,13.078Z" style="fill:#b9ebee;"/><path d="M720.811,1037.647c-0.287,-1.322 -1.616,-2.261 -1.903,-3.583c-1.168,-5.382 1.425,-8.154 1.91,-8.673c3.628,-3.879 3.839,-4.907 8.847,-3.268c14.425,4.719 7.257,20.868 -0.431,21.171c-5.5,0.217 -4.864,-1.483 -8.424,-5.647Z" style="fill:#bde9e9;"/><path d="M392.696,384.983c-0.234,-0.948 -5.8,-8.534 1.804,-15.14c4.845,-4.209 12.65,2.625 13.484,7.354c0.309,1.752 -3.3,11.051 -4.612,12.011c-5.679,4.156 -6.329,1.284 -10.676,-4.225Z" style="fill:#b0dfe4;"/><path d="M612.588,672.889c-0.01,-1.331 -0.128,-16.639 -0.128,-16.639c0.13,-0.799 1.3,-1.009 1.757,-1.678c0.889,-1.3 0.668,-4.309 2.235,-4.161c0.346,0.033 7.527,5.699 7.555,5.951c0.384,3.52 0.107,7.088 0.417,10.616c0.334,3.8 0.89,5.517 1.04,5.979c0.135,0.415 0.984,0.265 1.119,0.68c-0.832,0.03 -10.394,0.376 -10.394,0.376c-1.25,-0.138 -2.351,-0.986 -3.601,-1.124Z" style="fill:#499597;"/><path d="M272.69,683.501c1.989,2.682 5.19,4.305 7.178,6.987c3.057,4.124 1.328,4.59 1.408,9.66c0.097,6.112 1.768,7.473 -3.693,10.336c-0.368,0.193 -5.559,-2.285 -7.288,-5.955c-0.386,-0.82 0.534,-1.795 0.393,-2.69c-0.115,-0.73 -0.87,-1.219 -1.118,-1.915c-0.536,-1.503 -1.598,-3.082 -1.215,-4.631c0.737,-2.982 2.463,-1.858 3.546,-4.804c1.242,-3.378 -0.447,-3.624 0.789,-6.987Z" style="fill:#254e59;"/><path d="M718.511,387.1c-0.072,-0.279 -2.21,-1.966 -1.486,-5.766c0.13,-0.682 1.283,-6.736 3.799,-7.808c0.245,-0.104 6.793,-0.067 7.045,0.041c4.132,1.767 4.451,7.334 4.493,8.071c0.603,10.533 -9.835,9.131 -11.63,8.082c-0.989,-0.578 -1.232,-2.043 -2.221,-2.62Z" style="fill:#a0d4d7;"/><path d="M873.217,350.931c-0.169,-1.36 -1.092,-2.554 -1.261,-3.915c-0.104,-0.838 -1.051,-8.438 4.557,-9.524c8.43,-1.632 14.184,9.636 5.799,16.333c-4.452,3.556 -4.908,0.911 -9.095,-2.894Z" style="fill:#96cad4;"/><path d="M740.571,934.583c-0.163,-1.331 -1.326,-2.405 -1.49,-3.736c-0.816,-6.651 6.843,-9.813 9.457,-8.694c9.637,4.126 6.186,18.179 -5.183,14.702c-1.146,-0.35 -1.639,-1.922 -2.785,-2.273Z" style="fill:#9fd5de;"/><path d="M573.931,1022.432c-0.216,-1.208 -1.474,-2.063 -1.69,-3.271c-0.142,-0.795 -1.434,-8.038 5.152,-8.683c9.969,-0.977 9.256,14.945 -0.202,13.649c-1.213,-0.166 -2.047,-1.528 -3.26,-1.694Z" style="fill:#90c0cb;"/><path d="M784.847,328.779c1.2,-0.176 1.904,-1.721 3.103,-1.897c0.75,-0.11 7.48,-1.097 7.651,5.588c0.183,7.153 -7.062,6.317 -7.858,6.225c-4.541,-0.524 -4.267,-5.659 -4.235,-6.263c0.069,-1.295 1.27,-2.357 1.339,-3.652Z" style="fill:#5f9aa0;"/><path d="M483.981,371.693c0.055,1.971 3.109,3.026 3.164,4.997c0.205,7.365 -7.521,5.522 -8.288,5.339c-4.339,-1.035 -4.596,-10.225 0.043,-10.99c1.685,-0.278 3.396,0.932 5.08,0.654Z" style="fill:#2b5d6a;"/><path d="M379.236,996.858c0.218,1.041 1.53,1.628 1.748,2.668c1.269,6.061 -4.283,7.822 -5.006,8.051c-0.874,0.277 -7.201,-1.465 -5.54,-8.425c0.85,-3.559 5.057,-3.408 5.578,-3.389c1.133,0.041 2.087,1.054 3.22,1.095Z" style="fill:#326673;"/><path d="M817.288,410.014c-1.29,-0.539 -2.898,0.315 -4.188,-0.224c-3.329,-1.39 -3.945,-9.118 -1.365,-9.867c0.713,-0.207 7.275,-2.111 9.074,1.969c2.024,4.589 -0.108,4.409 -3.521,8.121Z" style="fill:#33636e;"/><path d="M884.068,1016.741c-1.055,0.09 -1.863,1.166 -2.919,1.256c-0.533,0.045 -5.152,0.439 -5.891,-3.153c-0.167,-0.809 -1.888,-9.175 5.822,-8.531c6.37,0.532 4.963,7.079 4.809,7.796c-0.224,1.043 -1.597,1.589 -1.821,2.632Z" style="fill:#40727c;"/><path d="M973.861,411.061c-0.614,1.294 0.265,2.989 -0.35,4.283c-0.565,1.19 -1.629,2.495 -2.937,2.642c-0.854,0.096 -8.82,0.992 -7.399,-7.78c0.749,-4.626 5.737,-3.66 6.305,-3.55c0.488,0.094 0.32,0.322 4.381,4.405Z" style="fill:#254b56;"/><path d="M841.889,808.086c0.304,7.587 0.937,7.86 0.323,8.058c-1.652,0.534 -3.552,-0.773 -5.204,-0.239c1.627,-2.606 3.254,-5.213 4.881,-7.819Z" style="fill:#091e26;"/></g></svg>